Aleo-Regular Italic.ufo
<glyph name="quotedbl" format="2">
	<advance width="382"/>
	<unicode hex="0022"/>
	<note>
		quotedbl
	</note>
	<outline>
		<contour>
			<point x="125.911" y="717" type="line"/>
			<point x="108.107" y="572" type="line"/>
			<point x="106.53" y="494" type="line"/>
			<point x="107.951" y="473"/>
			<point x="116.478" y="461"/>
			<point x="133.478" y="461" type="curve" smooth="yes"/>
			<point x="153.478" y="461"/>
			<point x="162.951" y="473"/>
			<point x="168.53" y="494" type="curve" smooth="yes"/>
			<point x="186.107" y="572" type="line"/>
			<point x="203.911" y="717" type="line"/>
			<point x="125.911" y="717" type="line"/>
		</contour>
		<contour>
			<point x="292.911" y="717" type="line"/>
			<point x="275.107" y="572" type="line"/>
			<point x="273.53" y="494" type="line"/>
			<point x="274.951" y="473"/>
			<point x="282.478" y="461"/>
			<point x="299.478" y="461" type="curve" smooth="yes"/>
			<point x="320.478" y="461"/>
			<point x="330.951" y="473"/>
			<point x="334.53" y="494" type="curve" smooth="yes"/>
			<point x="352.107" y="572" type="line"/>
			<point x="369.911" y="717" type="line"/>
			<point x="292.911" y="717" type="line"/>
		</contour>
	</outline>
</glyph>
<glyph name="numbersign" format="2">
	<advance width="601"/>
	<unicode hex="0023"/>
	<note>
		numbersign
	</note>
	<outline>
		<contour>
			<point x="60.874" y="0" type="line"/>
			<point x="100.874" y="0" type="line" smooth="yes"/>
			<point x="119.874" y="0"/>
			<point x="138.102" y="10"/>
			<point x="146.049" y="34" type="curve" smooth="yes"/>
			<point x="202.904" y="212" type="line"/>
			<point x="326.904" y="212" type="line"/>
			<point x="269.172" y="35" type="line" smooth="yes"/>
			<point x="262.839" y="16"/>
			<point x="270.874" y="0"/>
			<point x="291.874" y="0" type="curve" smooth="yes"/>
			<point x="331.874" y="0" type="line"/>
			<point x="399.904" y="212" type="line"/>
			<point x="518.904" y="212" type="line"/>
			<point x="528.079" y="246" type="line" smooth="yes"/>
			<point x="533.289" y="264"/>
			<point x="529.885" y="277"/>
			<point x="506.885" y="277" type="curve" smooth="yes"/>
			<point x="417.885" y="277" type="line"/>
			<point x="469.899" y="440" type="line"/>
			<point x="538.899" y="440" type="line" smooth="yes"/>
			<point x="563.899" y="440"/>
			<point x="577.004" y="449"/>
			<point x="582.337" y="468" type="curve" smooth="yes"/>
			<point x="594.003" y="506" type="line"/>
			<point x="488.003" y="506" type="line"/>
			<point x="545.736" y="683" type="line" smooth="yes"/>
			<point x="552.192" y="703"/>
			<point x="540.911" y="717"/>
			<point x="521.911" y="717" type="curve" smooth="yes"/>
			<point x="481.911" y="717" type="line"/>
			<point x="414.003" y="506" type="line"/>
			<point x="291.003" y="506" type="line"/>
			<point x="358.911" y="717" type="line"/>
			<point x="318.911" y="717" type="line" smooth="yes"/>
			<point x="298.911" y="717"/>
			<point x="281.437" y="705"/>
			<point x="274.982" y="685" type="curve" smooth="yes"/>
			<point x="217.003" y="506" type="line"/>
			<point x="138.003" y="506" type="line" smooth="yes"/>
			<point x="113.003" y="506"/>
			<point x="99.898" y="497"/>
			<point x="94.442" y="477" type="curve" smooth="yes"/>
			<point x="83.899" y="440" type="line"/>
			<point x="199.899" y="440" type="line"/>
			<point x="146.885" y="277" type="line"/>
			<point x="44.885" y="277" type="line"/>
			<point x="34.974" y="237" type="line" smooth="yes"/>
			<point x="30.887" y="220"/>
			<point x="40.904" y="212"/>
			<point x="56.904" y="212" type="curve" smooth="yes"/>
			<point x="129.904" y="212" type="line"/>
		</contour>
		<contour>
			<point x="220.885" y="277" type="line"/>
			<point x="272.899" y="440" type="line"/>
			<point x="396.899" y="440" type="line"/>
			<point x="343.885" y="277" type="line"/>
		</contour>
	</outline>
</glyph>
<glyph name="dollar" format="2">
	<advance width="545"/>
	<unicode hex="0024"/>
	<anchor x="333.911" y="717" name="top"/>
	<anchor x="239.874" y="0" name="bottom"/>
	<note>
		dollar
	</note>
	<outline>
		<contour>
			<point x="176.263" y="-119" type="line"/>
			<point x="209.263" y="-119" type="line" smooth="yes"/>
			<point x="222.263" y="-119"/>
			<point x="234.613" y="-108"/>
			<point x="237.21" y="-95" type="curve" smooth="yes"/>
			<point x="411.557" y="820" type="line"/>
			<point x="378.557" y="820" type="line" smooth="yes"/>
			<point x="363.557" y="820"/>
			<point x="353.084" y="808"/>
			<point x="350.488" y="795" type="curve" smooth="yes"/>
		</contour>
		<contour>
			<point x="222.892" y="-8" type="curve" smooth="yes"/>
			<point x="375.892" y="-8"/>
			<point x="479.556" y="87"/>
			<point x="495.15" y="214" type="curve" smooth="yes"/>
			<point x="509.516" y="331"/>
			<point x="435.55" y="372"/>
			<point x="346.479" y="404" type="curve" smooth="yes"/>
			<point x="266.04" y="433"/>
			<point x="180.25" y="451"/>
			<point x="190.564" y="535" type="curve" smooth="yes"/>
			<point x="198.422" y="599"/>
			<point x="254.947" y="644"/>
			<point x="336.947" y="644" type="curve" smooth="yes"/>
			<point x="368.947" y="644"/>
			<point x="412.088" y="637"/>
			<point x="453.614" y="625" type="curve"/>
			<point x="527.773" y="610" type="line"/>
			<point x="536.859" y="684" type="line"/>
			<point x="477.051" y="710"/>
			<point x="403.893" y="725"/>
			<point x="346.893" y="725" type="curve" smooth="yes"/>
			<point x="210.893" y="725"/>
			<point x="113.456" y="640"/>
			<point x="98.968" y="522" type="curve" smooth="yes"/>
			<point x="84.479" y="404"/>
			<point x="166.568" y="364"/>
			<point x="246.13" y="336" type="curve" smooth="yes"/>
			<point x="327.569" y="307"/>
			<point x="413.973" y="294"/>
			<point x="402.431" y="200" type="curve" smooth="yes"/>
			<point x="393.222" y="125"/>
			<point x="329.837" y="73"/>
			<point x="240.837" y="73" type="curve"/>
			<point x="191.837" y="73"/>
			<point x="160.697" y="80"/>
			<point x="109.153" y="100" type="curve"/>
			<point x="34.485" y="119" type="line"/>
			<point x="23.558" y="30" type="line"/>
			<point x="61.716" y="15"/>
			<point x="146.892" y="-8"/>
		</contour>
		<contour>
			<point x="448.842" y="635" type="line"/>
			<point x="451.564" y="535" type="line" smooth="yes"/>
			<point x="452.09" y="523"/>
			<point x="459.599" y="519"/>
			<point x="470.599" y="519" type="curve" smooth="yes"/>
			<point x="516.599" y="519" type="line"/>
			<point x="527.773" y="610" type="line"/>
			<point x="448.842" y="635" type="line"/>
		</contour>
		<contour>
			<point x="113.416" y="94" type="line"/>
			<point x="110.694" y="194" type="line" smooth="yes"/>
			<point x="110.168" y="206"/>
			<point x="102.659" y="210"/>
			<point x="91.659" y="210" type="curve" smooth="yes"/>
			<point x="45.659" y="210" type="line"/>
			<point x="34.485" y="119" type="line"/>
			<point x="113.416" y="94" type="line"/>
		</contour>
	</outline>
</glyph>
<glyph name="percent" format="2">
	<advance width="794"/>
	<unicode hex="0025"/>
	<note>
		percent
	</note>
	<outline>
		<contour>
			<point x="393.669" y="544" type="curve"/>
			<point x="393.669" y="544" type="line"/>
			<point x="407.175" y="654"/>
			<point x="349.77" y="724"/>
			<point x="256.77" y="724" type="curve" smooth="yes"/>
			<point x="161.77" y="724"/>
			<point x="89.175" y="654"/>
			<point x="75.669" y="544" type="curve" smooth="yes"/>
			<point x="62.408" y="436"/>
			<point x="117.813" y="366"/>
			<point x="212.813" y="366" type="curve" smooth="yes"/>
			<point x="302.813" y="366"/>
			<point x="380.531" y="437"/>
		</contour>
		<contour>
			<point x="323.669" y="544" type="curve"/>
			<point x="323.669" y="544" type="line"/>
			<point x="313.723" y="463"/>
			<point x="275.058" y="425"/>
			<point x="220.058" y="425" type="curve" smooth="yes"/>
			<point x="165.058" y="425"/>
			<point x="135.723" y="463"/>
			<point x="145.669" y="544" type="curve" smooth="yes"/>
			<point x="155.492" y="624"/>
			<point x="193.526" y="665"/>
			<point x="249.526" y="665" type="curve" smooth="yes"/>
			<point x="304.526" y="665"/>
			<point x="333.492" y="624"/>
		</contour>
		<contour>
			<point x="55.874" y="0" type="line"/>
			<point x="121.874" y="0" type="line" smooth="yes"/>
			<point x="134.874" y="0"/>
			<point x="144.611" y="6"/>
			<point x="152.716" y="15" type="curve" smooth="yes"/>
			<point x="761.911" y="717" type="line"/>
			<point x="697.911" y="717" type="line" smooth="yes"/>
			<point x="681.911" y="717"/>
			<point x="673.051" y="710"/>
			<point x="662.701" y="699" type="curve"/>
			<point x="55.874" y="0" type="line"/>
		</contour>
		<contour>
			<point x="743.625" y="169" type="curve"/>
			<point x="743.625" y="169" type="line"/>
			<point x="757.131" y="279"/>
			<point x="701.849" y="350"/>
			<point x="606.849" y="350" type="curve" smooth="yes"/>
			<point x="512.849" y="350"/>
			<point x="440.131" y="279"/>
			<point x="426.625" y="169" type="curve" smooth="yes"/>
			<point x="413.61" y="63"/>
			<point x="469.769" y="-9"/>
			<point x="562.769" y="-9" type="curve" smooth="yes"/>
			<point x="651.769" y="-9"/>
			<point x="730.732" y="64"/>
		</contour>
		<contour>
			<point x="674.625" y="169" type="curve"/>
			<point x="674.625" y="169" type="line"/>
			<point x="664.925" y="90"/>
			<point x="625.136" y="51"/>
			<point x="570.136" y="51" type="curve" smooth="yes"/>
			<point x="514.136" y="51"/>
			<point x="486.802" y="89"/>
			<point x="496.625" y="169" type="curve" smooth="yes"/>
			<point x="506.57" y="250"/>
			<point x="542.604" y="291"/>
			<point x="599.604" y="291" type="curve" smooth="yes"/>
			<point x="655.604" y="291"/>
			<point x="684.447" y="249"/>
		</contour>
	</outline>
</glyph>
<glyph name="ampersand" format="2">
	<advance width="706"/>
	<unicode hex="0026"/>
	<note>
		ampersand
	</note>
	<outline>
		<contour>
			<point x="216.892" y="-8" type="curve" smooth="yes"/>
			<point x="313.892" y="-8"/>
			<point x="401.558" y="30"/>
			<point x="472.048" y="91" type="curve"/>
			<point x="535.084" y="18" type="line" smooth="yes"/>
			<point x="548.242" y="3"/>
			<point x="556.874" y="0"/>
			<point x="575.874" y="0" type="curve" smooth="yes"/>
			<point x="661.874" y="0" type="line"/>
			<point x="530.537" y="152" type="line"/>
			<point x="582.518" y="217"/>
			<point x="615.85" y="293"/>
			<point x="626.182" y="369" type="curve"/>
			<point x="571.182" y="369" type="line" smooth="yes"/>
			<point x="559.182" y="369"/>
			<point x="551.199" y="361"/>
			<point x="548.726" y="349" type="curve" smooth="yes"/>
			<point x="537.709" y="300"/>
			<point x="516.447" y="249"/>
			<point x="486.045" y="205" type="curve"/>
			<point x="305.707" y="414" type="line" smooth="yes"/>
			<point x="266.232" y="459"/>
			<point x="244.758" y="504"/>
			<point x="250.406" y="550" type="curve" smooth="yes"/>
			<point x="257.895" y="611"/>
			<point x="308.298" y="655"/>
			<point x="372.298" y="655" type="curve" smooth="yes"/>
			<point x="427.298" y="655"/>
			<point x="459.509" y="616"/>
			<point x="463.598" y="576" type="curve" smooth="yes"/>
			<point x="466.125" y="564"/>
			<point x="473.388" y="558"/>
			<point x="482.633" y="560" type="curve" smooth="yes"/>
			<point x="544.107" y="572" type="line"/>
			<point x="548.298" y="655"/>
			<point x="480.893" y="725"/>
			<point x="380.893" y="725" type="curve"/>
			<point x="264.893" y="725"/>
			<point x="179.684" y="650"/>
			<point x="167.283" y="549" type="curve" smooth="yes"/>
			<point x="160.898" y="497"/>
			<point x="174.127" y="450"/>
			<point x="207.865" y="399" type="curve"/>
			<point x="114.077" y="360"/>
			<point x="37.868" y="285"/>
			<point x="26.326" y="191" type="curve" smooth="yes"/>
			<point x="11.592" y="71"/>
			<point x="105.892" y="-8"/>
		</contour>
		<contour>
			<point x="240.855" y="65" type="curve" smooth="yes"/>
			<point x="167.855" y="65"/>
			<point x="107.994" y="115"/>
			<point x="118.185" y="198" type="curve"/>
			<point x="118.185" y="198" type="line"/>
			<point x="125.921" y="261"/>
			<point x="167.674" y="316"/>
			<point x="243.217" y="353" type="curve"/>
			<point x="429.064" y="140" type="line"/>
			<point x="378.539" y="95"/>
			<point x="315.855" y="65"/>
		</contour>
	</outline>
</glyph>
<glyph name="quotesingle" format="2">
	<advance width="216"/>
	<unicode hex="0027"/>
	<note>
		quotesingle
	</note>
	<outline>
		<contour>
			<point x="133.478" y="461" type="curve" smooth="yes"/>
			<point x="153.478" y="461"/>
			<point x="162.951" y="473"/>
			<point x="168.53" y="494" type="curve" smooth="yes"/>
			<point x="186.107" y="572" type="line"/>
			<point x="203.911" y="717" type="line"/>
			<point x="125.911" y="717" type="line"/>
			<point x="108.107" y="572" type="line"/>
			<point x="106.53" y="494" type="line"/>
			<point x="107.951" y="473"/>
			<point x="116.478" y="461"/>
		</contour>
	</outline>
</glyph>
<glyph name="parenleft" format="2">
	<advance width="267"/>
	<unicode hex="0028"/>
	<note>
		parenleft
	</note>
	<outline>
		<contour>
			<point x="132.825" y="-147" type="curve"/>
			<point x="174.772" y="-123" type="line" smooth="yes"/>
			<point x="183.386" y="-118"/>
			<point x="189.122" y="-112"/>
			<point x="190.227" y="-103" type="curve" smooth="yes"/>
			<point x="190.841" y="-98"/>
			<point x="190.455" y="-93"/>
			<point x="187.315" y="-86" type="curve" smooth="yes"/>
			<point x="133.417" y="37"/>
			<point x="111.993" y="172"/>
			<point x="129.551" y="315" type="curve" smooth="yes"/>
			<point x="147.109" y="458"/>
			<point x="199.808" y="594"/>
			<point x="285.665" y="715" type="curve" smooth="yes"/>
			<point x="289.402" y="721"/>
			<point x="292.138" y="727"/>
			<point x="292.752" y="732" type="curve" smooth="yes"/>
			<point x="293.857" y="741"/>
			<point x="289.594" y="747"/>
			<point x="282.085" y="751" type="curve"/>
			<point x="246.155" y="776" type="line"/>
			<point x="185.701" y="699"/>
			<point x="143.492" y="624"/>
			<point x="112.16" y="548" type="curve" smooth="yes"/>
			<point x="80.828" y="472"/>
			<point x="61.374" y="395"/>
			<point x="51.551" y="315" type="curve" smooth="yes"/>
			<point x="41.606" y="234"/>
			<point x="42.151" y="157"/>
			<point x="54.82" y="81" type="curve" smooth="yes"/>
			<point x="67.488" y="5"/>
			<point x="91.279" y="-70"/>
		</contour>
	</outline>
</glyph>
<glyph name="parenright" format="2">
	<advance width="266"/>
	<unicode hex="0029"/>
	<note>
		parenright
	</note>
	<outline>
		<contour>
			<point x="34.825" y="-147" type="line"/>
			<point x="95.279" y="-70"/>
			<point x="138.488" y="5"/>
			<point x="169.82" y="81" type="curve" smooth="yes"/>
			<point x="201.151" y="157"/>
			<point x="219.606" y="234"/>
			<point x="229.551" y="315" type="curve" smooth="yes"/>
			<point x="239.374" y="395"/>
			<point x="239.828" y="472"/>
			<point x="227.16" y="548" type="curve" smooth="yes"/>
			<point x="214.492" y="624"/>
			<point x="189.701" y="699"/>
			<point x="148.155" y="776" type="curve"/>
			<point x="106.085" y="751" type="line"/>
			<point x="97.594" y="747"/>
			<point x="91.857" y="741"/>
			<point x="90.752" y="732" type="curve" smooth="yes"/>
			<point x="90.138" y="727"/>
			<point x="91.402" y="721"/>
			<point x="93.665" y="715" type="curve" smooth="yes"/>
			<point x="149.808" y="594"/>
			<point x="169.109" y="458"/>
			<point x="151.551" y="315" type="curve" smooth="yes"/>
			<point x="133.993" y="172"/>
			<point x="79.417" y="37"/>
			<point x="-4.685" y="-86" type="curve" smooth="yes"/>
			<point x="-9.545" y="-93"/>
			<point x="-11.159" y="-98"/>
			<point x="-11.773" y="-103" type="curve" smooth="yes"/>
			<point x="-12.878" y="-112"/>
			<point x="-8.614" y="-118"/>
			<point x="-1.228" y="-123" type="curve" smooth="yes"/>
		</contour>
	</outline>
</glyph>
<glyph name="asterisk" format="2">
	<advance width="426"/>
	<unicode hex="002A"/>
	<note>
		asterisk
	</note>
	<outline>
		<contour>
			<point x="212.917" y="432" type="line"/>
			<point x="256.917" y="432" type="line"/>
			<point x="256.917" y="432" type="line"/>
			<point x="269.073" y="531" type="line" smooth="yes"/>
			<point x="270.669" y="544"/>
			<point x="269.142" y="556"/>
			<point x="265.493" y="567" type="curve"/>
			<point x="272.142" y="556"/>
			<point x="280.406" y="550"/>
			<point x="291.423" y="542" type="curve" smooth="yes"/>
			<point x="371.284" y="492" type="line"/>
			<point x="397.95" y="530" type="line"/>
			<point x="318.089" y="580" type="line" smooth="yes"/>
			<point x="307.071" y="588"/>
			<point x="297.44" y="591"/>
			<point x="285.563" y="592" type="curve"/>
			<point x="297.685" y="593"/>
			<point x="308.176" y="597"/>
			<point x="321.159" y="605" type="curve" smooth="yes"/>
			<point x="413.298" y="655" type="line"/>
			<point x="395.841" y="692" type="line"/>
			<point x="303.825" y="643" type="line" smooth="yes"/>
			<point x="290.842" y="635"/>
			<point x="281.983" y="628"/>
			<point x="272.878" y="619" type="curve"/>
			<point x="279.106" y="629"/>
			<point x="282.579" y="641"/>
			<point x="284.298" y="655" type="curve" smooth="yes"/>
			<point x="296.331" y="753" type="line"/>
			<point x="252.331" y="753" type="line"/>
			<point x="240.175" y="654" type="line" smooth="yes"/>
			<point x="238.579" y="641"/>
			<point x="240.106" y="629"/>
			<point x="243.632" y="617" type="curve"/>
			<point x="237.983" y="628"/>
			<point x="228.965" y="636"/>
			<point x="218.825" y="643" type="curve" smooth="yes"/>
			<point x="137.964" y="693" type="line"/>
			<point x="111.298" y="655" type="line"/>
			<point x="192.159" y="605" type="line" smooth="yes"/>
			<point x="203.176" y="597"/>
			<point x="213.685" y="593"/>
			<point x="226.563" y="592" type="curve"/>
			<point x="214.44" y="591"/>
			<point x="201.949" y="587"/>
			<point x="189.089" y="580" type="curve" smooth="yes"/>
			<point x="96.95" y="530" type="line"/>
			<point x="114.407" y="493" type="line"/>
			<point x="206.423" y="542" type="line" smooth="yes"/>
			<point x="218.283" y="549"/>
			<point x="227.142" y="556"/>
			<point x="235.247" y="565" type="curve"/>
			<point x="229.897" y="554"/>
			<point x="226.546" y="543"/>
			<point x="224.95" y="530" type="curve" smooth="yes"/>
		</contour>
	</outline>
</glyph>
<glyph name="plus" format="2">
	<advance width="583"/>
	<unicode hex="002B"/>
	<note>
		plus
	</note>
	<outline>
		<contour>
			<point x="295.458" y="583" type="line"/>
			<point x="269.304" y="370" type="line"/>
			<point x="66.304" y="370" type="line"/>
			<point x="57.955" y="302" type="line"/>
			<point x="260.955" y="302" type="line"/>
			<point x="234.556" y="87" type="line"/>
			<point x="307.556" y="87" type="line"/>
			<point x="333.955" y="302" type="line"/>
			<point x="536.955" y="302" type="line"/>
			<point x="545.304" y="370" type="line"/>
			<point x="342.304" y="370" type="line"/>
			<point x="368.458" y="583" type="line"/>
			<point x="295.458" y="583" type="line"/>
		</contour>
	</outline>
</glyph>
<glyph name="comma" format="2">
	<advance width="211"/>
	<unicode hex="002C"/>
	<note>
		comma
	</note>
	<outline>
		<contour>
			<point x="23.175" y="-136" type="line"/>
			<point x="85.946" y="-89"/>
			<point x="133.155" y="-14"/>
			<point x="140.645" y="47" type="curve" smooth="yes"/>
			<point x="145.679" y="88"/>
			<point x="127.363" y="118"/>
			<point x="87.363" y="118" type="curve" smooth="yes"/>
			<point x="54.363" y="118"/>
			<point x="25.293" y="93"/>
			<point x="21.487" y="62" type="curve" smooth="yes"/>
			<point x="17.067" y="26"/>
			<point x="38.874" y="0"/>
			<point x="71.874" y="0" type="curve" smooth="yes"/>
			<point x="73.874" y="0"/>
			<point x="76.874" y="0"/>
			<point x="78.874" y="0" type="curve"/>
			<point x="67.086" y="-39"/>
			<point x="31.542" y="-76"/>
			<point x="14.332" y="-94" type="curve" smooth="yes"/>
			<point x="8.718" y="-99"/>
			<point x="6.227" y="-103"/>
			<point x="5.736" y="-107" type="curve" smooth="yes"/>
			<point x="5.122" y="-112"/>
			<point x="6.508" y="-117"/>
			<point x="10.017" y="-121" type="curve" smooth="yes"/>
		</contour>
	</outline>
</glyph>
<glyph name="period" format="2">
	<advance width="215"/>
	<unicode hex="002E"/>
	<note>
		period
	</note>
	<outline>
		<contour>
			<point x="74.892" y="-8" type="curve" smooth="yes"/>
			<point x="109.892" y="-8"/>
			<point x="141.33" y="20"/>
			<point x="145.627" y="55" type="curve" smooth="yes"/>
			<point x="149.925" y="90"/>
			<point x="125.363" y="118"/>
			<point x="90.363" y="118" type="curve" smooth="yes"/>
			<point x="56.363" y="118"/>
			<point x="24.925" y="90"/>
			<point x="20.627" y="55" type="curve" smooth="yes"/>
			<point x="16.33" y="20"/>
			<point x="40.892" y="-8"/>
		</contour>
	</outline>
</glyph>
<glyph name="slash" format="2">
	<advance width="440"/>
	<unicode hex="002F"/>
	<note>
		slash
	</note>
	<outline>
		<contour>
			<point x="-9.651" y="-45" type="line"/>
			<point x="28.349" y="-45" type="line" smooth="yes"/>
			<point x="47.349" y="-45"/>
			<point x="69.699" y="-34"/>
			<point x="81.523" y="-11" type="curve" smooth="yes"/>
			<point x="471.366" y="737" type="line"/>
			<point x="434.366" y="737" type="line" smooth="yes"/>
			<point x="411.366" y="737"/>
			<point x="393.893" y="725"/>
			<point x="383.314" y="704" type="curve" smooth="yes"/>
		</contour>
	</outline>
</glyph>
<glyph name="zero" format="2">
	<advance width="576"/>
	<unicode hex="0030"/>
	<note>
		zero
	</note>
	<outline>
		<contour>
			<point x="559.831" y="358" type="curve"/>
			<point x="559.831" y="358" type="line"/>
			<point x="575.179" y="483"/>
			<point x="558.475" y="575"/>
			<point x="518.965" y="636" type="curve" smooth="yes"/>
			<point x="479.332" y="696"/>
			<point x="416.893" y="725"/>
			<point x="344.893" y="725" type="curve" smooth="yes"/>
			<point x="271.893" y="725"/>
			<point x="203.332" y="696"/>
			<point x="148.965" y="636" type="curve" smooth="yes"/>
			<point x="94.475" y="575"/>
			<point x="55.179" y="483"/>
			<point x="39.831" y="358" type="curve" smooth="yes"/>
			<point x="24.483" y="233"/>
			<point x="41.31" y="142"/>
			<point x="80.942" y="82" type="curve" smooth="yes"/>
			<point x="120.575" y="22"/>
			<point x="181.892" y="-8"/>
			<point x="254.892" y="-8" type="curve" smooth="yes"/>
			<point x="326.892" y="-8"/>
			<point x="396.575" y="22"/>
			<point x="450.942" y="82" type="curve" smooth="yes"/>
			<point x="505.31" y="142"/>
			<point x="544.483" y="233"/>
		</contour>
		<contour>
			<point x="467.831" y="358" type="curve"/>
			<point x="467.831" y="358" type="line"/>
			<point x="454.447" y="249"/>
			<point x="425.484" y="176"/>
			<point x="388.959" y="131" type="curve" smooth="yes"/>
			<point x="352.434" y="86"/>
			<point x="308.223" y="68"/>
			<point x="264.223" y="68" type="curve" smooth="yes"/>
			<point x="220.223" y="68"/>
			<point x="180.434" y="86"/>
			<point x="154.959" y="131" type="curve" smooth="yes"/>
			<point x="129.484" y="176"/>
			<point x="118.447" y="249"/>
			<point x="131.831" y="358" type="curve" smooth="yes"/>
			<point x="145.215" y="467"/>
			<point x="174.301" y="541"/>
			<point x="210.826" y="586" type="curve" smooth="yes"/>
			<point x="247.351" y="631"/>
			<point x="291.561" y="649"/>
			<point x="335.561" y="649" type="curve" smooth="yes"/>
			<point x="379.561" y="649"/>
			<point x="419.351" y="631"/>
			<point x="444.826" y="586" type="curve" smooth="yes"/>
			<point x="470.301" y="541"/>
			<point x="481.215" y="467"/>
		</contour>
	</outline>
</glyph>
<glyph name="one" format="2">
	<advance width="601"/>
	<unicode hex="0031"/>
	<note>
		one
	</note>
	<outline>
		<contour>
			<point x="97.874" y="0" type="line"/>
			<point x="481.874" y="0" type="line"/>
			<point x="486.908" y="41" type="line" smooth="yes"/>
			<point x="488.259" y="52"/>
			<point x="482.996" y="58"/>
			<point x="472.118" y="59" type="curve" smooth="yes"/>
			<point x="349.223" y="68" type="line"/>
			<point x="429.033" y="718" type="line"/>
			<point x="356.033" y="718" type="line"/>
			<point x="120.441" y="534" type="line"/>
			<point x="143.652" y="495" type="line" smooth="yes"/>
			<point x="147.039" y="490"/>
			<point x="154.302" y="484"/>
			<point x="165.302" y="484" type="curve" smooth="yes"/>
			<point x="170.302" y="484"/>
			<point x="177.547" y="486"/>
			<point x="185.284" y="492" type="curve" smooth="yes"/>
			<point x="326.668" y="601" type="line"/>
			<point x="323.826" y="586"/>
			<point x="322.107" y="572"/>
			<point x="320.265" y="557" type="curve" smooth="yes"/>
			<point x="260.223" y="68" type="line"/>
			<point x="122.118" y="59" type="line" smooth="yes"/>
			<point x="110.996" y="58"/>
			<point x="104.259" y="52"/>
			<point x="102.908" y="41" type="curve" smooth="yes"/>
		</contour>
	</outline>
</glyph>
<glyph name="two" format="2">
	<advance width="600"/>
	<unicode hex="0032"/>
	<note>
		two
	</note>
	<outline>
		<contour>
			<point x="25.874" y="0" type="line"/>
			<point x="503.874" y="0" type="line"/>
			<point x="514.311" y="85" type="line"/>
			<point x="243.311" y="85" type="line" smooth="yes"/>
			<point x="218.311" y="85"/>
			<point x="189.697" y="80"/>
			<point x="161.837" y="73" type="curve"/>
			<point x="373.535" y="266" type="line" smooth="yes"/>
			<point x="461.358" y="346"/>
			<point x="541.444" y="420"/>
			<point x="554.336" y="525" type="curve" smooth="yes"/>
			<point x="569.561" y="649"/>
			<point x="485.893" y="725"/>
			<point x="363.893" y="725" type="curve" smooth="yes"/>
			<point x="238.893" y="725"/>
			<point x="138.807" y="651"/>
			<point x="105.09" y="523" type="curve"/>
			<point x="137.354" y="517"/>
			<point x="151.985" y="514"/>
			<point x="161.985" y="514" type="curve" smooth="yes"/>
			<point x="178.985" y="514"/>
			<point x="190.968" y="522"/>
			<point x="198.301" y="541" type="curve" smooth="yes"/>
			<point x="219.159" y="605"/>
			<point x="279.439" y="648"/>
			<point x="349.439" y="648" type="curve" smooth="yes"/>
			<point x="424.439" y="648"/>
			<point x="473.159" y="605"/>
			<point x="463.09" y="523" type="curve" smooth="yes"/>
			<point x="452.654" y="438"/>
			<point x="390.55" y="372"/>
			<point x="308.587" y="299" type="curve" smooth="yes"/>
			<point x="50.346" y="69" type="line" smooth="yes"/>
			<point x="37.996" y="58"/>
			<point x="31.154" y="43"/>
			<point x="29.68" y="31" type="curve" smooth="yes"/>
		</contour>
		<contour>
			<point x="448.346" y="69" type="line"/>
			<point x="513.942" y="82" type="line"/>
			<point x="523.52" y="160" type="line"/>
			<point x="490.52" y="160" type="line" smooth="yes"/>
			<point x="476.52" y="160"/>
			<point x="469.66" y="153"/>
			<point x="467.555" y="144" type="curve" smooth="yes"/>
			<point x="448.346" y="69" type="line"/>
		</contour>
	</outline>
</glyph>
<glyph name="three" format="2">
	<advance width="604"/>
	<unicode hex="0033"/>
	<note>
		three
	</note>
	<outline>
		<contour>
			<point x="264.892" y="-8" type="curve" smooth="yes"/>
			<point x="397.936" y="-8"/>
			<point x="513.089" y="75.05"/>
			<point x="529.168" y="206" type="curve" smooth="yes"/>
			<point x="539.809" y="292.667"/>
			<point x="500.386" y="351.667"/>
			<point x="410.164" y="377" type="curve"/>
			<point x="491.084" y="399.336"/>
			<point x="543.562" y="453.54"/>
			<point x="554.301" y="541" type="curve" smooth="yes"/>
			<point x="568.23" y="654.445"/>
			<point x="488.711" y="725"/>
			<point x="367.893" y="725" type="curve" smooth="yes"/>
			<point x="243.312" y="725"/>
			<point x="142.829" y="650.009"/>
			<point x="109.09" y="523" type="curve"/>
			<point x="136.477" y="518"/>
			<point x="156.985" y="514"/>
			<point x="165.985" y="514" type="curve" smooth="yes"/>
			<point x="183.318" y="514"/>
			<point x="194.676" y="522.333"/>
			<point x="202.301" y="541" type="curve" smooth="yes"/>
			<point x="226.73" y="604.674"/>
			<point x="281.439" y="648"/>
			<point x="353.439" y="648" type="curve" smooth="yes"/>
			<point x="428.439" y="648"/>
			<point x="475.282" y="606"/>
			<point x="465.459" y="526" type="curve" smooth="yes"/>
			<point x="455.513" y="445"/>
			<point x="393.988" y="400"/>
			<point x="280.988" y="400" type="curve"/>
			<point x="273.007" y="335" type="line"/>
			<point x="407.007" y="335"/>
			<point x="450.667" y="291.507"/>
			<point x="439.799" y="203" type="curve" smooth="yes"/>
			<point x="431.296" y="133.742"/>
			<point x="365.017" y="68"/>
			<point x="273.223" y="68" type="curve" smooth="yes"/>
			<point x="192.223" y="68"/>
			<point x="165.275" y="101"/>
			<point x="134.221" y="182" type="curve" smooth="yes"/>
			<point x="130.361" y="194"/>
			<point x="119.764" y="200"/>
			<point x="106.431" y="200" type="curve" smooth="yes"/>
			<point x="96.431" y="200"/>
			<point x="89.063" y="197"/>
			<point x="44.853" y="179" type="curve"/>
			<point x="67.996" y="64.547"/>
			<point x="120.074" y="-8"/>
		</contour>
	</outline>
</glyph>
<glyph name="four" format="2">
	<advance width="599"/>
	<unicode hex="0034"/>
	<note>
		four
	</note>
	<outline>
		<contour>
			<point x="345.874" y="0" type="line"/>
			<point x="424.874" y="0" type="line"/>
			<point x="448.08" y="189" type="line"/>
			<point x="537.08" y="189" type="line" smooth="yes"/>
			<point x="550.08" y="189"/>
			<point x="557.063" y="197"/>
			<point x="558.413" y="208" type="curve" smooth="yes"/>
			<point x="564.675" y="259" type="line"/>
			<point x="456.675" y="259" type="line"/>
			<point x="512.911" y="717" type="line"/>
			<point x="512.911" y="717" type="line"/>
			<point x="429.911" y="717" type="line"/>
			<point x="24.061" y="254" type="line"/>
			<point x="27.536" y="209" type="line" smooth="yes"/>
			<point x="29.063" y="197"/>
			<point x="39.08" y="189"/>
			<point x="52.08" y="189" type="curve" smooth="yes"/>
			<point x="369.08" y="189" type="line"/>
		</contour>
		<contour>
			<point x="121.675" y="259" type="line"/>
			<point x="425.141" y="613" type="line"/>
			<point x="419.563" y="592"/>
			<point x="415.984" y="571"/>
			<point x="413.897" y="554" type="curve" smooth="yes"/>
			<point x="377.675" y="259" type="line"/>
		</contour>
	</outline>
</glyph>
<glyph name="five" format="2">
	<advance width="590"/>
	<unicode hex="0035"/>
	<note>
		five
	</note>
	<outline>
		<contour>
			<point x="554.911" y="717" type="line"/>
			<point x="215.911" y="717" type="line"/>
			<point x="116.778" y="382" type="line"/>
			<point x="170.69" y="365" type="line"/>
			<point x="213.287" y="378"/>
			<point x="253.023" y="384"/>
			<point x="289.023" y="384" type="curve" smooth="yes"/>
			<point x="392.023" y="384"/>
			<point x="439.27" y="329"/>
			<point x="428.097" y="238" type="curve" smooth="yes"/>
			<point x="415.573" y="136"/>
			<point x="344.346" y="69"/>
			<point x="244.346" y="69" type="curve" smooth="yes"/>
			<point x="195.346" y="69"/>
			<point x="120.485" y="119"/>
			<point x="97.485" y="119" type="curve" smooth="yes"/>
			<point x="87.485" y="119"/>
			<point x="78.994" y="115"/>
			<point x="71.889" y="106" type="curve" smooth="yes"/>
			<point x="40.223" y="68" type="line"/>
			<point x="81.189" y="27"/>
			<point x="152.892" y="-8"/>
			<point x="229.892" y="-8" type="curve" smooth="yes"/>
			<point x="376.892" y="-8"/>
			<point x="500.048" y="91"/>
			<point x="518.588" y="242" type="curve" smooth="yes"/>
			<point x="534.304" y="370"/>
			<point x="461.109" y="458"/>
			<point x="316.109" y="458" type="curve" smooth="yes"/>
			<point x="285.109" y="458"/>
			<point x="249.618" y="454"/>
			<point x="211.636" y="446" type="curve"/>
			<point x="267.72" y="634" type="line"/>
			<point x="492.72" y="634" type="line" smooth="yes"/>
			<point x="529.72" y="634"/>
			<point x="547.052" y="653"/>
			<point x="550.122" y="678" type="curve" smooth="yes"/>
			<point x="554.911" y="717" type="line"/>
		</contour>
	</outline>
</glyph>
<glyph name="six" format="2">
	<advance width="567"/>
	<unicode hex="0036"/>
	<note>
		six
	</note>
	<outline>
		<contour>
			<point x="248.892" y="-8" type="curve" smooth="yes"/>
			<point x="391.892" y="-8"/>
			<point x="507.048" y="91"/>
			<point x="523.623" y="226" type="curve" smooth="yes"/>
			<point x="539.831" y="358"/>
			<point x="456.777" y="439"/>
			<point x="337.777" y="439" type="curve" smooth="yes"/>
			<point x="289.777" y="439"/>
			<point x="246.18" y="426"/>
			<point x="210.234" y="402" type="curve"/>
			<point x="231.058" y="425"/>
			<point x="253.004" y="449"/>
			<point x="273.828" y="472" type="curve" smooth="yes"/>
			<point x="496.911" y="717" type="line"/>
			<point x="417.911" y="717" type="line" smooth="yes"/>
			<point x="396.911" y="717"/>
			<point x="377.683" y="707"/>
			<point x="367.209" y="695" type="curve" smooth="yes"/>
			<point x="156.25" y="451" type="line" smooth="yes"/>
			<point x="85.304" y="370"/>
			<point x="49.709" y="300"/>
			<point x="41.974" y="237" type="curve" smooth="yes"/>
			<point x="23.925" y="90"/>
			<point x="104.892" y="-8"/>
		</contour>
		<contour>
			<point x="256.978" y="66" type="curve" smooth="yes"/>
			<point x="162.978" y="66"/>
			<point x="114.836" y="130"/>
			<point x="126.01" y="221" type="curve" smooth="yes"/>
			<point x="136.323" y="305"/>
			<point x="208.427" y="371"/>
			<point x="300.427" y="371" type="curve" smooth="yes"/>
			<point x="391.427" y="371"/>
			<point x="445.183" y="312"/>
			<point x="433.764" y="219" type="curve" smooth="yes"/>
			<point x="422.713" y="129"/>
			<point x="349.978" y="66"/>
		</contour>
	</outline>
</glyph>
<glyph name="seven" format="2">
	<advance width="602"/>
	<unicode hex="0037"/>
	<note>
		seven
	</note>
	<outline>
		<contour>
			<point x="99.874" y="0" type="line"/>
			<point x="162.874" y="0" type="line" smooth="yes"/>
			<point x="189.874" y="0"/>
			<point x="205.716" y="15"/>
			<point x="215.803" y="32" type="curve" smooth="yes"/>
			<point x="586.228" y="630" type="line" smooth="yes"/>
			<point x="592.579" y="641"/>
			<point x="600.175" y="654"/>
			<point x="603" y="677" type="curve" smooth="yes"/>
			<point x="607.911" y="717" type="line"/>
			<point x="120.911" y="717" type="line"/>
			<point x="113.421" y="656" type="line" smooth="yes"/>
			<point x="112.07" y="645"/>
			<point x="121.72" y="634"/>
			<point x="132.72" y="634" type="curve" smooth="yes"/>
			<point x="506.72" y="634" type="line"/>
			<point x="494.246" y="622"/>
			<point x="484.527" y="608"/>
			<point x="473.44" y="591" type="curve" smooth="yes"/>
		</contour>
		<contour>
			<point x="107.65" y="609" type="line"/>
			<point x="144.65" y="609" type="line"/>
			<point x="152.508" y="673" type="line"/>
			<point x="115.508" y="673" type="line"/>
		</contour>
		<contour>
			<point x="195.789" y="659" type="line"/>
			<point x="110.72" y="634" type="line"/>
			<point x="99.546" y="543" type="line"/>
			<point x="145.546" y="543" type="line" smooth="yes"/>
			<point x="156.546" y="543"/>
			<point x="165.037" y="547"/>
			<point x="168.511" y="559" type="curve" smooth="yes"/>
		</contour>
	</outline>
</glyph>
<glyph name="eight" format="2">
	<advance width="582"/>
	<unicode hex="0038"/>
	<note>
		eight
	</note>
	<outline>
		<contour>
			<point x="259.892" y="-8" type="curve"/>
			<point x="399.892" y="-8"/>
			<point x="510.469" y="70"/>
			<point x="525.94" y="196" type="curve" smooth="yes"/>
			<point x="537.236" y="288"/>
			<point x="494.726" y="349"/>
			<point x="408.796" y="374" type="curve"/>
			<point x="487.234" y="402"/>
			<point x="533.232" y="459"/>
			<point x="542.687" y="536" type="curve" smooth="yes"/>
			<point x="556.193" y="646"/>
			<point x="474.893" y="725"/>
			<point x="349.893" y="725" type="curve" smooth="yes"/>
			<point x="223.893" y="725"/>
			<point x="123.193" y="646"/>
			<point x="109.687" y="536" type="curve" smooth="yes"/>
			<point x="100.232" y="459"/>
			<point x="132.234" y="402"/>
			<point x="203.796" y="374" type="curve"/>
			<point x="111.726" y="349"/>
			<point x="54.236" y="288"/>
			<point x="42.94" y="196" type="curve" smooth="yes"/>
			<point x="27.469" y="70"/>
			<point x="118.892" y="-8"/>
		</contour>
		<contour>
			<point x="268.61" y="63" type="curve"/>
			<point x="177.61" y="63"/>
			<point x="125.117" y="116"/>
			<point x="135.185" y="198" type="curve" smooth="yes"/>
			<point x="146.604" y="291"/>
			<point x="219.13" y="336"/>
			<point x="302.13" y="336" type="curve" smooth="yes"/>
			<point x="386.13" y="336"/>
			<point x="445.604" y="291"/>
			<point x="434.185" y="198" type="curve" smooth="yes"/>
			<point x="424.24" y="117"/>
			<point x="360.61" y="63"/>
		</contour>
		<contour>
			<point x="310.847" y="407" type="curve"/>
			<point x="221.847" y="407"/>
			<point x="187.723" y="463"/>
			<point x="196.564" y="535" type="curve" smooth="yes"/>
			<point x="205.282" y="606"/>
			<point x="260.421" y="656"/>
			<point x="341.421" y="656" type="curve" smooth="yes"/>
			<point x="423.421" y="656"/>
			<point x="464.159" y="605"/>
			<point x="455.564" y="535" type="curve" smooth="yes"/>
			<point x="446.846" y="464"/>
			<point x="398.847" y="407"/>
		</contour>
	</outline>
</glyph>
<glyph name="nine" format="2">
	<advance width="549"/>
	<unicode hex="0039"/>
	<note>
		nine
	</note>
	<outline>
		<contour>
			<point x="87.874" y="0" type="line"/>
			<point x="169.874" y="0" type="line" smooth="yes"/>
			<point x="190.874" y="0"/>
			<point x="208.979" y="9"/>
			<point x="218.453" y="21" type="curve" smooth="yes"/>
			<point x="424.394" y="273" type="line" smooth="yes"/>
			<point x="483.48" y="347"/>
			<point x="524.216" y="410"/>
			<point x="534.407" y="493" type="curve" smooth="yes"/>
			<point x="551.351" y="631"/>
			<point x="473.893" y="725"/>
			<point x="334.893" y="725" type="curve" smooth="yes"/>
			<point x="198.893" y="725"/>
			<point x="85.86" y="627"/>
			<point x="70.266" y="500" type="curve" smooth="yes"/>
			<point x="54.673" y="373"/>
			<point x="134.973" y="294"/>
			<point x="245.973" y="294" type="curve" smooth="yes"/>
			<point x="296.973" y="294"/>
			<point x="345.937" y="310"/>
			<point x="386.498" y="339" type="curve"/>
			<point x="372.411" y="322"/>
			<point x="358.323" y="305"/>
			<point x="340.99" y="286" type="curve" smooth="yes"/>
		</contour>
		<contour>
			<point x="283.445" y="363" type="curve" smooth="yes"/>
			<point x="197.445" y="363"/>
			<point x="148.83" y="415"/>
			<point x="160.003" y="506" type="curve" smooth="yes"/>
			<point x="170.44" y="591"/>
			<point x="236.684" y="650"/>
			<point x="324.684" y="650" type="curve" smooth="yes"/>
			<point x="408.684" y="650"/>
			<point x="461.685" y="593"/>
			<point x="450.758" y="504" type="curve" smooth="yes"/>
			<point x="441.058" y="425"/>
			<point x="374.445" y="363"/>
		</contour>
	</outline>
</glyph>
<glyph name="colon" format="2">
	<advance width="215"/>
	<unicode hex="003A"/>
	<note>
		colon
	</note>
	<outline>
		<contour>
			<point x="20.627" y="55" type="curve"/>
			<point x="20.627" y="55" type="line"/>
			<point x="16.33" y="20"/>
			<point x="40.892" y="-8"/>
			<point x="74.892" y="-8" type="curve" smooth="yes"/>
			<point x="109.892" y="-8"/>
			<point x="141.33" y="20"/>
			<point x="145.627" y="55" type="curve" smooth="yes"/>
			<point x="149.925" y="90"/>
			<point x="125.363" y="118"/>
			<point x="90.363" y="118" type="curve" smooth="yes"/>
			<point x="56.363" y="118"/>
			<point x="24.925" y="90"/>
		</contour>
		<contour>
			<point x="66.671" y="430" type="curve"/>
			<point x="66.671" y="430" type="line"/>
			<point x="62.251" y="394"/>
			<point x="87.059" y="368"/>
			<point x="121.059" y="368" type="curve" smooth="yes"/>
			<point x="156.059" y="368"/>
			<point x="187.251" y="394"/>
			<point x="191.671" y="430" type="curve" smooth="yes"/>
			<point x="195.969" y="465"/>
			<point x="171.407" y="493"/>
			<point x="136.407" y="493" type="curve" smooth="yes"/>
			<point x="102.407" y="493"/>
			<point x="70.969" y="465"/>
		</contour>
	</outline>
</glyph>
<glyph name="semicolon" format="2">
	<advance width="215"/>
	<unicode hex="003B"/>
	<note>
		semicolon
	</note>
	<outline>
		<contour>
			<point x="121.059" y="368" type="curve" smooth="yes"/>
			<point x="156.059" y="368"/>
			<point x="187.251" y="394"/>
			<point x="191.671" y="430" type="curve" smooth="yes"/>
			<point x="195.969" y="465"/>
			<point x="171.407" y="493"/>
			<point x="136.407" y="493" type="curve" smooth="yes"/>
			<point x="102.407" y="493"/>
			<point x="70.969" y="465"/>
			<point x="66.671" y="430" type="curve" smooth="yes"/>
			<point x="62.251" y="394"/>
			<point x="87.059" y="368"/>
		</contour>
		<contour>
			<point x="24.175" y="-136" type="line"/>
			<point x="86.946" y="-89"/>
			<point x="134.155" y="-14"/>
			<point x="141.645" y="47" type="curve" smooth="yes"/>
			<point x="146.679" y="88"/>
			<point x="128.363" y="118"/>
			<point x="88.363" y="118" type="curve" smooth="yes"/>
			<point x="55.363" y="118"/>
			<point x="26.293" y="93"/>
			<point x="22.487" y="62" type="curve" smooth="yes"/>
			<point x="18.067" y="26"/>
			<point x="39.874" y="0"/>
			<point x="72.874" y="0" type="curve" smooth="yes"/>
			<point x="74.874" y="0"/>
			<point x="77.874" y="0"/>
			<point x="79.874" y="0" type="curve"/>
			<point x="68.086" y="-39"/>
			<point x="32.542" y="-76"/>
			<point x="15.332" y="-94" type="curve" smooth="yes"/>
			<point x="9.718" y="-99"/>
			<point x="7.227" y="-103"/>
			<point x="6.736" y="-107" type="curve" smooth="yes"/>
			<point x="6.122" y="-112"/>
			<point x="7.508" y="-117"/>
			<point x="11.017" y="-121" type="curve" smooth="yes"/>
		</contour>
	</outline>
</glyph>
<glyph name="less" format="2">
	<advance width="476"/>
	<unicode hex="003C"/>
	<note>
		less
	</note>
	<outline>
		<contour>
			<point x="62.92" y="318" type="line"/>
			<point x="425.24" y="117" type="line"/>
			<point x="433.098" y="181" type="line" smooth="yes"/>
			<point x="434.449" y="192"/>
			<point x="430.431" y="200"/>
			<point x="418.291" y="207" type="curve" smooth="yes"/>
			<point x="208.288" y="321" type="line" smooth="yes"/>
			<point x="196.147" y="328"/>
			<point x="180.761" y="333"/>
			<point x="165.13" y="336" type="curve"/>
			<point x="181.621" y="340"/>
			<point x="198.235" y="345"/>
			<point x="212.094" y="352" type="curve" smooth="yes"/>
			<point x="450.092" y="466" type="line" smooth="yes"/>
			<point x="463.951" y="473"/>
			<point x="469.933" y="481"/>
			<point x="471.284" y="492" type="curve" smooth="yes"/>
			<point x="479.142" y="556" type="line"/>
			<point x="67.463" y="355" type="line"/>
			<point x="62.92" y="318" type="line"/>
		</contour>
	</outline>
</glyph>
<glyph name="equal" format="2">
	<advance width="566"/>
	<unicode hex="003D"/>
	<note>
		equal
	</note>
	<outline>
		<contour>
			<point x="63.887" y="220" type="line"/>
			<point x="493.887" y="220" type="line"/>
			<point x="502.113" y="287" type="line"/>
			<point x="72.113" y="287" type="line"/>
			<point x="63.887" y="220" type="line"/>
		</contour>
		<contour>
			<point x="84.392" y="387" type="line"/>
			<point x="514.392" y="387" type="line"/>
			<point x="522.741" y="455" type="line"/>
			<point x="92.741" y="455" type="line"/>
			<point x="84.392" y="387" type="line"/>
		</contour>
	</outline>
</glyph>
<glyph name="greater" format="2">
	<advance width="476"/>
	<unicode hex="003E"/>
	<note>
		greater
	</note>
	<outline>
		<contour>
			<point x="454.463" y="355" type="line"/>
			<point x="92.142" y="556" type="line"/>
			<point x="84.284" y="492" type="line" smooth="yes"/>
			<point x="82.933" y="481"/>
			<point x="86.951" y="473"/>
			<point x="99.092" y="466" type="curve" smooth="yes"/>
			<point x="309.094" y="352" type="line" smooth="yes"/>
			<point x="321.235" y="345"/>
			<point x="336.621" y="340"/>
			<point x="352.253" y="337" type="curve"/>
			<point x="335.761" y="333"/>
			<point x="319.147" y="328"/>
			<point x="305.288" y="321" type="curve" smooth="yes"/>
			<point x="67.291" y="207" type="line" smooth="yes"/>
			<point x="53.431" y="200"/>
			<point x="47.449" y="192"/>
			<point x="46.098" y="181" type="curve" smooth="yes"/>
			<point x="38.24" y="117" type="line"/>
			<point x="449.92" y="318" type="line"/>
			<point x="454.463" y="355" type="line"/>
		</contour>
	</outline>
</glyph>
<glyph name="question" format="2">
	<advance width="434"/>
	<unicode hex="003F"/>
	<note>
		question
	</note>
	<outline>
		<contour>
			<point x="164.57" y="250" type="line"/>
			<point x="225.57" y="250" type="line"/>
			<point x="244.025" y="327" type="line" smooth="yes"/>
			<point x="250.708" y="357"/>
			<point x="301.392" y="387"/>
			<point x="338.584" y="413" type="curve" smooth="yes"/>
			<point x="386.636" y="446"/>
			<point x="425.284" y="492"/>
			<point x="433.879" y="562" type="curve" smooth="yes"/>
			<point x="446.157" y="662"/>
			<point x="374.893" y="725"/>
			<point x="269.893" y="725" type="curve" smooth="yes"/>
			<point x="194.893" y="725"/>
			<point x="131.964" y="693"/>
			<point x="82.052" y="653" type="curve"/>
			<point x="101.387" y="615" type="line" smooth="yes"/>
			<point x="105.527" y="608"/>
			<point x="111.036" y="604"/>
			<point x="119.036" y="604" type="curve" smooth="yes"/>
			<point x="134.036" y="604"/>
			<point x="205.93" y="652"/>
			<point x="253.93" y="652" type="curve" smooth="yes"/>
			<point x="312.93" y="652"/>
			<point x="357.387" y="615"/>
			<point x="350.388" y="558" type="curve" smooth="yes"/>
			<point x="343.635" y="503"/>
			<point x="301.723" y="463"/>
			<point x="258.285" y="435" type="curve" smooth="yes"/>
			<point x="218.093" y="409"/>
			<point x="174.287" y="378"/>
			<point x="169.498" y="339" type="curve" smooth="yes"/>
			<point x="169.253" y="337"/>
			<point x="169.007" y="335"/>
			<point x="168.761" y="333" type="curve" smooth="yes"/>
		</contour>
		<contour>
			<point x="161.892" y="-8" type="curve" smooth="yes"/>
			<point x="196.892" y="-8"/>
			<point x="228.33" y="20"/>
			<point x="232.627" y="55" type="curve" smooth="yes"/>
			<point x="236.925" y="90"/>
			<point x="212.363" y="118"/>
			<point x="177.363" y="118" type="curve" smooth="yes"/>
			<point x="143.363" y="118"/>
			<point x="111.925" y="90"/>
			<point x="107.627" y="55" type="curve" smooth="yes"/>
			<point x="103.33" y="20"/>
			<point x="127.892" y="-8"/>
		</contour>
	</outline>
</glyph>
<glyph name="at" format="2">
	<advance width="799"/>
	<unicode hex="0040"/>
	<note>
		at
	</note>
	<outline>
		<contour>
			<point x="392.14" y="-120" type="curve" smooth="yes"/>
			<point x="507.14" y="-120"/>
			<point x="600.701" y="-91"/>
			<point x="677.594" y="-43" type="curve"/>
			<point x="669.646" y="-10" type="line" smooth="yes"/>
			<point x="667.751" y="-1"/>
			<point x="662.242" y="3"/>
			<point x="655.242" y="3" type="curve" smooth="yes"/>
			<point x="651.242" y="3"/>
			<point x="646.997" y="1"/>
			<point x="641.629" y="-2" type="curve" smooth="yes"/>
			<point x="580.331" y="-37"/>
			<point x="500.384" y="-61"/>
			<point x="399.384" y="-61" type="curve" smooth="yes"/>
			<point x="303.384" y="-61"/>
			<point x="222.945" y="-32"/>
			<point x="168.189" y="27" type="curve" smooth="yes"/>
			<point x="113.434" y="86"/>
			<point x="85.87" y="171"/>
			<point x="99.745" y="284" type="curve" smooth="yes"/>
			<point x="111.655" y="381"/>
			<point x="157.969" y="465"/>
			<point x="223.336" y="525" type="curve" smooth="yes"/>
			<point x="288.703" y="585"/>
			<point x="373.123" y="621"/>
			<point x="462.123" y="621" type="curve" smooth="yes"/>
			<point x="543.123" y="621"/>
			<point x="612.299" y="598"/>
			<point x="658.651" y="552" type="curve" smooth="yes"/>
			<point x="705.003" y="506"/>
			<point x="727.408" y="436"/>
			<point x="716.112" y="344" type="curve" smooth="yes"/>
			<point x="703.097" y="238"/>
			<point x="642.292" y="150"/>
			<point x="571.292" y="150" type="curve" smooth="yes"/>
			<point x="535.292" y="150"/>
			<point x="516.134" y="165"/>
			<point x="521.659" y="210" type="curve" smooth="yes"/>
			<point x="523.623" y="226"/>
			<point x="529.202" y="247"/>
			<point x="539.272" y="272" type="curve" smooth="yes"/>
			<point x="607.373" y="452" type="line"/>
			<point x="579.969" y="465"/>
			<point x="547.951" y="473"/>
			<point x="503.951" y="473" type="curve" smooth="yes"/>
			<point x="347.951" y="473"/>
			<point x="234.34" y="354"/>
			<point x="219.115" y="230" type="curve" smooth="yes"/>
			<point x="209.537" y="152"/>
			<point x="242.416" y="94"/>
			<point x="320.416" y="94" type="curve" smooth="yes"/>
			<point x="372.416" y="94"/>
			<point x="419.994" y="115"/>
			<point x="465.747" y="170" type="curve"/>
			<point x="468.363" y="118"/>
			<point x="499.293" y="93"/>
			<point x="551.293" y="93" type="curve" smooth="yes"/>
			<point x="668.293" y="93"/>
			<point x="763.168" y="206"/>
			<point x="780.112" y="344" type="curve" smooth="yes"/>
			<point x="791.777" y="439"/>
			<point x="769.582" y="527"/>
			<point x="703.563" y="592" type="curve" smooth="yes"/>
			<point x="644.684" y="650"/>
			<point x="559.368" y="680"/>
			<point x="469.368" y="680" type="curve" smooth="yes"/>
			<point x="370.368" y="680"/>
			<point x="262.333" y="639"/>
			<point x="181.125" y="564" type="curve" smooth="yes"/>
			<point x="99.793" y="488"/>
			<point x="46.515" y="388"/>
			<point x="33.745" y="284" type="curve" smooth="yes"/>
			<point x="18.151" y="157"/>
			<point x="50.75" y="56"/>
			<point x="115.278" y="-13" type="curve" smooth="yes"/>
			<point x="178.806" y="-82"/>
			<point x="276.14" y="-120"/>
		</contour>
		<contour>
			<point x="345.66" y="153" type="curve"/>
			<point x="301.66" y="153"/>
			<point x="283.589" y="185"/>
			<point x="289.483" y="233" type="curve" smooth="yes"/>
			<point x="300.902" y="326"/>
			<point x="385.952" y="416"/>
			<point x="482.952" y="416" type="curve" smooth="yes"/>
			<point x="497.952" y="416"/>
			<point x="511.707" y="414"/>
			<point x="524.339" y="411" type="curve"/>
			<point x="468.289" y="264" type="line" smooth="yes"/>
			<point x="439.712" y="186"/>
			<point x="393.66" y="153"/>
		</contour>
	</outline>
</glyph>
<glyph name="A" format="2">
	<advance width="756"/>
	<unicode hex="0041"/>
	<anchor x="605.12" y="2" name="ogonek"/>
	<anchor x="346.874" y="0" name="bottom"/>
	<anchor x="434.911" y="717" name="top"/>
	<note>
		A
	</note>
	<outline>
		<contour>
			<point x="10.874" y="0" type="line"/>
			<point x="85.874" y="0" type="line" smooth="yes"/>
			<point x="102.874" y="0"/>
			<point x="116.225" y="11"/>
			<point x="121.698" y="23" type="curve"/>
			<point x="394.265" y="557" type="line" smooth="yes"/>
			<point x="403.598" y="576"/>
			<point x="412.299" y="598"/>
			<point x="423.614" y="625" type="curve"/>
			<point x="427.299" y="598"/>
			<point x="431.598" y="576"/>
			<point x="436.388" y="558" type="curve" smooth="yes"/>
			<point x="577.698" y="23" type="line"/>
			<point x="581.102" y="10"/>
			<point x="590.874" y="0"/>
			<point x="607.874" y="0" type="curve" smooth="yes"/>
			<point x="682.874" y="0" type="line"/>
			<point x="483.911" y="717" type="line"/>
			<point x="385.911" y="717" type="line"/>
		</contour>
		<contour>
			<point x="84.874" y="0" type="line"/>
			<point x="137.874" y="0" type="line"/>
			<point x="145.487" y="62" type="line"/>
			<point x="92.487" y="62" type="line"/>
		</contour>
		<contour>
			<point x="199.904" y="212" type="line"/>
			<point x="548.904" y="212" type="line"/>
			<point x="530.499" y="282" type="line"/>
			<point x="235.499" y="282" type="line"/>
		</contour>
		<contour>
			<point x="558.874" y="0" type="line"/>
			<point x="611.874" y="0" type="line"/>
			<point x="619.487" y="62" type="line"/>
			<point x="566.487" y="62" type="line"/>
		</contour>
		<contour>
			<point x="-18.126" y="0" type="line"/>
			<point x="83.874" y="0" type="line"/>
			<point x="82.451" y="78" type="line"/>
			<point x="5.487" y="62" type="line" smooth="yes"/>
			<point x="-5.759" y="60"/>
			<point x="-11.618" y="53"/>
			<point x="-13.092" y="41" type="curve" smooth="yes"/>
		</contour>
		<contour>
			<point x="88.874" y="0" type="line"/>
			<point x="190.874" y="0" type="line"/>
			<point x="195.908" y="41" type="line" smooth="yes"/>
			<point x="197.382" y="53"/>
			<point x="193.241" y="60"/>
			<point x="182.487" y="62" type="curve" smooth="yes"/>
			<point x="109.451" y="78" type="line"/>
		</contour>
		<contour>
			<point x="502.874" y="0" type="line"/>
			<point x="604.874" y="0" type="line"/>
			<point x="603.451" y="78" type="line"/>
			<point x="526.487" y="62" type="line" smooth="yes"/>
			<point x="515.241" y="60"/>
			<point x="509.382" y="53"/>
			<point x="507.908" y="41" type="curve" smooth="yes"/>
		</contour>
		<contour>
			<point x="609.874" y="0" type="line"/>
			<point x="711.874" y="0" type="line"/>
			<point x="716.908" y="41" type="line" smooth="yes"/>
			<point x="718.382" y="53"/>
			<point x="714.241" y="60"/>
			<point x="703.487" y="62" type="curve" smooth="yes"/>
			<point x="630.451" y="78" type="line"/>
		</contour>
	</outline>
</glyph>
<glyph name="B" format="2">
	<advance width="640"/>
	<unicode hex="0042"/>
	<anchor x="379.366" y="737" name="top"/>
	<anchor x="288.874" y="0" name="bottom"/>
	<note>
		B
	</note>
	<outline>
		<contour>
			<point x="73.874" y="0" type="line"/>
			<point x="327.874" y="0" type="line" smooth="yes"/>
			<point x="480.874" y="0"/>
			<point x="588.451" y="78"/>
			<point x="603.922" y="204" type="curve" smooth="yes"/>
			<point x="614.85" y="293"/>
			<point x="567.603" y="348"/>
			<point x="466.182" y="369" type="curve"/>
			<point x="556.251" y="394"/>
			<point x="610.864" y="456"/>
			<point x="619.95" y="530" type="curve" smooth="yes"/>
			<point x="635.175" y="654"/>
			<point x="555.911" y="717"/>
			<point x="390.911" y="717" type="curve" smooth="yes"/>
			<point x="161.911" y="717" type="line"/>
		</contour>
		<contour>
			<point x="180.329" y="77" type="line"/>
			<point x="211.025" y="327" type="line"/>
			<point x="366.025" y="327" type="line" smooth="yes"/>
			<point x="471.025" y="327"/>
			<point x="518.254" y="280"/>
			<point x="509.291" y="207" type="curve" smooth="yes"/>
			<point x="499.222" y="125"/>
			<point x="439.329" y="77"/>
			<point x="335.329" y="77" type="curve" smooth="yes"/>
		</contour>
		<contour>
			<point x="219.497" y="396" type="line"/>
			<point x="249.456" y="640" type="line"/>
			<point x="381.456" y="640" type="line" smooth="yes"/>
			<point x="488.456" y="640"/>
			<point x="532.79" y="602"/>
			<point x="522.477" y="518" type="curve" smooth="yes"/>
			<point x="513.022" y="441"/>
			<point x="449.497" y="396"/>
			<point x="347.497" y="396" type="curve" smooth="yes"/>
		</contour>
		<contour>
			<point x="1.874" y="0" type="line"/>
			<point x="103.874" y="0" type="line"/>
			<point x="102.451" y="78" type="line"/>
			<point x="25.487" y="62" type="line" smooth="yes"/>
			<point x="14.241" y="60"/>
			<point x="8.382" y="53"/>
			<point x="6.908" y="41" type="curve" smooth="yes"/>
		</contour>
		<contour>
			<point x="191.911" y="717" type="line"/>
			<point x="89.911" y="717" type="line"/>
			<point x="84.876" y="676" type="line" smooth="yes"/>
			<point x="83.403" y="664"/>
			<point x="87.544" y="657"/>
			<point x="98.298" y="655" type="curve" smooth="yes"/>
			<point x="171.333" y="639" type="line"/>
		</contour>
	</outline>
</glyph>
<glyph name="C" format="2">
	<advance width="669"/>
	<unicode hex="0043"/>
	<anchor x="426.911" y="717" name="top"/>
	<anchor x="344.874" y="0" name="bottom"/>
	<note>
		C
	</note>
	<outline>
		<contour>
			<point x="343.892" y="-8" type="curve" smooth="yes"/>
			<point x="462.892" y="-8"/>
			<point x="550.54" y="38"/>
			<point x="611.153" y="100" type="curve"/>
			<point x="578.31" y="142" type="line" smooth="yes"/>
			<point x="573.923" y="147"/>
			<point x="569.046" y="148"/>
			<point x="565.046" y="148" type="curve" smooth="yes"/>
			<point x="559.046" y="148"/>
			<point x="553.801" y="146"/>
			<point x="547.187" y="141" type="curve" smooth="yes"/>
			<point x="488.293" y="93"/>
			<point x="432.206" y="76"/>
			<point x="368.206" y="76" type="curve" smooth="yes"/>
			<point x="195.206" y="76"/>
			<point x="122.185" y="198"/>
			<point x="141.585" y="356" type="curve" smooth="yes"/>
			<point x="162.582" y="527"/>
			<point x="280.579" y="641"/>
			<point x="440.579" y="641" type="curve" smooth="yes"/>
			<point x="498.579" y="641"/>
			<point x="547.737" y="626"/>
			<point x="588.018" y="612" type="curve"/>
			<point x="656.422" y="599" type="line"/>
			<point x="665.385" y="672" type="line"/>
			<point x="591.946" y="701"/>
			<point x="524.893" y="725"/>
			<point x="443.893" y="725" type="curve" smooth="yes"/>
			<point x="340.893" y="725"/>
			<point x="247.227" y="687"/>
			<point x="175.246" y="622" type="curve" smooth="yes"/>
			<point x="104.388" y="558"/>
			<point x="56.092" y="466"/>
			<point x="42.585" y="356" type="curve" smooth="yes"/>
			<point x="30.921" y="261"/>
			<point x="47.625" y="169"/>
			<point x="99.153" y="100" type="curve" smooth="yes"/>
			<point x="152.435" y="29"/>
			<point x="236.892" y="-8"/>
		</contour>
		<contour>
			<point x="577.492" y="624" type="line"/>
			<point x="580.213" y="524" type="line" smooth="yes"/>
			<point x="580.74" y="512"/>
			<point x="588.249" y="508"/>
			<point x="599.249" y="508" type="curve" smooth="yes"/>
			<point x="645.249" y="508" type="line"/>
			<point x="656.422" y="599" type="line"/>
			<point x="577.492" y="624" type="line"/>
		</contour>
	</outline>
</glyph>
<glyph name="D" format="2">
	<advance width="756"/>
	<unicode hex="0044"/>
	<anchor x="164.708" y="357" name="center"/>
	<anchor x="329.874" y="0" name="bottom"/>
	<anchor x="429.911" y="717" name="top"/>
	<note>
		D
	</note>
	<outline>
		<contour>
			<point x="73.874" y="0" type="line"/>
			<point x="341.874" y="0" type="line" smooth="yes"/>
			<point x="446.874" y="0"/>
			<point x="540.294" y="36"/>
			<point x="610.03" y="99" type="curve" smooth="yes"/>
			<point x="679.765" y="162"/>
			<point x="725.693" y="251"/>
			<point x="738.831" y="358" type="curve" smooth="yes"/>
			<point x="752.092" y="466"/>
			<point x="728.02" y="555"/>
			<point x="673.755" y="618" type="curve" smooth="yes"/>
			<point x="619.49" y="681"/>
			<point x="534.911" y="717"/>
			<point x="429.911" y="717" type="curve" smooth="yes"/>
			<point x="161.911" y="717" type="line"/>
		</contour>
		<contour>
			<point x="181.574" y="79" type="line"/>
			<point x="250.211" y="638" type="line"/>
			<point x="420.211" y="638" type="line" smooth="yes"/>
			<point x="578.211" y="638"/>
			<point x="660.95" y="530"/>
			<point x="639.831" y="358" type="curve" smooth="yes"/>
			<point x="618.712" y="186"/>
			<point x="509.574" y="79"/>
			<point x="351.574" y="79" type="curve" smooth="yes"/>
		</contour>
		<contour>
			<point x="1.874" y="0" type="line"/>
			<point x="103.874" y="0" type="line"/>
			<point x="102.451" y="78" type="line"/>
			<point x="25.487" y="62" type="line" smooth="yes"/>
			<point x="14.241" y="60"/>
			<point x="8.382" y="53"/>
			<point x="6.908" y="41" type="curve" smooth="yes"/>
		</contour>
		<contour>
			<point x="191.911" y="717" type="line"/>
			<point x="89.911" y="717" type="line"/>
			<point x="84.876" y="676" type="line" smooth="yes"/>
			<point x="83.403" y="664"/>
			<point x="87.544" y="657"/>
			<point x="98.298" y="655" type="curve" smooth="yes"/>
			<point x="171.333" y="639" type="line"/>
		</contour>
	</outline>
</glyph>
<glyph name="E" format="2">
	<advance width="592"/>
	<unicode hex="0045"/>
	<anchor x="364.242" y="3" name="ogonek"/>
	<anchor x="291.874" y="0" name="bottom"/>
	<anchor x="357.788" y="716" name="top"/>
	<note>
		E
	</note>
	<outline>
		<contour>
			<point x="73.874" y="0" type="line"/>
			<point x="515.874" y="0" type="line"/>
			<point x="525.574" y="79" type="line"/>
			<point x="181.574" y="79" type="line"/>
			<point x="211.534" y="323" type="line"/>
			<point x="475.534" y="323" type="line"/>
			<point x="484.865" y="399" type="line"/>
			<point x="220.865" y="399" type="line"/>
			<point x="250.211" y="638" type="line"/>
			<point x="594.211" y="638" type="line"/>
			<point x="603.911" y="717" type="line"/>
			<point x="161.911" y="717" type="line"/>
		</contour>
		<contour>
			<point x="440.504" y="54" type="line"/>
			<point x="525.574" y="79" type="line"/>
			<point x="536.747" y="170" type="line"/>
			<point x="490.747" y="170" type="line" smooth="yes"/>
			<point x="479.747" y="170"/>
			<point x="471.256" y="166"/>
			<point x="467.783" y="154" type="curve" smooth="yes"/>
		</contour>
		<contour>
			<point x="515.28" y="663" type="line"/>
			<point x="518.002" y="563" type="line" smooth="yes"/>
			<point x="518.528" y="551"/>
			<point x="526.037" y="547"/>
			<point x="537.037" y="547" type="curve" smooth="yes"/>
			<point x="583.037" y="547" type="line"/>
			<point x="594.211" y="638" type="line"/>
			<point x="515.28" y="663" type="line"/>
		</contour>
		<contour>
			<point x="191.911" y="717" type="line"/>
			<point x="89.911" y="717" type="line"/>
			<point x="84.876" y="676" type="line" smooth="yes"/>
			<point x="83.403" y="664"/>
			<point x="87.544" y="657"/>
			<point x="98.298" y="655" type="curve" smooth="yes"/>
			<point x="171.333" y="639" type="line"/>
		</contour>
		<contour>
			<point x="1.874" y="0" type="line"/>
			<point x="103.874" y="0" type="line"/>
			<point x="102.451" y="78" type="line"/>
			<point x="25.487" y="62" type="line" smooth="yes"/>
			<point x="14.241" y="60"/>
			<point x="8.382" y="53"/>
			<point x="6.908" y="41" type="curve" smooth="yes"/>
		</contour>
	</outline>
</glyph>
<glyph name="F" format="2">
	<advance width="597"/>
	<unicode hex="0046"/>
	<note>
		F
	</note>
	<outline>
		<contour>
			<point x="73.874" y="0" type="line"/>
			<point x="171.874" y="0" type="line"/>
			<point x="209.692" y="308" type="line"/>
			<point x="503.692" y="308" type="line"/>
			<point x="513.392" y="387" type="line"/>
			<point x="219.392" y="387" type="line"/>
			<point x="250.211" y="638" type="line"/>
			<point x="594.211" y="638" type="line"/>
			<point x="603.911" y="717" type="line"/>
			<point x="161.911" y="717" type="line"/>
		</contour>
		<contour>
			<point x="515.28" y="663" type="line"/>
			<point x="518.002" y="563" type="line" smooth="yes"/>
			<point x="518.528" y="551"/>
			<point x="526.037" y="547"/>
			<point x="537.037" y="547" type="curve" smooth="yes"/>
			<point x="583.037" y="547" type="line"/>
			<point x="594.211" y="638" type="line"/>
			<point x="515.28" y="663" type="line"/>
		</contour>
		<contour>
			<point x="191.911" y="717" type="line"/>
			<point x="89.911" y="717" type="line"/>
			<point x="84.876" y="676" type="line" smooth="yes"/>
			<point x="83.403" y="664"/>
			<point x="87.544" y="657"/>
			<point x="98.298" y="655" type="curve" smooth="yes"/>
			<point x="171.333" y="639" type="line"/>
		</contour>
		<contour>
			<point x="1.874" y="0" type="line"/>
			<point x="103.874" y="0" type="line"/>
			<point x="102.451" y="78" type="line"/>
			<point x="25.487" y="62" type="line" smooth="yes"/>
			<point x="14.241" y="60"/>
			<point x="8.382" y="53"/>
			<point x="6.908" y="41" type="curve" smooth="yes"/>
		</contour>
		<contour>
			<point x="141.874" y="0" type="line"/>
			<point x="243.874" y="0" type="line"/>
			<point x="248.908" y="41" type="line" smooth="yes"/>
			<point x="250.382" y="53"/>
			<point x="246.241" y="60"/>
			<point x="235.487" y="62" type="curve" smooth="yes"/>
			<point x="162.451" y="78" type="line"/>
		</contour>
	</outline>
</glyph>
<glyph name="G" format="2">
	<advance width="732"/>
	<unicode hex="0047"/>
	<anchor x="437.911" y="717" name="top"/>
	<anchor x="362.874" y="0" name="bottom"/>
	<note>
		G
	</note>
	<outline>
		<contour>
			<point x="363.892" y="-8" type="curve" smooth="yes"/>
			<point x="466.892" y="-8"/>
			<point x="565.575" y="22"/>
			<point x="634.469" y="70" type="curve"/>
			<point x="668.112" y="344" type="line"/>
			<point x="448.112" y="344" type="line"/>
			<point x="441.359" y="289" type="line" smooth="yes"/>
			<point x="440.008" y="278"/>
			<point x="448.026" y="270"/>
			<point x="460.026" y="270" type="curve" smooth="yes"/>
			<point x="571.026" y="270" type="line"/>
			<point x="551.749" y="113" type="line"/>
			<point x="500.556" y="87"/>
			<point x="442.592" y="71"/>
			<point x="378.592" y="71" type="curve" smooth="yes"/>
			<point x="207.592" y="71"/>
			<point x="120.344" y="183"/>
			<point x="141.708" y="357" type="curve" smooth="yes"/>
			<point x="162.827" y="529"/>
			<point x="275.702" y="642"/>
			<point x="451.702" y="642" type="curve" smooth="yes"/>
			<point x="519.702" y="642"/>
			<point x="572.86" y="627"/>
			<point x="618.141" y="613" type="curve"/>
			<point x="693.422" y="599" type="line"/>
			<point x="702.385" y="672" type="line"/>
			<point x="620.946" y="701"/>
			<point x="544.893" y="725"/>
			<point x="454.893" y="725" type="curve" smooth="yes"/>
			<point x="342.893" y="725"/>
			<point x="246.35" y="688"/>
			<point x="175.492" y="624" type="curve" smooth="yes"/>
			<point x="103.511" y="559"/>
			<point x="56.092" y="466"/>
			<point x="43.077" y="360" type="curve" smooth="yes"/>
			<point x="29.816" y="252"/>
			<point x="55.274" y="158"/>
			<point x="110.293" y="93" type="curve" smooth="yes"/>
			<point x="168.821" y="24"/>
			<point x="257.892" y="-8"/>
		</contour>
		<contour>
			<point x="614.492" y="624" type="line"/>
			<point x="617.213" y="524" type="line" smooth="yes"/>
			<point x="617.74" y="512"/>
			<point x="625.249" y="508"/>
			<point x="636.249" y="508" type="curve" smooth="yes"/>
			<point x="682.249" y="508" type="line"/>
			<point x="693.422" y="599" type="line"/>
			<point x="614.492" y="624" type="line"/>
		</contour>
	</outline>
</glyph>
<glyph name="J" format="2">
	<advance width="424"/>
	<unicode hex="004A"/>
	<anchor x="337.911" y="717" name="top"/>
	<note>
		J
	</note>
	<outline>
		<contour>
			<point x="69.892" y="-8" type="curve" smooth="yes"/>
			<point x="216.892" y="-8"/>
			<point x="307.925" y="90"/>
			<point x="327.325" y="248" type="curve" smooth="yes"/>
			<point x="384.911" y="717" type="line"/>
			<point x="287.911" y="717" type="line"/>
			<point x="230.079" y="246" type="line" smooth="yes"/>
			<point x="215.713" y="129"/>
			<point x="163.837" y="73"/>
			<point x="66.837" y="73" type="curve" smooth="yes"/>
			<point x="53.837" y="73"/>
			<point x="42.96" y="74"/>
			<point x="31.451" y="78" type="curve" smooth="yes"/>
			<point x="24.697" y="80"/>
			<point x="13.942" y="82"/>
			<point x="5.942" y="82" type="curve" smooth="yes"/>
			<point x="-7.058" y="82"/>
			<point x="-12.794" y="76"/>
			<point x="-16.39" y="63" type="curve" smooth="yes"/>
			<point x="-29.389" y="6" type="line"/>
			<point x="3.506" y="-3"/>
			<point x="36.892" y="-8"/>
		</contour>
		<contour>
			<point x="317.911" y="717" type="line"/>
			<point x="215.911" y="717" type="line"/>
			<point x="210.876" y="676" type="line" smooth="yes"/>
			<point x="209.403" y="664"/>
			<point x="213.544" y="657"/>
			<point x="224.298" y="655" type="curve" smooth="yes"/>
			<point x="297.333" y="639" type="line"/>
		</contour>
		<contour>
			<point x="457.911" y="717" type="line"/>
			<point x="355.911" y="717" type="line"/>
			<point x="357.333" y="639" type="line"/>
			<point x="434.298" y="655" type="line" smooth="yes"/>
			<point x="445.544" y="657"/>
			<point x="451.403" y="664"/>
			<point x="452.876" y="676" type="curve" smooth="yes"/>
		</contour>
	</outline>
</glyph>
<glyph name="K" format="2">
	<advance width="708"/>
	<unicode hex="004B"/>
	<anchor x="420.911" y="717" name="top"/>
	<anchor x="332.874" y="0" name="bottom"/>
	<note>
		K
	</note>
	<outline>
		<contour>
			<point x="73.874" y="0" type="line"/>
			<point x="170.874" y="0" type="line"/>
			<point x="211.147" y="328" type="line"/>
			<point x="255.147" y="328" type="line" smooth="yes"/>
			<point x="287.147" y="328"/>
			<point x="292.534" y="323"/>
			<point x="308.323" y="305" type="curve"/>
			<point x="520.453" y="21" type="line" smooth="yes"/>
			<point x="529.856" y="8"/>
			<point x="539.874" y="0"/>
			<point x="561.874" y="0" type="curve" smooth="yes"/>
			<point x="645.874" y="0" type="line"/>
			<point x="402.621" y="340" type="line" smooth="yes"/>
			<point x="389.708" y="357"/>
			<point x="379.182" y="369"/>
			<point x="361.041" y="376" type="curve"/>
			<point x="374.901" y="383"/>
			<point x="389.128" y="393"/>
			<point x="403.97" y="408" type="curve" smooth="yes"/>
			<point x="714.911" y="717" type="line"/>
			<point x="632.911" y="717" type="line" smooth="yes"/>
			<point x="611.911" y="717"/>
			<point x="598.051" y="710"/>
			<point x="582.087" y="694" type="curve" smooth="yes"/>
			<point x="310.935" y="424" type="line" smooth="yes"/>
			<point x="294.97" y="408"/>
			<point x="281.356" y="403"/>
			<point x="256.356" y="403" type="curve" smooth="yes"/>
			<point x="220.356" y="403" type="line"/>
			<point x="258.911" y="717" type="line"/>
			<point x="161.911" y="717" type="line"/>
		</contour>
		<contour>
			<point x="619.965" y="636" type="line"/>
			<point x="634.333" y="639" type="line"/>
			<point x="724.911" y="717" type="line"/>
			<point x="608.911" y="717" type="line"/>
			<point x="603.017" y="669" type="line"/>
		</contour>
		<contour>
			<point x="561.874" y="0" type="line"/>
			<point x="582.451" y="78" type="line"/>
			<point x="525.048" y="91" type="line"/>
		</contour>
		<contour>
			<point x="1.874" y="0" type="line"/>
			<point x="103.874" y="0" type="line"/>
			<point x="102.451" y="78" type="line"/>
			<point x="25.487" y="62" type="line" smooth="yes"/>
			<point x="14.241" y="60"/>
			<point x="8.382" y="53"/>
			<point x="6.908" y="41" type="curve" smooth="yes"/>
		</contour>
		<contour>
			<point x="141.874" y="0" type="line"/>
			<point x="243.874" y="0" type="line"/>
			<point x="248.908" y="41" type="line" smooth="yes"/>
			<point x="250.382" y="53"/>
			<point x="246.241" y="60"/>
			<point x="235.487" y="62" type="curve" smooth="yes"/>
			<point x="162.451" y="78" type="line"/>
		</contour>
		<contour>
			<point x="191.911" y="717" type="line"/>
			<point x="89.911" y="717" type="line"/>
			<point x="84.876" y="676" type="line" smooth="yes"/>
			<point x="83.403" y="664"/>
			<point x="87.544" y="657"/>
			<point x="98.298" y="655" type="curve" smooth="yes"/>
			<point x="171.333" y="639" type="line"/>
		</contour>
		<contour>
			<point x="331.911" y="717" type="line"/>
			<point x="229.911" y="717" type="line"/>
			<point x="231.333" y="639" type="line"/>
			<point x="308.298" y="655" type="line" smooth="yes"/>
			<point x="319.544" y="657"/>
			<point x="325.403" y="664"/>
			<point x="326.876" y="676" type="curve" smooth="yes"/>
		</contour>
		<contour>
			<point x="561.874" y="0" type="line"/>
			<point x="663.874" y="0" type="line"/>
			<point x="668.908" y="41" type="line" smooth="yes"/>
			<point x="670.382" y="53"/>
			<point x="666.241" y="60"/>
			<point x="655.487" y="62" type="curve" smooth="yes"/>
			<point x="582.451" y="78" type="line"/>
		</contour>
		<contour>
			<point x="734.911" y="717" type="line"/>
			<point x="632.911" y="717" type="line"/>
			<point x="634.333" y="639" type="line"/>
			<point x="711.298" y="655" type="line" smooth="yes"/>
			<point x="722.544" y="657"/>
			<point x="728.403" y="664"/>
			<point x="729.876" y="676" type="curve" smooth="yes"/>
		</contour>
		<contour>
			<point x="617.911" y="717" type="line"/>
			<point x="515.911" y="717" type="line"/>
			<point x="510.876" y="676" type="line" smooth="yes"/>
			<point x="509.403" y="664"/>
			<point x="513.544" y="657"/>
			<point x="524.298" y="655" type="curve" smooth="yes"/>
			<point x="597.333" y="639" type="line"/>
		</contour>
	</outline>
</glyph>
<glyph name="L" format="2">
	<advance width="546"/>
	<unicode hex="004C"/>
	<anchor x="169.708" y="357" name="center"/>
	<anchor x="278.874" y="0" name="bottom"/>
	<anchor x="218.911" y="717" name="top"/>
	<note>
		L
	</note>
	<outline>
		<contour>
			<point x="73.874" y="0" type="line"/>
			<point x="504.874" y="0" type="line"/>
			<point x="514.942" y="82" type="line"/>
			<point x="181.942" y="82" type="line"/>
			<point x="259.911" y="717" type="line"/>
			<point x="161.911" y="717" type="line"/>
		</contour>
		<contour>
			<point x="429.873" y="57" type="line"/>
			<point x="514.942" y="82" type="line"/>
			<point x="526.116" y="173" type="line"/>
			<point x="480.116" y="173" type="line" smooth="yes"/>
			<point x="469.116" y="173"/>
			<point x="460.625" y="169"/>
			<point x="457.151" y="157" type="curve" smooth="yes"/>
		</contour>
		<contour>
			<point x="1.874" y="0" type="line"/>
			<point x="103.874" y="0" type="line"/>
			<point x="102.451" y="78" type="line"/>
			<point x="25.487" y="62" type="line" smooth="yes"/>
			<point x="14.241" y="60"/>
			<point x="8.382" y="53"/>
			<point x="6.908" y="41" type="curve" smooth="yes"/>
		</contour>
		<contour>
			<point x="191.911" y="717" type="line"/>
			<point x="89.911" y="717" type="line"/>
			<point x="84.876" y="676" type="line" smooth="yes"/>
			<point x="83.403" y="664"/>
			<point x="87.544" y="657"/>
			<point x="98.298" y="655" type="curve" smooth="yes"/>
			<point x="171.333" y="639" type="line"/>
		</contour>
		<contour>
			<point x="332.911" y="717" type="line"/>
			<point x="230.911" y="717" type="line"/>
			<point x="232.333" y="639" type="line"/>
			<point x="309.298" y="655" type="line" smooth="yes"/>
			<point x="320.544" y="657"/>
			<point x="326.403" y="664"/>
			<point x="327.876" y="676" type="curve" smooth="yes"/>
		</contour>
	</outline>
</glyph>
<glyph name="M" format="2">
	<advance width="956"/>
	<unicode hex="004D"/>
	<anchor x="534.911" y="717" name="top"/>
	<anchor x="446.874" y="0" name="bottom"/>
	<note>
		M
	</note>
	<outline>
		<contour>
			<point x="73.874" y="0" type="line"/>
			<point x="158.874" y="0" type="line"/>
			<point x="223.582" y="527" type="line" smooth="yes"/>
			<point x="225.178" y="540"/>
			<point x="227.388" y="558"/>
			<point x="226.475" y="575" type="curve"/>
			<point x="422.345" y="126" type="line" smooth="yes"/>
			<point x="429.38" y="110"/>
			<point x="440.521" y="103"/>
			<point x="454.521" y="103" type="curve" smooth="yes"/>
			<point x="468.521" y="103" type="line" smooth="yes"/>
			<point x="483.521" y="103"/>
			<point x="496.503" y="111"/>
			<point x="506.345" y="126" type="curve" smooth="yes"/>
			<point x="807.352" y="574" type="line"/>
			<point x="804.265" y="557"/>
			<point x="801.178" y="540"/>
			<point x="799.582" y="527" type="curve" smooth="yes"/>
			<point x="734.874" y="0" type="line"/>
			<point x="819.874" y="0" type="line"/>
			<point x="907.911" y="717" type="line"/>
			<point x="835.911" y="717" type="line" smooth="yes"/>
			<point x="818.911" y="717"/>
			<point x="811.788" y="716"/>
			<point x="800.823" y="700" type="curve" smooth="yes"/>
			<point x="503.798" y="260" type="line" smooth="yes"/>
			<point x="491.588" y="242"/>
			<point x="482.378" y="224"/>
			<point x="474.291" y="207" type="curve"/>
			<point x="469.623" y="226"/>
			<point x="466.588" y="242"/>
			<point x="458.675" y="259" type="curve"/>
			<point x="264.823" y="700" type="line" smooth="yes"/>
			<point x="257.788" y="716"/>
			<point x="250.911" y="717"/>
			<point x="233.911" y="717" type="curve" smooth="yes"/>
			<point x="161.911" y="717" type="line"/>
		</contour>
		<contour>
			<point x="1.874" y="0" type="line"/>
			<point x="103.874" y="0" type="line"/>
			<point x="102.451" y="78" type="line"/>
			<point x="25.487" y="62" type="line" smooth="yes"/>
			<point x="14.241" y="60"/>
			<point x="8.382" y="53"/>
			<point x="6.908" y="41" type="curve" smooth="yes"/>
		</contour>
		<contour>
			<point x="138.874" y="0" type="line"/>
			<point x="240.874" y="0" type="line"/>
			<point x="245.908" y="41" type="line" smooth="yes"/>
			<point x="247.382" y="53"/>
			<point x="243.241" y="60"/>
			<point x="232.487" y="62" type="curve" smooth="yes"/>
			<point x="159.451" y="78" type="line"/>
		</contour>
		<contour>
			<point x="191.911" y="717" type="line"/>
			<point x="89.911" y="717" type="line"/>
			<point x="84.876" y="676" type="line" smooth="yes"/>
			<point x="83.403" y="664"/>
			<point x="87.544" y="657"/>
			<point x="98.298" y="655" type="curve" smooth="yes"/>
			<point x="171.333" y="639" type="line"/>
		</contour>
		<contour>
			<point x="652.874" y="0" type="line"/>
			<point x="754.874" y="0" type="line"/>
			<point x="753.451" y="78" type="line"/>
			<point x="676.487" y="62" type="line" smooth="yes"/>
			<point x="665.241" y="60"/>
			<point x="659.382" y="53"/>
			<point x="657.908" y="41" type="curve" smooth="yes"/>
		</contour>
		<contour>
			<point x="789.874" y="0" type="line"/>
			<point x="891.874" y="0" type="line"/>
			<point x="896.908" y="41" type="line" smooth="yes"/>
			<point x="898.382" y="53"/>
			<point x="894.241" y="60"/>
			<point x="883.487" y="62" type="curve" smooth="yes"/>
			<point x="810.451" y="78" type="line"/>
		</contour>
		<contour>
			<point x="979.911" y="717" type="line"/>
			<point x="877.911" y="717" type="line"/>
			<point x="879.333" y="639" type="line"/>
			<point x="956.298" y="655" type="line" smooth="yes"/>
			<point x="967.544" y="657"/>
			<point x="973.403" y="664"/>
			<point x="974.876" y="676" type="curve" smooth="yes"/>
		</contour>
	</outline>
</glyph>
<glyph name="N" format="2">
	<advance width="792"/>
	<unicode hex="004E"/>
	<anchor x="442.911" y="717" name="top"/>
	<anchor x="354.874" y="0" name="bottom"/>
	<note>
		N
	</note>
	<outline>
		<contour>
			<point x="73.874" y="0" type="line"/>
			<point x="158.874" y="0" type="line"/>
			<point x="221.617" y="511" type="line" smooth="yes"/>
			<point x="223.213" y="524"/>
			<point x="224.301" y="541"/>
			<point x="225.265" y="557" type="curve"/>
			<point x="574.084" y="18" type="line" smooth="yes"/>
			<point x="582.488" y="5"/>
			<point x="590.874" y="0"/>
			<point x="605.874" y="0" type="curve" smooth="yes"/>
			<point x="654.874" y="0" type="line"/>
			<point x="742.911" y="717" type="line"/>
			<point x="657.911" y="717" type="line"/>
			<point x="595.536" y="209" type="line" smooth="yes"/>
			<point x="593.694" y="194"/>
			<point x="591.607" y="177"/>
			<point x="592.52" y="160" type="curve"/>
			<point x="243.823" y="700" type="line" smooth="yes"/>
			<point x="235.542" y="714"/>
			<point x="228.911" y="717"/>
			<point x="211.911" y="717" type="curve"/>
			<point x="161.911" y="717" type="line"/>
		</contour>
		<contour>
			<point x="1.874" y="0" type="line"/>
			<point x="103.874" y="0" type="line"/>
			<point x="102.451" y="78" type="line"/>
			<point x="25.487" y="62" type="line" smooth="yes"/>
			<point x="14.241" y="60"/>
			<point x="8.382" y="53"/>
			<point x="6.908" y="41" type="curve" smooth="yes"/>
		</contour>
		<contour>
			<point x="138.874" y="0" type="line"/>
			<point x="240.874" y="0" type="line"/>
			<point x="245.908" y="41" type="line" smooth="yes"/>
			<point x="247.382" y="53"/>
			<point x="243.241" y="60"/>
			<point x="232.487" y="62" type="curve" smooth="yes"/>
			<point x="159.451" y="78" type="line"/>
		</contour>
		<contour>
			<point x="191.911" y="717" type="line"/>
			<point x="89.911" y="717" type="line"/>
			<point x="84.876" y="676" type="line" smooth="yes"/>
			<point x="83.403" y="664"/>
			<point x="87.544" y="657"/>
			<point x="98.298" y="655" type="curve" smooth="yes"/>
			<point x="171.333" y="639" type="line"/>
		</contour>
		<contour>
			<point x="677.911" y="717" type="line"/>
			<point x="575.911" y="717" type="line"/>
			<point x="570.876" y="676" type="line" smooth="yes"/>
			<point x="569.403" y="664"/>
			<point x="573.544" y="657"/>
			<point x="584.298" y="655" type="curve" smooth="yes"/>
			<point x="657.333" y="639" type="line"/>
		</contour>
		<contour>
			<point x="814.911" y="717" type="line"/>
			<point x="712.911" y="717" type="line"/>
			<point x="714.333" y="639" type="line"/>
			<point x="791.298" y="655" type="line" smooth="yes"/>
			<point x="802.544" y="657"/>
			<point x="808.403" y="664"/>
			<point x="809.876" y="676" type="curve" smooth="yes"/>
		</contour>
	</outline>
</glyph>
<glyph name="O" format="2">
	<advance width="767"/>
	<unicode hex="004F"/>
	<anchor x="397.182" y="369" name="center"/>
	<anchor x="361.242" y="3" name="ogonek"/>
	<anchor x="442.366" y="737" name="top"/>
	<anchor x="821.366" y="737" name="topright"/>
	<anchor x="63.366" y="737" name="topleft"/>
	<anchor x="351.874" y="0" name="bottom"/>
	<note>
		O
	</note>
	<outline>
		<contour>
			<point x="350.892" y="-8" type="curve" smooth="yes"/>
			<point x="455.892" y="-8"/>
			<point x="550.558" y="30"/>
			<point x="620.539" y="95" type="curve" smooth="yes"/>
			<point x="690.397" y="159"/>
			<point x="736.693" y="251"/>
			<point x="749.831" y="358" type="curve" smooth="yes"/>
			<point x="763.092" y="466"/>
			<point x="739.265" y="557"/>
			<point x="685.246" y="622" type="curve" smooth="yes"/>
			<point x="631.227" y="687"/>
			<point x="545.893" y="725"/>
			<point x="440.893" y="725" type="curve" smooth="yes"/>
			<point x="335.893" y="725"/>
			<point x="243.227" y="687"/>
			<point x="173.246" y="622" type="curve" smooth="yes"/>
			<point x="103.265" y="557"/>
			<point x="56.092" y="466"/>
			<point x="42.831" y="358" type="curve" smooth="yes"/>
			<point x="29.693" y="251"/>
			<point x="54.397" y="159"/>
			<point x="108.539" y="95" type="curve" smooth="yes"/>
			<point x="162.558" y="30"/>
			<point x="245.892" y="-8"/>
		</contour>
		<contour>
			<point x="361.329" y="77" type="curve" smooth="yes"/>
			<point x="204.329" y="77"/>
			<point x="120.712" y="186"/>
			<point x="141.831" y="358" type="curve" smooth="yes"/>
			<point x="162.95" y="530"/>
			<point x="273.579" y="641"/>
			<point x="430.579" y="641" type="curve" smooth="yes"/>
			<point x="588.579" y="641"/>
			<point x="670.95" y="530"/>
			<point x="649.831" y="358" type="curve" smooth="yes"/>
			<point x="628.589" y="185"/>
			<point x="519.329" y="77"/>
		</contour>
	</outline>
</glyph>
<glyph name="P" format="2">
	<advance width="610"/>
	<unicode hex="0050"/>
	<note>
		P
	</note>
	<outline>
		<contour>
			<point x="73.874" y="0" type="line"/>
			<point x="171.874" y="0" type="line"/>
			<point x="204.78" y="268" type="line"/>
			<point x="319.78" y="268" type="line" smooth="yes"/>
			<point x="483.78" y="268"/>
			<point x="597.585" y="356"/>
			<point x="614.652" y="495" type="curve" smooth="yes"/>
			<point x="631.965" y="636"/>
			<point x="545.911" y="717"/>
			<point x="374.911" y="717" type="curve" smooth="yes"/>
			<point x="161.911" y="717" type="line"/>
		</contour>
		<contour>
			<point x="214.235" y="345" type="line"/>
			<point x="250.456" y="640" type="line"/>
			<point x="365.456" y="640" type="line" smooth="yes"/>
			<point x="478.456" y="640"/>
			<point x="528.826" y="586"/>
			<point x="517.652" y="495" type="curve" smooth="yes"/>
			<point x="506.356" y="403"/>
			<point x="435.235" y="345"/>
			<point x="329.235" y="345" type="curve" smooth="yes"/>
		</contour>
		<contour>
			<point x="1.874" y="0" type="line"/>
			<point x="103.874" y="0" type="line"/>
			<point x="102.451" y="78" type="line"/>
			<point x="25.487" y="62" type="line" smooth="yes"/>
			<point x="14.241" y="60"/>
			<point x="8.382" y="53"/>
			<point x="6.908" y="41" type="curve" smooth="yes"/>
		</contour>
		<contour>
			<point x="191.911" y="717" type="line"/>
			<point x="89.911" y="717" type="line"/>
			<point x="84.876" y="676" type="line" smooth="yes"/>
			<point x="83.403" y="664"/>
			<point x="87.544" y="657"/>
			<point x="98.298" y="655" type="curve" smooth="yes"/>
			<point x="171.333" y="639" type="line"/>
		</contour>
		<contour>
			<point x="141.874" y="0" type="line"/>
			<point x="243.874" y="0" type="line"/>
			<point x="248.908" y="41" type="line" smooth="yes"/>
			<point x="250.382" y="53"/>
			<point x="246.241" y="60"/>
			<point x="235.487" y="62" type="curve" smooth="yes"/>
			<point x="162.451" y="78" type="line"/>
		</contour>
	</outline>
</glyph>
<glyph name="Q" format="2">
	<advance width="767"/>
	<unicode hex="0051"/>
	<note>
		Q
	</note>
	<outline>
		<contour>
			<point x="640.702" y="-148" type="curve" smooth="yes"/>
			<point x="720.702" y="-148" type="line"/>
			<point x="561.136" y="51" type="line"/>
			<point x="663.872" y="114"/>
			<point x="733.992" y="229"/>
			<point x="749.831" y="358" type="curve" smooth="yes"/>
			<point x="763.092" y="466"/>
			<point x="739.265" y="557"/>
			<point x="685.246" y="622" type="curve" smooth="yes"/>
			<point x="631.227" y="687"/>
			<point x="545.893" y="725"/>
			<point x="440.893" y="725" type="curve" smooth="yes"/>
			<point x="335.893" y="725"/>
			<point x="243.227" y="687"/>
			<point x="173.246" y="622" type="curve" smooth="yes"/>
			<point x="103.265" y="557"/>
			<point x="56.092" y="466"/>
			<point x="42.831" y="358" type="curve" smooth="yes"/>
			<point x="29.693" y="251"/>
			<point x="54.397" y="159"/>
			<point x="108.539" y="95" type="curve" smooth="yes"/>
			<point x="162.558" y="30"/>
			<point x="245.892" y="-8"/>
			<point x="350.892" y="-8" type="curve" smooth="yes"/>
			<point x="395.892" y="-8"/>
			<point x="436.874" y="0"/>
			<point x="477.348" y="12" type="curve"/>
			<point x="586.403" y="-126" type="line" smooth="yes"/>
			<point x="599.439" y="-142"/>
			<point x="616.702" y="-148"/>
		</contour>
		<contour>
			<point x="361.329" y="77" type="curve" smooth="yes"/>
			<point x="204.329" y="77"/>
			<point x="120.712" y="186"/>
			<point x="141.831" y="358" type="curve" smooth="yes"/>
			<point x="162.95" y="530"/>
			<point x="273.579" y="641"/>
			<point x="430.579" y="641" type="curve" smooth="yes"/>
			<point x="588.579" y="641"/>
			<point x="670.95" y="530"/>
			<point x="649.831" y="358" type="curve" smooth="yes"/>
			<point x="628.589" y="185"/>
			<point x="519.329" y="77"/>
		</contour>
	</outline>
</glyph>
<glyph name="R" format="2">
	<advance width="667"/>
	<unicode hex="0052"/>
	<anchor x="384.911" y="717" name="top"/>
	<anchor x="296.874" y="0" name="bottom"/>
	<note>
		R
	</note>
	<outline>
		<contour>
			<point x="73.874" y="0" type="line"/>
			<point x="171.874" y="0" type="line"/>
			<point x="208.587" y="299" type="line"/>
			<point x="281.587" y="299" type="line" smooth="yes"/>
			<point x="308.587" y="299"/>
			<point x="317.85" y="293"/>
			<point x="327.885" y="277" type="curve" smooth="yes"/>
			<point x="482.453" y="21" type="line"/>
			<point x="488.734" y="7"/>
			<point x="500.874" y="0"/>
			<point x="518.874" y="0" type="curve" smooth="yes"/>
			<point x="604.874" y="0" type="line"/>
			<point x="430.868" y="285" type="line" smooth="yes"/>
			<point x="422.464" y="298"/>
			<point x="413.692" y="308"/>
			<point x="402.551" y="315" type="curve"/>
			<point x="513.744" y="341"/>
			<point x="590.584" y="413"/>
			<point x="603.477" y="518" type="curve" smooth="yes"/>
			<point x="619.561" y="649"/>
			<point x="534.911" y="717"/>
			<point x="365.911" y="717" type="curve" smooth="yes"/>
			<point x="161.911" y="717" type="line"/>
		</contour>
		<contour>
			<point x="217.304" y="370" type="line"/>
			<point x="250.456" y="640" type="line"/>
			<point x="356.456" y="640" type="line" smooth="yes"/>
			<point x="467.456" y="640"/>
			<point x="519.054" y="596"/>
			<point x="508.617" y="511" type="curve" smooth="yes"/>
			<point x="497.689" y="422"/>
			<point x="426.304" y="370"/>
			<point x="318.304" y="370" type="curve" smooth="yes"/>
		</contour>
		<contour>
			<point x="520.874" y="0" type="line"/>
			<point x="541.451" y="78" type="line"/>
			<point x="484.048" y="91" type="line"/>
		</contour>
		<contour>
			<point x="1.874" y="0" type="line"/>
			<point x="103.874" y="0" type="line"/>
			<point x="102.451" y="78" type="line"/>
			<point x="25.487" y="62" type="line" smooth="yes"/>
			<point x="14.241" y="60"/>
			<point x="8.382" y="53"/>
			<point x="6.908" y="41" type="curve" smooth="yes"/>
		</contour>
		<contour>
			<point x="191.911" y="717" type="line"/>
			<point x="89.911" y="717" type="line"/>
			<point x="84.876" y="676" type="line" smooth="yes"/>
			<point x="83.403" y="664"/>
			<point x="87.544" y="657"/>
			<point x="98.298" y="655" type="curve" smooth="yes"/>
			<point x="171.333" y="639" type="line"/>
		</contour>
		<contour>
			<point x="141.874" y="0" type="line"/>
			<point x="243.874" y="0" type="line"/>
			<point x="248.908" y="41" type="line" smooth="yes"/>
			<point x="250.382" y="53"/>
			<point x="246.241" y="60"/>
			<point x="235.487" y="62" type="curve" smooth="yes"/>
			<point x="162.451" y="78" type="line"/>
		</contour>
		<contour>
			<point x="520.874" y="0" type="line"/>
			<point x="622.874" y="0" type="line"/>
			<point x="627.908" y="41" type="line" smooth="yes"/>
			<point x="629.382" y="53"/>
			<point x="625.241" y="60"/>
			<point x="614.487" y="62" type="curve" smooth="yes"/>
			<point x="541.451" y="78" type="line"/>
		</contour>
	</outline>
</glyph>
<glyph name="S" format="2">
	<advance width="545"/>
	<unicode hex="0053"/>
	<anchor x="333.911" y="717" name="top"/>
	<anchor x="239.874" y="0" name="bottom"/>
	<note>
		S
	</note>
	<outline>
		<contour>
			<point x="222.892" y="-8" type="curve" smooth="yes"/>
			<point x="375.892" y="-8"/>
			<point x="479.556" y="87"/>
			<point x="495.15" y="214" type="curve" smooth="yes"/>
			<point x="509.516" y="331"/>
			<point x="435.55" y="372"/>
			<point x="346.479" y="404" type="curve" smooth="yes"/>
			<point x="266.04" y="433"/>
			<point x="180.25" y="451"/>
			<point x="190.564" y="535" type="curve" smooth="yes"/>
			<point x="198.422" y="599"/>
			<point x="254.947" y="644"/>
			<point x="336.947" y="644" type="curve" smooth="yes"/>
			<point x="368.947" y="644"/>
			<point x="412.088" y="637"/>
			<point x="453.614" y="625" type="curve"/>
			<point x="527.773" y="610" type="line"/>
			<point x="536.859" y="684" type="line"/>
			<point x="477.051" y="710"/>
			<point x="403.893" y="725"/>
			<point x="346.893" y="725" type="curve" smooth="yes"/>
			<point x="210.893" y="725"/>
			<point x="113.456" y="640"/>
			<point x="98.968" y="522" type="curve" smooth="yes"/>
			<point x="84.479" y="404"/>
			<point x="166.568" y="364"/>
			<point x="246.13" y="336" type="curve" smooth="yes"/>
			<point x="327.569" y="307"/>
			<point x="413.973" y="294"/>
			<point x="402.431" y="200" type="curve" smooth="yes"/>
			<point x="393.222" y="125"/>
			<point x="329.837" y="73"/>
			<point x="240.837" y="73" type="curve"/>
			<point x="191.837" y="73"/>
			<point x="160.697" y="80"/>
			<point x="109.153" y="100" type="curve"/>
			<point x="34.485" y="119" type="line"/>
			<point x="23.558" y="30" type="line"/>
			<point x="61.716" y="15"/>
			<point x="146.892" y="-8"/>
		</contour>
		<contour>
			<point x="448.842" y="635" type="line"/>
			<point x="451.564" y="535" type="line" smooth="yes"/>
			<point x="452.09" y="523"/>
			<point x="459.599" y="519"/>
			<point x="470.599" y="519" type="curve" smooth="yes"/>
			<point x="516.599" y="519" type="line"/>
			<point x="527.773" y="610" type="line"/>
			<point x="448.842" y="635" type="line"/>
		</contour>
		<contour>
			<point x="113.416" y="94" type="line"/>
			<point x="110.694" y="194" type="line" smooth="yes"/>
			<point x="110.168" y="206"/>
			<point x="102.659" y="210"/>
			<point x="91.659" y="210" type="curve" smooth="yes"/>
			<point x="45.659" y="210" type="line"/>
			<point x="34.485" y="119" type="line"/>
			<point x="113.416" y="94" type="line"/>
		</contour>
	</outline>
</glyph>
<glyph name="T" format="2">
	<advance width="599"/>
	<unicode hex="0054"/>
	<anchor x="312.954" y="359" name="center"/>
	<anchor x="268.874" y="0" name="bottom"/>
	<anchor x="356.911" y="717" name="top"/>
	<note>
		T
	</note>
	<outline>
		<contour>
			<point x="220.874" y="0" type="line"/>
			<point x="317.874" y="0" type="line"/>
			<point x="395.842" y="635" type="line"/>
			<point x="626.842" y="635" type="line"/>
			<point x="636.911" y="717" type="line"/>
			<point x="75.911" y="717" type="line"/>
			<point x="65.842" y="635" type="line"/>
			<point x="298.842" y="635" type="line"/>
		</contour>
		<contour>
			<point x="148.874" y="0" type="line"/>
			<point x="250.874" y="0" type="line"/>
			<point x="249.451" y="78" type="line"/>
			<point x="172.487" y="62" type="line" smooth="yes"/>
			<point x="161.241" y="60"/>
			<point x="155.382" y="53"/>
			<point x="153.908" y="41" type="curve" smooth="yes"/>
		</contour>
		<contour>
			<point x="287.874" y="0" type="line"/>
			<point x="389.874" y="0" type="line"/>
			<point x="394.908" y="41" type="line" smooth="yes"/>
			<point x="396.382" y="53"/>
			<point x="392.241" y="60"/>
			<point x="381.487" y="62" type="curve" smooth="yes"/>
			<point x="308.451" y="78" type="line"/>
		</contour>
		<contour>
			<point x="547.912" y="660" type="line"/>
			<point x="550.633" y="560" type="line" smooth="yes"/>
			<point x="551.16" y="548"/>
			<point x="558.669" y="544"/>
			<point x="569.669" y="544" type="curve" smooth="yes"/>
			<point x="615.669" y="544" type="line"/>
			<point x="626.842" y="635" type="line"/>
			<point x="547.912" y="660" type="line"/>
		</contour>
		<contour>
			<point x="150.912" y="660" type="line"/>
			<point x="65.842" y="635" type="line"/>
			<point x="54.669" y="544" type="line"/>
			<point x="100.669" y="544" type="line" smooth="yes"/>
			<point x="111.669" y="544"/>
			<point x="120.16" y="548"/>
			<point x="123.633" y="560" type="curve" smooth="yes"/>
		</contour>
	</outline>
</glyph>
<glyph name="U" format="2">
	<advance width="762"/>
	<unicode hex="0055"/>
	<anchor x="352.874" y="0" name="ogonek"/>
	<anchor x="436.911" y="717" name="top"/>
	<anchor x="770.911" y="717" name="topright"/>
	<anchor x="348.874" y="0" name="bottom"/>
	<note>
		U
	</note>
	<outline>
		<contour>
			<point x="348.769" y="-9" type="curve" smooth="yes"/>
			<point x="518.769" y="-9"/>
			<point x="648.503" y="111"/>
			<point x="669.377" y="281" type="curve" smooth="yes"/>
			<point x="722.911" y="717" type="line"/>
			<point x="625.911" y="717" type="line"/>
			<point x="572.377" y="281" type="line" smooth="yes"/>
			<point x="557.642" y="161"/>
			<point x="478.329" y="77"/>
			<point x="359.329" y="77" type="curve" smooth="yes"/>
			<point x="239.329" y="77"/>
			<point x="180.888" y="163"/>
			<point x="195.499" y="282" type="curve" smooth="yes"/>
			<point x="248.911" y="717" type="line"/>
			<point x="151.911" y="717" type="line"/>
			<point x="98.377" y="281" type="line" smooth="yes"/>
			<point x="77.994" y="115"/>
			<point x="174.769" y="-9"/>
		</contour>
		<contour>
			<point x="181.911" y="717" type="line"/>
			<point x="79.911" y="717" type="line"/>
			<point x="74.876" y="676" type="line" smooth="yes"/>
			<point x="73.403" y="664"/>
			<point x="77.544" y="657"/>
			<point x="88.298" y="655" type="curve" smooth="yes"/>
			<point x="161.333" y="639" type="line"/>
		</contour>
		<contour>
			<point x="321.911" y="717" type="line"/>
			<point x="219.911" y="717" type="line"/>
			<point x="221.333" y="639" type="line"/>
			<point x="298.298" y="655" type="line" smooth="yes"/>
			<point x="309.544" y="657"/>
			<point x="315.403" y="664"/>
			<point x="316.876" y="676" type="curve" smooth="yes"/>
		</contour>
		<contour>
			<point x="655.911" y="717" type="line"/>
			<point x="553.911" y="717" type="line"/>
			<point x="548.876" y="676" type="line" smooth="yes"/>
			<point x="547.403" y="664"/>
			<point x="551.544" y="657"/>
			<point x="562.298" y="655" type="curve" smooth="yes"/>
			<point x="635.333" y="639" type="line"/>
		</contour>
		<contour>
			<point x="795.911" y="717" type="line"/>
			<point x="693.911" y="717" type="line"/>
			<point x="695.333" y="639" type="line"/>
			<point x="772.298" y="655" type="line" smooth="yes"/>
			<point x="783.544" y="657"/>
			<point x="789.403" y="664"/>
			<point x="790.876" y="676" type="curve" smooth="yes"/>
		</contour>
	</outline>
</glyph>
<glyph name="V" format="2">
	<advance width="768"/>
	<unicode hex="0056"/>
	<anchor x="440.911" y="717" name="top"/>
	<anchor x="352.874" y="0" name="bottom"/>
	<note>
		V
	</note>
	<outline>
		<contour>
			<point x="308.874" y="0" type="line"/>
			<point x="396.874" y="0" type="line"/>
			<point x="776.911" y="717" type="line"/>
			<point x="698.911" y="717" type="line" smooth="yes"/>
			<point x="681.911" y="717"/>
			<point x="668.437" y="705"/>
			<point x="663.087" y="694" type="curve" smooth="yes"/>
			<point x="398.958" y="188" type="line" smooth="yes"/>
			<point x="387.134" y="165"/>
			<point x="377.818" y="138"/>
			<point x="367.38" y="110" type="curve"/>
			<point x="363.818" y="138"/>
			<point x="359.134" y="165"/>
			<point x="352.958" y="188" type="curve" smooth="yes"/>
			<point x="213.087" y="694" type="line" smooth="yes"/>
			<point x="209.683" y="707"/>
			<point x="199.911" y="717"/>
			<point x="182.911" y="717" type="curve" smooth="yes"/>
			<point x="104.911" y="717" type="line"/>
		</contour>
		<contour>
			<point x="162.841" y="692" type="line"/>
			<point x="237.841" y="692" type="line"/>
			<point x="240.911" y="717" type="line"/>
			<point x="165.911" y="717" type="line"/>
		</contour>
		<contour>
			<point x="643.841" y="692" type="line"/>
			<point x="718.841" y="692" type="line"/>
			<point x="721.911" y="717" type="line"/>
			<point x="646.911" y="717" type="line"/>
		</contour>
		<contour>
			<point x="171.911" y="717" type="line"/>
			<point x="69.911" y="717" type="line"/>
			<point x="64.876" y="676" type="line" smooth="yes"/>
			<point x="63.403" y="664"/>
			<point x="67.544" y="657"/>
			<point x="78.298" y="655" type="curve" smooth="yes"/>
			<point x="151.333" y="639" type="line"/>
		</contour>
		<contour>
			<point x="308.911" y="717" type="line"/>
			<point x="206.911" y="717" type="line"/>
			<point x="208.333" y="639" type="line"/>
			<point x="285.298" y="655" type="line" smooth="yes"/>
			<point x="296.544" y="657"/>
			<point x="302.403" y="664"/>
			<point x="303.876" y="676" type="curve" smooth="yes"/>
		</contour>
		<contour>
			<point x="674.911" y="717" type="line"/>
			<point x="572.911" y="717" type="line"/>
			<point x="567.876" y="676" type="line" smooth="yes"/>
			<point x="566.403" y="664"/>
			<point x="570.544" y="657"/>
			<point x="581.298" y="655" type="curve" smooth="yes"/>
			<point x="654.333" y="639" type="line"/>
		</contour>
		<contour>
			<point x="811.911" y="717" type="line"/>
			<point x="709.911" y="717" type="line"/>
			<point x="711.333" y="639" type="line"/>
			<point x="788.298" y="655" type="line" smooth="yes"/>
			<point x="799.544" y="657"/>
			<point x="805.403" y="664"/>
			<point x="806.876" y="676" type="curve" smooth="yes"/>
		</contour>
	</outline>
</glyph>
<glyph name="W" format="2">
	<advance width="1118"/>
	<unicode hex="0057"/>
	<anchor x="613.911" y="717" name="top"/>
	<anchor x="525.874" y="0" name="bottom"/>
	<note>
		W
	</note>
	<outline>
		<contour>
			<point x="246.874" y="0" type="line"/>
			<point x="333.874" y="0" type="line"/>
			<point x="583.037" y="547" type="line" smooth="yes"/>
			<point x="585.774" y="553"/>
			<point x="595.966" y="579"/>
			<point x="597.458" y="583" type="curve"/>
			<point x="598.739" y="569"/>
			<point x="601.265" y="557"/>
			<point x="603.037" y="547" type="curve" smooth="yes"/>
			<point x="716.874" y="0" type="line"/>
			<point x="803.874" y="0" type="line"/>
			<point x="1115.911" y="717" type="line"/>
			<point x="1039.911" y="717" type="line" smooth="yes"/>
			<point x="1023.911" y="717"/>
			<point x="1010.56" y="706"/>
			<point x="1005.087" y="694" type="curve" smooth="yes"/>
			<point x="794.94" y="196" type="line" smooth="yes"/>
			<point x="790.835" y="187"/>
			<point x="784.134" y="165"/>
			<point x="775.573" y="136" type="curve"/>
			<point x="773.397" y="159"/>
			<point x="770.853" y="179"/>
			<point x="766.94" y="196" type="curve" smooth="yes"/>
			<point x="661.087" y="694" type="line" smooth="yes"/>
			<point x="657.806" y="708"/>
			<point x="647.911" y="717"/>
			<point x="630.911" y="717" type="curve" smooth="yes"/>
			<point x="602.911" y="717" type="line" smooth="yes"/>
			<point x="585.911" y="717"/>
			<point x="572.437" y="705"/>
			<point x="567.087" y="694" type="curve" smooth="yes"/>
			<point x="336.94" y="196" type="line" smooth="yes"/>
			<point x="335.449" y="192"/>
			<point x="331.344" y="183"/>
			<point x="314.327" y="134" type="curve"/>
			<point x="313.151" y="157"/>
			<point x="312.607" y="177"/>
			<point x="308.94" y="196" type="curve" smooth="yes"/>
			<point x="222.087" y="694" type="line" smooth="yes"/>
			<point x="219.683" y="707"/>
			<point x="208.911" y="717"/>
			<point x="191.911" y="717" type="curve" smooth="yes"/>
			<point x="110.911" y="717" type="line"/>
		</contour>
		<contour>
			<point x="162.841" y="692" type="line"/>
			<point x="237.841" y="692" type="line"/>
			<point x="240.911" y="717" type="line"/>
			<point x="165.911" y="717" type="line"/>
		</contour>
		<contour>
			<point x="995.841" y="692" type="line"/>
			<point x="1070.841" y="692" type="line"/>
			<point x="1073.911" y="717" type="line"/>
			<point x="998.911" y="717" type="line"/>
		</contour>
		<contour>
			<point x="171.911" y="717" type="line"/>
			<point x="69.911" y="717" type="line"/>
			<point x="64.876" y="676" type="line" smooth="yes"/>
			<point x="63.403" y="664"/>
			<point x="67.544" y="657"/>
			<point x="78.298" y="655" type="curve" smooth="yes"/>
			<point x="151.333" y="639" type="line"/>
		</contour>
		<contour>
			<point x="308.911" y="717" type="line"/>
			<point x="206.911" y="717" type="line"/>
			<point x="208.333" y="639" type="line"/>
			<point x="285.298" y="655" type="line" smooth="yes"/>
			<point x="296.544" y="657"/>
			<point x="302.403" y="664"/>
			<point x="303.876" y="676" type="curve" smooth="yes"/>
		</contour>
		<contour>
			<point x="1024.911" y="717" type="line"/>
			<point x="922.911" y="717" type="line"/>
			<point x="917.876" y="676" type="line" smooth="yes"/>
			<point x="916.403" y="664"/>
			<point x="920.544" y="657"/>
			<point x="931.298" y="655" type="curve" smooth="yes"/>
			<point x="1004.333" y="639" type="line"/>
		</contour>
		<contour>
			<point x="1161.911" y="717" type="line"/>
			<point x="1059.911" y="717" type="line"/>
			<point x="1061.333" y="639" type="line"/>
			<point x="1138.298" y="655" type="line" smooth="yes"/>
			<point x="1149.544" y="657"/>
			<point x="1155.403" y="664"/>
			<point x="1156.876" y="676" type="curve" smooth="yes"/>
		</contour>
	</outline>
</glyph>
<glyph name="X" format="2">
	<advance width="716"/>
	<unicode hex="0058"/>
	<anchor x="415.911" y="717" name="top"/>
	<anchor x="327.874" y="0" name="bottom"/>
	<note>
		X
	</note>
	<outline>
		<contour>
			<point x="12.874" y="0" type="line"/>
			<point x="102.874" y="0" type="line" smooth="yes"/>
			<point x="117.874" y="0"/>
			<point x="124.979" y="9"/>
			<point x="132.207" y="19" type="curve" smooth="yes"/>
			<point x="353.587" y="299" type="line" smooth="yes"/>
			<point x="357.446" y="306"/>
			<point x="361.183" y="312"/>
			<point x="365.042" y="319" type="curve"/>
			<point x="520.207" y="19" type="line" smooth="yes"/>
			<point x="525.102" y="10"/>
			<point x="529.874" y="0"/>
			<point x="544.874" y="0" type="curve" smooth="yes"/>
			<point x="640.874" y="0" type="line"/>
			<point x="441.673" y="373" type="line"/>
			<point x="720.911" y="717" type="line"/>
			<point x="628.911" y="717" type="line" smooth="yes"/>
			<point x="617.911" y="717"/>
			<point x="612.174" y="711"/>
			<point x="603.946" y="701" type="curve" smooth="yes"/>
			<point x="395.777" y="439" type="line" smooth="yes"/>
			<point x="389.794" y="431"/>
			<point x="385.812" y="423"/>
			<point x="381.952" y="416" type="curve"/>
			<point x="230.192" y="703" type="line" smooth="yes"/>
			<point x="225.297" y="712"/>
			<point x="220.911" y="717"/>
			<point x="207.911" y="717" type="curve" smooth="yes"/>
			<point x="110.911" y="717" type="line"/>
			<point x="305.059" y="368" type="line"/>
		</contour>
		<contour>
			<point x="65.874" y="0" type="line"/>
			<point x="150.874" y="0" type="line"/>
			<point x="155.785" y="40" type="line"/>
			<point x="70.785" y="40" type="line"/>
		</contour>
		<contour>
			<point x="498.874" y="0" type="line"/>
			<point x="583.874" y="0" type="line"/>
			<point x="588.785" y="40" type="line"/>
			<point x="503.785" y="40" type="line"/>
		</contour>
		<contour>
			<point x="173.841" y="692" type="line"/>
			<point x="248.841" y="692" type="line"/>
			<point x="251.911" y="717" type="line"/>
			<point x="176.911" y="717" type="line"/>
		</contour>
		<contour>
			<point x="587.841" y="692" type="line"/>
			<point x="662.841" y="692" type="line"/>
			<point x="665.911" y="717" type="line"/>
			<point x="590.911" y="717" type="line"/>
		</contour>
		<contour>
			<point x="182.911" y="717" type="line"/>
			<point x="80.911" y="717" type="line"/>
			<point x="75.876" y="676" type="line" smooth="yes"/>
			<point x="74.403" y="664"/>
			<point x="78.544" y="657"/>
			<point x="89.298" y="655" type="curve" smooth="yes"/>
			<point x="162.333" y="639" type="line"/>
		</contour>
		<contour>
			<point x="336.911" y="717" type="line"/>
			<point x="234.911" y="717" type="line"/>
			<point x="236.333" y="639" type="line"/>
			<point x="313.298" y="655" type="line" smooth="yes"/>
			<point x="324.544" y="657"/>
			<point x="330.403" y="664"/>
			<point x="331.876" y="676" type="curve" smooth="yes"/>
		</contour>
		<contour>
			<point x="602.911" y="717" type="line"/>
			<point x="500.911" y="717" type="line"/>
			<point x="495.876" y="676" type="line" smooth="yes"/>
			<point x="494.403" y="664"/>
			<point x="498.544" y="657"/>
			<point x="509.298" y="655" type="curve" smooth="yes"/>
			<point x="582.333" y="639" type="line"/>
		</contour>
		<contour>
			<point x="756.911" y="717" type="line"/>
			<point x="654.911" y="717" type="line"/>
			<point x="656.333" y="639" type="line"/>
			<point x="733.298" y="655" type="line" smooth="yes"/>
			<point x="744.544" y="657"/>
			<point x="750.403" y="664"/>
			<point x="751.876" y="676" type="curve" smooth="yes"/>
		</contour>
		<contour>
			<point x="-18.126" y="0" type="line"/>
			<point x="83.874" y="0" type="line"/>
			<point x="82.451" y="78" type="line"/>
			<point x="5.487" y="62" type="line" smooth="yes"/>
			<point x="-5.759" y="60"/>
			<point x="-11.618" y="53"/>
			<point x="-13.092" y="41" type="curve" smooth="yes"/>
		</contour>
		<contour>
			<point x="135.874" y="0" type="line"/>
			<point x="237.874" y="0" type="line"/>
			<point x="242.908" y="41" type="line" smooth="yes"/>
			<point x="244.382" y="53"/>
			<point x="240.241" y="60"/>
			<point x="229.487" y="62" type="curve" smooth="yes"/>
			<point x="156.451" y="78" type="line"/>
		</contour>
		<contour>
			<point x="569.874" y="0" type="line"/>
			<point x="671.874" y="0" type="line"/>
			<point x="676.908" y="41" type="line" smooth="yes"/>
			<point x="678.382" y="53"/>
			<point x="674.241" y="60"/>
			<point x="663.487" y="62" type="curve" smooth="yes"/>
			<point x="590.451" y="78" type="line"/>
		</contour>
		<contour>
			<point x="415.874" y="0" type="line"/>
			<point x="517.874" y="0" type="line"/>
			<point x="516.451" y="78" type="line"/>
			<point x="439.487" y="62" type="line" smooth="yes"/>
			<point x="428.241" y="60"/>
			<point x="422.382" y="53"/>
			<point x="420.908" y="41" type="curve" smooth="yes"/>
		</contour>
	</outline>
</glyph>
<glyph name="Y" format="2">
	<advance width="703"/>
	<unicode hex="0059"/>
	<anchor x="408.911" y="717" name="top"/>
	<anchor x="320.874" y="0" name="bottom"/>
	<anchor x="143.911" y="717" name="topleft"/>
	<note>
		Y
	</note>
	<outline>
		<contour>
			<point x="272.874" y="0" type="line"/>
			<point x="368.874" y="0" type="line"/>
			<point x="403.868" y="285" type="line"/>
			<point x="719.911" y="717" type="line"/>
			<point x="633.911" y="717" type="line" smooth="yes"/>
			<point x="617.911" y="717"/>
			<point x="606.314" y="704"/>
			<point x="599.087" y="694" type="curve" smooth="yes"/>
			<point x="400.952" y="416" type="line" smooth="yes"/>
			<point x="385.128" y="393"/>
			<point x="374.673" y="373"/>
			<point x="365.094" y="352" type="curve"/>
			<point x="359.55" y="372"/>
			<point x="355.006" y="392"/>
			<point x="343.952" y="416" type="curve" smooth="yes"/>
			<point x="214.087" y="694" type="line" smooth="yes"/>
			<point x="207.683" y="707"/>
			<point x="199.911" y="717"/>
			<point x="182.911" y="717" type="curve" smooth="yes"/>
			<point x="97.911" y="717" type="line"/>
			<point x="307.868" y="285" type="line"/>
		</contour>
		<contour>
			<point x="159.28" y="663" type="line"/>
			<point x="234.28" y="663" type="line"/>
			<point x="240.911" y="717" type="line"/>
			<point x="165.911" y="717" type="line"/>
		</contour>
		<contour>
			<point x="554.28" y="663" type="line"/>
			<point x="655.28" y="663" type="line"/>
			<point x="661.911" y="717" type="line"/>
			<point x="560.911" y="717" type="line"/>
		</contour>
		<contour>
			<point x="171.911" y="717" type="line"/>
			<point x="69.911" y="717" type="line"/>
			<point x="64.876" y="676" type="line" smooth="yes"/>
			<point x="63.403" y="664"/>
			<point x="67.544" y="657"/>
			<point x="78.298" y="655" type="curve" smooth="yes"/>
			<point x="151.333" y="639" type="line"/>
		</contour>
		<contour>
			<point x="325.911" y="717" type="line"/>
			<point x="223.911" y="717" type="line"/>
			<point x="225.333" y="639" type="line"/>
			<point x="302.298" y="655" type="line" smooth="yes"/>
			<point x="313.544" y="657"/>
			<point x="319.403" y="664"/>
			<point x="320.876" y="676" type="curve" smooth="yes"/>
		</contour>
		<contour>
			<point x="592.911" y="717" type="line"/>
			<point x="490.911" y="717" type="line"/>
			<point x="485.876" y="676" type="line" smooth="yes"/>
			<point x="484.403" y="664"/>
			<point x="488.544" y="657"/>
			<point x="499.298" y="655" type="curve" smooth="yes"/>
			<point x="572.333" y="639" type="line"/>
		</contour>
		<contour>
			<point x="746.911" y="717" type="line"/>
			<point x="644.911" y="717" type="line"/>
			<point x="646.333" y="639" type="line"/>
			<point x="723.298" y="655" type="line" smooth="yes"/>
			<point x="734.544" y="657"/>
			<point x="740.403" y="664"/>
			<point x="741.876" y="676" type="curve" smooth="yes"/>
		</contour>
		<contour>
			<point x="200.874" y="0" type="line"/>
			<point x="302.874" y="0" type="line"/>
			<point x="301.451" y="78" type="line"/>
			<point x="224.487" y="62" type="line" smooth="yes"/>
			<point x="213.241" y="60"/>
			<point x="207.382" y="53"/>
			<point x="205.908" y="41" type="curve" smooth="yes"/>
		</contour>
		<contour>
			<point x="338.874" y="0" type="line"/>
			<point x="440.874" y="0" type="line"/>
			<point x="445.908" y="41" type="line" smooth="yes"/>
			<point x="447.382" y="53"/>
			<point x="443.241" y="60"/>
			<point x="432.487" y="62" type="curve" smooth="yes"/>
			<point x="359.451" y="78" type="line"/>
		</contour>
	</outline>
</glyph>
<glyph name="Z" format="2">
	<advance width="611"/>
	<unicode hex="005A"/>
	<anchor x="315.954" y="359" name="center"/>
	<anchor x="271.874" y="0" name="bottom"/>
	<anchor x="359.911" y="717" name="top"/>
	<note>
		Z
	</note>
	<outline>
		<contour>
			<point x="2.874" y="0" type="line"/>
			<point x="538.874" y="0" type="line"/>
			<point x="548.574" y="79" type="line"/>
			<point x="139.574" y="79" type="line"/>
			<point x="615.561" y="649" type="line" smooth="yes"/>
			<point x="623.789" y="659"/>
			<point x="628.14" y="670"/>
			<point x="629.49" y="681" type="curve" smooth="yes"/>
			<point x="633.911" y="717" type="line"/>
			<point x="109.911" y="717" type="line"/>
			<point x="100.211" y="638" type="line"/>
			<point x="497.211" y="638" type="line"/>
			<point x="21.101" y="67" type="line" smooth="yes"/>
			<point x="12.996" y="58"/>
			<point x="8.768" y="48"/>
			<point x="7.54" y="38" type="curve" smooth="yes"/>
		</contour>
		<contour>
			<point x="463.504" y="54" type="line"/>
			<point x="548.574" y="79" type="line"/>
			<point x="559.747" y="170" type="line"/>
			<point x="513.747" y="170" type="line" smooth="yes"/>
			<point x="502.747" y="170"/>
			<point x="494.256" y="166"/>
			<point x="490.783" y="154" type="curve" smooth="yes"/>
		</contour>
		<contour>
			<point x="185.28" y="663" type="line"/>
			<point x="100.211" y="638" type="line"/>
			<point x="89.037" y="547" type="line"/>
			<point x="135.037" y="547" type="line" smooth="yes"/>
			<point x="146.037" y="547"/>
			<point x="154.528" y="551"/>
			<point x="158.002" y="563" type="curve" smooth="yes"/>
		</contour>
	</outline>
</glyph>
<glyph name="bracketleft" format="2">
	<advance width="323"/>
	<unicode hex="005B"/>
	<note>
		bracketleft
	</note>
	<outline>
		<contour>
			<point x="223.07" y="-145" type="line"/>
			<point x="227.368" y="-110" type="line" smooth="yes"/>
			<point x="229.332" y="-94"/>
			<point x="221.315" y="-86"/>
			<point x="206.315" y="-86" type="curve" smooth="yes"/>
			<point x="121.315" y="-86" type="line"/>
			<point x="218.806" y="708" type="line"/>
			<point x="303.806" y="708" type="line" smooth="yes"/>
			<point x="318.806" y="708"/>
			<point x="328.911" y="717"/>
			<point x="330.752" y="732" type="curve" smooth="yes"/>
			<point x="335.05" y="767" type="line"/>
			<point x="151.05" y="767" type="line"/>
			<point x="39.07" y="-145" type="line"/>
			<point x="223.07" y="-145" type="line"/>
		</contour>
	</outline>
</glyph>
<glyph name="backslash" format="2">
	<advance width="442"/>
	<unicode hex="005C"/>
	<note>
		backslash
	</note>
	<outline>
		<contour>
			<point x="294.523" y="-11" type="line"/>
			<point x="300.699" y="-34"/>
			<point x="320.349" y="-45"/>
			<point x="339.349" y="-45" type="curve" smooth="yes"/>
			<point x="377.349" y="-45" type="line"/>
			<point x="168.314" y="704" type="line" smooth="yes"/>
			<point x="162.893" y="725"/>
			<point x="148.366" y="737"/>
			<point x="125.366" y="737" type="curve" smooth="yes"/>
			<point x="87.366" y="737" type="line"/>
			<point x="294.523" y="-11" type="line"/>
		</contour>
	</outline>
</glyph>
<glyph name="bracketright" format="2">
	<advance width="323"/>
	<unicode hex="005D"/>
	<note>
		bracketright
	</note>
	<outline>
		<contour>
			<point x="2.07" y="-145" type="line"/>
			<point x="186.07" y="-145" type="line"/>
			<point x="298.05" y="767" type="line"/>
			<point x="114.05" y="767" type="line"/>
			<point x="109.752" y="732" type="line" smooth="yes"/>
			<point x="108.156" y="719"/>
			<point x="116.806" y="708"/>
			<point x="131.806" y="708" type="curve" smooth="yes"/>
			<point x="215.806" y="708" type="line"/>
			<point x="118.315" y="-86" type="line"/>
			<point x="34.315" y="-86" type="line" smooth="yes"/>
			<point x="19.315" y="-86"/>
			<point x="7.964" y="-97"/>
			<point x="6.368" y="-110" type="curve" smooth="yes"/>
		</contour>
	</outline>
</glyph>
<glyph name="asciicircum" format="2">
	<advance width="502"/>
	<unicode hex="005E"/>
	<note>
		asciicircum
	</note>
	<outline>
		<contour>
			<point x="60.251" y="394" type="line"/>
			<point x="128.251" y="394" type="line" smooth="yes"/>
			<point x="141.251" y="394"/>
			<point x="150.234" y="402"/>
			<point x="156.339" y="411" type="curve" smooth="yes"/>
			<point x="274.949" y="587" type="line" smooth="yes"/>
			<point x="283.668" y="601"/>
			<point x="291.387" y="615"/>
			<point x="298.228" y="630" type="curve"/>
			<point x="301.632" y="617"/>
			<point x="305.79" y="602"/>
			<point x="312.949" y="587" type="curve" smooth="yes"/>
			<point x="389.339" y="411" type="line" smooth="yes"/>
			<point x="393.234" y="402"/>
			<point x="400.251" y="394"/>
			<point x="411.251" y="394" type="curve" smooth="yes"/>
			<point x="476.251" y="394" type="line"/>
			<point x="336.911" y="717" type="line"/>
			<point x="278.911" y="717" type="line"/>
		</contour>
	</outline>
</glyph>
<glyph name="underscore" format="2">
	<advance width="394"/>
	<unicode hex="005F"/>
	<note>
		underscore
	</note>
	<outline>
		<contour>
			<point x="-41.317" y="-83" type="line"/>
			<point x="-48.684" y="-143" type="line"/>
			<point x="345.316" y="-143" type="line"/>
			<point x="352.683" y="-83" type="line"/>
			<point x="-41.317" y="-83" type="line"/>
		</contour>
	</outline>
</glyph>
<glyph name="grave" format="2">
	<advance width="279"/>
	<unicode hex="0060"/>
	<note>
		grave
	</note>
	<outline>
		<contour>
			<point x="97.893" y="725" type="line"/>
			<point x="199.054" y="596" type="line" smooth="yes"/>
			<point x="206.703" y="585"/>
			<point x="213.335" y="582"/>
			<point x="228.335" y="582" type="curve" smooth="yes"/>
			<point x="279.335" y="582" type="line"/>
			<point x="219.192" y="703" type="line" smooth="yes"/>
			<point x="212.033" y="718"/>
			<point x="203.893" y="725"/>
			<point x="182.893" y="725" type="curve" smooth="yes"/>
			<point x="97.893" y="725" type="line"/>
		</contour>
	</outline>
</glyph>
<glyph name="a" format="2">
	<advance width="571"/>
	<unicode hex="0061"/>
	<anchor x="449.874" y="0" name="ogonek"/>
	<anchor x="254.874" y="0" name="bottom"/>
	<anchor x="317.126" y="507" name="top"/>
	<note>
		a
	</note>
	<outline>
		<contour>
			<point x="194.015" y="-7" type="curve"/>
			<point x="266.015" y="-7"/>
			<point x="324.312" y="28"/>
			<point x="374.82" y="81" type="curve"/>
			<point x="375.207" y="19" type="line" smooth="yes"/>
			<point x="376.611" y="6"/>
			<point x="382.874" y="0"/>
			<point x="395.874" y="0" type="curve" smooth="yes"/>
			<point x="449.874" y="0" type="line"/>
			<point x="512.126" y="507" type="line"/>
			<point x="458.126" y="507" type="line" smooth="yes"/>
			<point x="445.126" y="507"/>
			<point x="437.389" y="501"/>
			<point x="432.793" y="488" type="curve" smooth="yes"/>
			<point x="422.004" y="449" type="line"/>
			<point x="391.284" y="492"/>
			<point x="350.231" y="516"/>
			<point x="285.231" y="516" type="curve" smooth="yes"/>
			<point x="148.231" y="516"/>
			<point x="51.865" y="399"/>
			<point x="33.816" y="252" type="curve" smooth="yes"/>
			<point x="14.539" y="95"/>
			<point x="70.015" y="-7"/>
		</contour>
		<contour>
			<point x="231.855" y="65" type="curve"/>
			<point x="142.855" y="65"/>
			<point x="110.836" y="130"/>
			<point x="125.816" y="252" type="curve" smooth="yes"/>
			<point x="141.041" y="376"/>
			<point x="201.636" y="446"/>
			<point x="296.636" y="446" type="curve" smooth="yes"/>
			<point x="344.636" y="446"/>
			<point x="380.794" y="431"/>
			<point x="407.392" y="387" type="curve"/>
			<point x="377.31" y="142" type="line"/>
			<point x="335.293" y="93"/>
			<point x="288.855" y="65"/>
		</contour>
		<contour>
			<point x="419.874" y="0" type="line"/>
			<point x="521.874" y="0" type="line"/>
			<point x="526.908" y="41" type="line" smooth="yes"/>
			<point x="528.382" y="53"/>
			<point x="524.241" y="60"/>
			<point x="513.487" y="62" type="curve" smooth="yes"/>
			<point x="440.451" y="78" type="line"/>
		</contour>
	</outline>
</glyph>
<glyph name="b" format="2">
	<advance width="558"/>
	<unicode hex="0062"/>
	<anchor x="346.716" y="805" name="top"/>
	<anchor x="247.874" y="0" name="bottom"/>
	<note>
		b
	</note>
	<outline>
		<contour>
			<point x="244.015" y="-7" type="curve" smooth="yes"/>
			<point x="421.015" y="-7"/>
			<point x="505.644" y="104"/>
			<point x="525.166" y="263" type="curve" smooth="yes"/>
			<point x="543.461" y="412"/>
			<point x="488.108" y="515"/>
			<point x="365.108" y="515" type="curve" smooth="yes"/>
			<point x="295.108" y="515"/>
			<point x="236.056" y="482"/>
			<point x="189.163" y="434" type="curve"/>
			<point x="226.366" y="737" type="line"/>
			<point x="137.366" y="737" type="line"/>
			<point x="49.33" y="20" type="line"/>
			<point x="117.12" y="2"/>
			<point x="180.015" y="-7"/>
		</contour>
		<contour>
			<point x="251.487" y="62" type="curve" smooth="yes"/>
			<point x="217.487" y="62"/>
			<point x="184.223" y="68"/>
			<point x="145.451" y="78" type="curve"/>
			<point x="180.936" y="367" type="line"/>
			<point x="222.952" y="416"/>
			<point x="269.39" y="444"/>
			<point x="326.39" y="444" type="curve" smooth="yes"/>
			<point x="414.39" y="444"/>
			<point x="447.532" y="380"/>
			<point x="432.798" y="260" type="curve" smooth="yes"/>
			<point x="416.345" y="126"/>
			<point x="357.487" y="62"/>
		</contour>
		<contour>
			<point x="167.366" y="737" type="line"/>
			<point x="65.366" y="737" type="line"/>
			<point x="60.332" y="696" type="line" smooth="yes"/>
			<point x="58.859" y="684"/>
			<point x="63" y="677"/>
			<point x="73.754" y="675" type="curve" smooth="yes"/>
			<point x="146.789" y="659" type="line"/>
		</contour>
	</outline>
</glyph>
<glyph name="c" format="2">
	<advance width="473"/>
	<unicode hex="0063"/>
	<anchor x="289.126" y="507" name="top"/>
	<anchor x="226.874" y="0" name="bottom"/>
	<note>
		c
	</note>
	<outline>
		<contour>
			<point x="226.015" y="-7" type="curve" smooth="yes"/>
			<point x="300.015" y="-7"/>
			<point x="372.084" y="18"/>
			<point x="422.592" y="71" type="curve"/>
			<point x="401.644" y="104" type="line" smooth="yes"/>
			<point x="398.258" y="109"/>
			<point x="392.626" y="112"/>
			<point x="385.626" y="112" type="curve" smooth="yes"/>
			<point x="366.626" y="112"/>
			<point x="326.487" y="62"/>
			<point x="249.487" y="62" type="curve" smooth="yes"/>
			<point x="154.487" y="62"/>
			<point x="111.818" y="138"/>
			<point x="126.061" y="254" type="curve" smooth="yes"/>
			<point x="140.304" y="370"/>
			<point x="199.513" y="445"/>
			<point x="301.513" y="445" type="curve" smooth="yes"/>
			<point x="338.513" y="445"/>
			<point x="366.531" y="437"/>
			<point x="392.426" y="428" type="curve"/>
			<point x="444.058" y="425" type="line"/>
			<point x="450.688" y="479" type="line"/>
			<point x="404.144" y="499"/>
			<point x="346.108" y="515"/>
			<point x="305.108" y="515" type="curve" smooth="yes"/>
			<point x="147.108" y="515"/>
			<point x="52.725" y="406"/>
			<point x="34.061" y="254" type="curve" smooth="yes"/>
			<point x="14.784" y="97"/>
			<point x="94.015" y="-7"/>
		</contour>
		<contour>
			<point x="381.654" y="438" type="line"/>
			<point x="382.445" y="363" type="line" smooth="yes"/>
			<point x="382.34" y="354"/>
			<point x="387.48" y="347"/>
			<point x="401.48" y="347" type="curve" smooth="yes"/>
			<point x="434.48" y="347" type="line"/>
			<point x="444.058" y="425" type="line"/>
			<point x="381.654" y="438" type="line"/>
		</contour>
	</outline>
</glyph>
<glyph name="d" format="2">
	<advance width="571"/>
	<unicode hex="0064"/>
	<anchor x="442.061" y="254" name="center"/>
	<anchor x="337.366" y="737" name="top"/>
	<anchor x="479.756" y="561" name="topright"/>
	<anchor x="246.874" y="0" name="bottom"/>
	<note>
		d
	</note>
	<outline>
		<contour>
			<point x="194.015" y="-7" type="curve" smooth="yes"/>
			<point x="266.015" y="-7"/>
			<point x="324.312" y="28"/>
			<point x="374.697" y="80" type="curve"/>
			<point x="375.207" y="19" type="line"/>
			<point x="376.611" y="6"/>
			<point x="383.874" y="0"/>
			<point x="396.874" y="0" type="curve" smooth="yes"/>
			<point x="449.874" y="0" type="line"/>
			<point x="540.366" y="737" type="line"/>
			<point x="451.366" y="737" type="line"/>
			<point x="416.864" y="456" type="line"/>
			<point x="386.407" y="493"/>
			<point x="348.231" y="516"/>
			<point x="285.231" y="516" type="curve" smooth="yes"/>
			<point x="148.231" y="516"/>
			<point x="51.865" y="399"/>
			<point x="33.816" y="252" type="curve" smooth="yes"/>
			<point x="14.539" y="95"/>
			<point x="70.015" y="-7"/>
		</contour>
		<contour>
			<point x="231.855" y="65" type="curve"/>
			<point x="142.855" y="65"/>
			<point x="110.836" y="130"/>
			<point x="125.816" y="252" type="curve" smooth="yes"/>
			<point x="141.041" y="376"/>
			<point x="201.636" y="446"/>
			<point x="296.636" y="446" type="curve" smooth="yes"/>
			<point x="344.636" y="446"/>
			<point x="380.794" y="431"/>
			<point x="408.392" y="387" type="curve"/>
			<point x="378.31" y="142" type="line"/>
			<point x="335.293" y="93"/>
			<point x="290.855" y="65"/>
		</contour>
		<contour>
			<point x="481.366" y="737" type="line"/>
			<point x="379.366" y="737" type="line"/>
			<point x="374.332" y="696" type="line" smooth="yes"/>
			<point x="372.859" y="684"/>
			<point x="377" y="677"/>
			<point x="387.754" y="675" type="curve" smooth="yes"/>
			<point x="460.789" y="659" type="line"/>
		</contour>
		<contour>
			<point x="419.874" y="0" type="line"/>
			<point x="521.874" y="0" type="line"/>
			<point x="526.908" y="41" type="line" smooth="yes"/>
			<point x="528.382" y="53"/>
			<point x="524.241" y="60"/>
			<point x="513.487" y="62" type="curve" smooth="yes"/>
			<point x="440.451" y="78" type="line"/>
		</contour>
	</outline>
</glyph>
<glyph name="e" format="2">
	<advance width="482.44"/>
	<unicode hex="0065"/>
	<anchor x="223.86" y="0" name="ogonek"/>
	<anchor x="216.86" y="0" name="bottom"/>
	<anchor x="283.86" y="507" name="top"/>
	<note>
		e
	</note>
	<outline>
		<contour>
			<point x="216.86" y="-7" type="curve" smooth="yes"/>
			<point x="299.86" y="-7"/>
			<point x="366.86" y="27"/>
			<point x="428.86" y="94" type="curve"/>
			<point x="406.86" y="121" type="line" smooth="yes"/>
			<point x="401.86" y="127"/>
			<point x="396.86" y="130"/>
			<point x="389.86" y="130" type="curve" smooth="yes"/>
			<point x="374.86" y="130"/>
			<point x="353.86" y="110"/>
			<point x="336.86" y="97" type="curve" smooth="yes"/>
			<point x="312.86" y="79"/>
			<point x="276.86" y="63"/>
			<point x="233.86" y="63" type="curve" smooth="yes"/>
			<point x="154.86" y="63"/>
			<point x="116.86" y="112"/>
			<point x="116.86" y="201" type="curve" smooth="yes"/>
			<point x="116.86" y="200"/>
			<point x="116.86" y="215"/>
			<point x="116.86" y="222" type="curve"/>
			<point x="248.86" y="235"/>
			<point x="329.86" y="258"/>
			<point x="377.86" y="288" type="curve" smooth="yes"/>
			<point x="425.86" y="318"/>
			<point x="440.86" y="354"/>
			<point x="440.86" y="398" type="curve" smooth="yes"/>
			<point x="440.86" y="458"/>
			<point x="385.86" y="514"/>
			<point x="292.86" y="514" type="curve" smooth="yes"/>
			<point x="239.86" y="514"/>
			<point x="191.86" y="496"/>
			<point x="152.86" y="467" type="curve" smooth="yes"/>
			<point x="133.86" y="452"/>
			<point x="115.86" y="435"/>
			<point x="100.86" y="415" type="curve" smooth="yes"/>
			<point x="69.86" y="375"/>
			<point x="49.86" y="328"/>
			<point x="38.86" y="277" type="curve" smooth="yes"/>
			<point x="32.86" y="251"/>
			<point x="29.86" y="225"/>
			<point x="29.86" y="199" type="curve" smooth="yes"/>
			<point x="29.86" y="75"/>
			<point x="99.86" y="-7"/>
		</contour>
		<contour>
			<point x="125.86" y="281" type="curve"/>
			<point x="146.86" y="374"/>
			<point x="203.86" y="450"/>
			<point x="287.86" y="450" type="curve" smooth="yes"/>
			<point x="334.86" y="450"/>
			<point x="361.86" y="423"/>
			<point x="361.86" y="395" type="curve" smooth="yes"/>
			<point x="361.86" y="371"/>
			<point x="353.86" y="349"/>
			<point x="320.86" y="330" type="curve" smooth="yes"/>
			<point x="287.86" y="310"/>
			<point x="228.86" y="294"/>
		</contour>
	</outline>
</glyph>
<glyph name="f" format="2">
	<advance width="371"/>
	<unicode hex="0066"/>
	<anchor x="243.366" y="737" name="top"/>
	<anchor x="102.755" y="-172" name="bottom"/>
	<note>
		f
	</note>
	<outline>
		<contour>
			<point x="76.874" y="0" type="line"/>
			<point x="166.874" y="0" type="line"/>
			<point x="219.917" y="432" type="line"/>
			<point x="362.917" y="432" type="line"/>
			<point x="370.898" y="497" type="line"/>
			<point x="224.898" y="497" type="line"/>
			<point x="230.546" y="543" type="line" smooth="yes"/>
			<point x="240.492" y="624"/>
			<point x="279.789" y="659"/>
			<point x="346.789" y="659" type="curve" smooth="yes"/>
			<point x="353.789" y="659"/>
			<point x="358.789" y="659"/>
			<point x="375.789" y="659" type="curve" smooth="yes"/>
			<point x="384.789" y="659"/>
			<point x="392.035" y="661"/>
			<point x="394.508" y="673" type="curve" smooth="yes"/>
			<point x="401.911" y="717" type="line"/>
			<point x="383.77" y="724"/>
			<point x="363.138" y="727"/>
			<point x="340.138" y="727" type="curve" smooth="yes"/>
			<point x="233.138" y="727"/>
			<point x="157.912" y="660"/>
			<point x="143.914" y="546" type="curve" smooth="yes"/>
			<point x="137.898" y="497" type="line"/>
			<point x="57.898" y="497" type="line"/>
			<point x="53.355" y="460" type="line" smooth="yes"/>
			<point x="51.759" y="447"/>
			<point x="62.022" y="441"/>
			<point x="74.531" y="437" type="curve"/>
			<point x="129.794" y="431" type="line"/>
		</contour>
		<contour>
			<point x="0.527" y="-182" type="curve" smooth="yes"/>
			<point x="85.527" y="-182"/>
			<point x="149.684" y="-140"/>
			<point x="163.068" y="-31" type="curve" smooth="yes"/>
			<point x="208.253" y="337" type="line"/>
			<point x="118.253" y="337" type="line"/>
			<point x="73.436" y="-28" type="line" smooth="yes"/>
			<point x="64.596" y="-100"/>
			<point x="41.754" y="-115"/>
			<point x="-0.246" y="-115" type="curve" smooth="yes"/>
			<point x="-36.246" y="-115"/>
			<point x="-41.264" y="-107"/>
			<point x="-45.965" y="-129" type="curve" smooth="yes"/>
			<point x="-55.245" y="-172" type="line"/>
			<point x="-41.859" y="-177"/>
			<point x="-27.473" y="-182"/>
		</contour>
	</outline>
</glyph>
<glyph name="g" format="2">
	<advance width="542.68"/>
	<unicode hex="0067"/>
	<anchor x="291.89" y="507" name="top"/>
	<anchor x="217.89" y="-183" name="bottom"/>
	<note>
		g
	</note>
	<outline>
		<contour>
			<point x="200.89" y="-182" type="curve" smooth="yes"/>
			<point x="336.89" y="-182"/>
			<point x="436.89" y="-108"/>
			<point x="436.89" y="-6" type="curve" smooth="yes"/>
			<point x="436.89" y="30"/>
			<point x="421.89" y="59"/>
			<point x="404.89" y="84" type="curve" smooth="yes"/>
			<point x="387.89" y="107"/>
			<point x="371.89" y="132"/>
			<point x="371.89" y="158" type="curve" smooth="yes"/>
			<point x="371.89" y="192"/>
			<point x="390.89" y="224"/>
			<point x="409.89" y="252" type="curve" smooth="yes"/>
			<point x="428.89" y="281"/>
			<point x="448.89" y="322"/>
			<point x="448.89" y="366" type="curve" smooth="yes"/>
			<point x="448.89" y="387"/>
			<point x="445.89" y="407"/>
			<point x="438.89" y="424" type="curve"/>
			<point x="502.89" y="435" type="line" smooth="yes"/>
			<point x="512.89" y="437"/>
			<point x="521.89" y="447"/>
			<point x="522.89" y="459" type="curve" smooth="yes"/>
			<point x="525.89" y="488" type="line"/>
			<point x="388.89" y="488" type="line"/>
			<point x="363.89" y="505"/>
			<point x="329.89" y="514"/>
			<point x="293.89" y="514" type="curve" smooth="yes"/>
			<point x="170.89" y="514"/>
			<point x="91.89" y="424"/>
			<point x="91.89" y="321" type="curve" smooth="yes"/>
			<point x="91.89" y="228"/>
			<point x="150.89" y="173"/>
			<point x="231.89" y="173" type="curve" smooth="yes"/>
			<point x="271.89" y="173"/>
			<point x="302.89" y="183"/>
			<point x="327.89" y="200" type="curve"/>
			<point x="312.89" y="172"/>
			<point x="306.89" y="151"/>
			<point x="306.89" y="131" type="curve" smooth="yes"/>
			<point x="306.89" y="115"/>
			<point x="311.89" y="101"/>
			<point x="316.89" y="89" type="curve"/>
			<point x="177.89" y="109"/>
			<point x="7.89" y="69"/>
			<point x="7.89" y="-57" type="curve" smooth="yes"/>
			<point x="7.89" y="-136"/>
			<point x="91.89" y="-182"/>
		</contour>
		<contour>
			<point x="208.89" y="-120" type="curve" smooth="yes"/>
			<point x="133.89" y="-120"/>
			<point x="92.89" y="-94"/>
			<point x="92.89" y="-46" type="curve" smooth="yes"/>
			<point x="92.89" y="28"/>
			<point x="196.89" y="57"/>
			<point x="346.89" y="34" type="curve"/>
			<point x="351.89" y="21"/>
			<point x="355.89" y="6"/>
			<point x="355.89" y="-13" type="curve" smooth="yes"/>
			<point x="355.89" y="-73"/>
			<point x="290.89" y="-120"/>
		</contour>
		<contour>
			<point x="255.89" y="229" type="curve"/>
			<point x="203.89" y="229"/>
			<point x="172.89" y="261"/>
			<point x="172.89" y="321" type="curve" smooth="yes"/>
			<point x="172.89" y="390"/>
			<point x="214.89" y="452"/>
			<point x="283.89" y="452" type="curve" smooth="yes"/>
			<point x="335.89" y="452"/>
			<point x="367.89" y="422"/>
			<point x="367.89" y="363" type="curve" smooth="yes"/>
			<point x="367.89" y="295"/>
			<point x="324.89" y="229"/>
		</contour>
	</outline>
</glyph>
<glyph name="h" format="2">
	<advance width="607"/>
	<unicode hex="0068"/>
	<anchor x="229.089" y="580" name="center"/>
	<anchor x="272.874" y="0" name="bottom"/>
	<anchor x="363.366" y="737" name="top"/>
	<note>
		h
	</note>
	<outline>
		<contour>
			<point x="68.874" y="0" type="line"/>
			<point x="157.874" y="0" type="line"/>
			<point x="203.673" y="373" type="line"/>
			<point x="247.742" y="417"/>
			<point x="297.39" y="444"/>
			<point x="349.39" y="444" type="curve" smooth="yes"/>
			<point x="421.39" y="444"/>
			<point x="450.865" y="399"/>
			<point x="441.534" y="323" type="curve" smooth="yes"/>
			<point x="401.874" y="0" type="line"/>
			<point x="490.874" y="0" type="line"/>
			<point x="530.534" y="323" type="line" smooth="yes"/>
			<point x="544.534" y="437.021"/>
			<point x="495.328" y="515"/>
			<point x="384.108" y="515" type="curve" smooth="yes"/>
			<point x="316.108" y="515"/>
			<point x="261.343" y="484.333"/>
			<point x="211.777" y="439" type="curve"/>
			<point x="248.366" y="737" type="line"/>
			<point x="159.366" y="737" type="line"/>
		</contour>
		<contour>
			<point x="460.874" y="0" type="line"/>
			<point x="562.874" y="0" type="line"/>
			<point x="567.908" y="41" type="line" smooth="yes"/>
			<point x="569.382" y="53"/>
			<point x="565.241" y="60"/>
			<point x="554.487" y="62" type="curve" smooth="yes"/>
			<point x="481.451" y="78" type="line"/>
		</contour>
		<contour>
			<point x="189.366" y="737" type="line"/>
			<point x="87.366" y="737" type="line"/>
			<point x="82.332" y="696" type="line" smooth="yes"/>
			<point x="80.859" y="684"/>
			<point x="85" y="677"/>
			<point x="95.754" y="675" type="curve" smooth="yes"/>
			<point x="168.789" y="659" type="line"/>
		</contour>
	</outline>
</glyph>
<glyph name="i" format="2">
	<advance width="274"/>
	<unicode hex="0069"/>
	<anchor x="110.12" y="2" name="ogonek"/>
	<anchor x="113.874" y="0" name="bottom"/>
	<anchor x="176.126" y="507" name="top"/>
	<note>
		i
	</note>
	<outline>
		<contour>
			<point x="68.874" y="0" type="line"/>
			<point x="157.874" y="0" type="line"/>
			<point x="220.126" y="507" type="line"/>
			<point x="131.126" y="507" type="line"/>
		</contour>
		<contour>
			<point x="127.874" y="0" type="line"/>
			<point x="229.874" y="0" type="line"/>
			<point x="234.908" y="41" type="line" smooth="yes"/>
			<point x="236.382" y="53"/>
			<point x="232.241" y="60"/>
			<point x="221.487" y="62" type="curve" smooth="yes"/>
			<point x="148.451" y="78" type="line"/>
		</contour>
		<contour>
			<point x="161.126" y="507" type="line"/>
			<point x="59.126" y="507" type="line"/>
			<point x="54.092" y="466" type="line" smooth="yes"/>
			<point x="52.618" y="454"/>
			<point x="56.759" y="447"/>
			<point x="67.513" y="445" type="curve" smooth="yes"/>
			<point x="140.549" y="429" type="line"/>
		</contour>
		<contour>
			<point x="185.913" y="603" type="curve" smooth="yes"/>
			<point x="220.913" y="603"/>
			<point x="253.474" y="632"/>
			<point x="257.649" y="666" type="curve" smooth="yes"/>
			<point x="261.946" y="701"/>
			<point x="236.507" y="730"/>
			<point x="201.507" y="730" type="curve" smooth="yes"/>
			<point x="167.507" y="730"/>
			<point x="134.823" y="700"/>
			<point x="130.649" y="666" type="curve" smooth="yes"/>
			<point x="126.474" y="632"/>
			<point x="151.913" y="603"/>
		</contour>
	</outline>
</glyph>
<glyph name="j" format="2">
	<advance width="265"/>
	<unicode hex="006A"/>
	<anchor x="177.126" y="507" name="top"/>
	<note>
		j
	</note>
	<outline>
		<contour>
			<point x="-6.473" y="-182" type="curve" smooth="yes"/>
			<point x="78.527" y="-182"/>
			<point x="141.684" y="-140"/>
			<point x="155.068" y="-31" type="curve" smooth="yes"/>
			<point x="221.126" y="507" type="line"/>
			<point x="132.126" y="507" type="line"/>
			<point x="66.436" y="-28" type="line" smooth="yes"/>
			<point x="57.596" y="-100"/>
			<point x="34.754" y="-115"/>
			<point x="-7.246" y="-115" type="curve" smooth="yes"/>
			<point x="-43.246" y="-115"/>
			<point x="-48.264" y="-107"/>
			<point x="-52.965" y="-129" type="curve" smooth="yes"/>
			<point x="-62.245" y="-172" type="line"/>
			<point x="-48.859" y="-177"/>
			<point x="-34.473" y="-182"/>
		</contour>
		<contour>
			<point x="162.126" y="507" type="line"/>
			<point x="60.126" y="507" type="line"/>
			<point x="55.092" y="466" type="line" smooth="yes"/>
			<point x="53.618" y="454"/>
			<point x="57.759" y="447"/>
			<point x="68.513" y="445" type="curve" smooth="yes"/>
			<point x="141.549" y="429" type="line"/>
		</contour>
		<contour>
			<point x="186.913" y="603" type="curve" smooth="yes"/>
			<point x="221.913" y="603"/>
			<point x="254.474" y="632"/>
			<point x="258.649" y="666" type="curve" smooth="yes"/>
			<point x="262.946" y="701"/>
			<point x="237.507" y="730"/>
			<point x="202.507" y="730" type="curve" smooth="yes"/>
			<point x="168.507" y="730"/>
			<point x="135.823" y="700"/>
			<point x="131.649" y="666" type="curve" smooth="yes"/>
			<point x="127.474" y="632"/>
			<point x="152.913" y="603"/>
		</contour>
	</outline>
</glyph>
<glyph name="k" format="2">
	<advance width="583"/>
	<unicode hex="006B"/>
	<anchor x="344.366" y="737" name="top"/>
	<anchor x="253.874" y="0" name="bottom"/>
	<note>
		k
	</note>
	<outline>
		<contour>
			<point x="68.874" y="0" type="line"/>
			<point x="157.874" y="0" type="line"/>
			<point x="187.588" y="242" type="line"/>
			<point x="212.588" y="242" type="line" smooth="yes"/>
			<point x="232.588" y="242"/>
			<point x="240.342" y="240"/>
			<point x="247.501" y="225" type="curve"/>
			<point x="389.084" y="18" type="line" smooth="yes"/>
			<point x="397.611" y="6"/>
			<point x="404.874" y="0"/>
			<point x="419.874" y="0" type="curve" smooth="yes"/>
			<point x="499.874" y="0" type="line"/>
			<point x="332.57" y="250" type="line"/>
			<point x="326.166" y="263"/>
			<point x="317.517" y="274"/>
			<point x="306.499" y="282" type="curve"/>
			<point x="319.359" y="289"/>
			<point x="327.464" y="298"/>
			<point x="338.692" y="308" type="curve" smooth="yes"/>
			<point x="550.126" y="507" type="line"/>
			<point x="469.126" y="507" type="line" smooth="yes"/>
			<point x="452.126" y="507"/>
			<point x="443.144" y="499"/>
			<point x="431.916" y="489" type="curve" smooth="yes"/>
			<point x="250.797" y="317" type="line" smooth="yes"/>
			<point x="239.446" y="306"/>
			<point x="231.078" y="303"/>
			<point x="218.078" y="303" type="curve" smooth="yes"/>
			<point x="195.078" y="303" type="line"/>
			<point x="248.366" y="737" type="line"/>
			<point x="159.366" y="737" type="line"/>
		</contour>
		<contour>
			<point x="437.18" y="426" type="line"/>
			<point x="451.549" y="429" type="line"/>
			<point x="542.126" y="507" type="line"/>
			<point x="426.126" y="507" type="line"/>
			<point x="420.232" y="459" type="line"/>
		</contour>
		<contour>
			<point x="419.874" y="0" type="line"/>
			<point x="440.451" y="78" type="line"/>
			<point x="383.048" y="91" type="line"/>
		</contour>
		<contour>
			<point x="189.366" y="737" type="line"/>
			<point x="87.366" y="737" type="line"/>
			<point x="82.332" y="696" type="line" smooth="yes"/>
			<point x="80.859" y="684"/>
			<point x="85" y="677"/>
			<point x="95.754" y="675" type="curve" smooth="yes"/>
			<point x="168.789" y="659" type="line"/>
		</contour>
		<contour>
			<point x="552.126" y="507" type="line"/>
			<point x="450.126" y="507" type="line"/>
			<point x="451.549" y="429" type="line"/>
			<point x="528.513" y="445" type="line" smooth="yes"/>
			<point x="539.759" y="447"/>
			<point x="545.618" y="454"/>
			<point x="547.092" y="466" type="curve" smooth="yes"/>
		</contour>
		<contour>
			<point x="449.126" y="507" type="line"/>
			<point x="347.126" y="507" type="line"/>
			<point x="342.092" y="466" type="line" smooth="yes"/>
			<point x="340.618" y="454"/>
			<point x="344.759" y="447"/>
			<point x="355.513" y="445" type="curve" smooth="yes"/>
			<point x="428.549" y="429" type="line"/>
		</contour>
		<contour>
			<point x="419.874" y="0" type="line"/>
			<point x="521.874" y="0" type="line"/>
			<point x="526.908" y="41" type="line" smooth="yes"/>
			<point x="528.382" y="53"/>
			<point x="524.241" y="60"/>
			<point x="513.487" y="62" type="curve" smooth="yes"/>
			<point x="440.451" y="78" type="line"/>
		</contour>
	</outline>
</glyph>
<glyph name="l" format="2">
	<advance width="279"/>
	<unicode hex="006C"/>
	<anchor x="163.356" y="403" name="center"/>
	<anchor x="204.366" y="737" name="top"/>
	<anchor x="312.366" y="737" name="topright"/>
	<anchor x="113.874" y="0" name="bottom"/>
	<note>
		l
	</note>
	<outline>
		<contour>
			<point x="68.874" y="0" type="line"/>
			<point x="157.874" y="0" type="line"/>
			<point x="248.366" y="737" type="line"/>
			<point x="159.366" y="737" type="line"/>
		</contour>
		<contour>
			<point x="127.874" y="0" type="line"/>
			<point x="229.874" y="0" type="line"/>
			<point x="234.908" y="41" type="line" smooth="yes"/>
			<point x="236.382" y="53"/>
			<point x="232.241" y="60"/>
			<point x="221.487" y="62" type="curve" smooth="yes"/>
			<point x="148.451" y="78" type="line"/>
		</contour>
		<contour>
			<point x="189.366" y="737" type="line"/>
			<point x="87.366" y="737" type="line"/>
			<point x="82.332" y="696" type="line" smooth="yes"/>
			<point x="80.859" y="684"/>
			<point x="85" y="677"/>
			<point x="95.754" y="675" type="curve" smooth="yes"/>
			<point x="168.789" y="659" type="line"/>
		</contour>
	</outline>
</glyph>
<glyph name="m" format="2">
	<advance width="872"/>
	<unicode hex="006D"/>
	<anchor x="467.126" y="507" name="top"/>
	<anchor x="404.874" y="0" name="bottom"/>
	<note>
		m
	</note>
	<outline>
		<contour>
			<point x="68.874" y="0" type="line"/>
			<point x="157.874" y="0" type="line"/>
			<point x="204.287" y="378" type="line"/>
			<point x="241.198" y="418"/>
			<point x="281.39" y="444"/>
			<point x="325.39" y="444" type="curve" smooth="yes"/>
			<point x="388.39" y="444"/>
			<point x="416.479" y="404"/>
			<point x="406.534" y="323" type="curve" smooth="yes"/>
			<point x="366.874" y="0" type="line"/>
			<point x="455.874" y="0" type="line"/>
			<point x="495.534" y="323" type="line" smooth="yes"/>
			<point x="504.62" y="397"/>
			<point x="558.39" y="444"/>
			<point x="619.39" y="444" type="curve" smooth="yes"/>
			<point x="686.39" y="444"/>
			<point x="716.234" y="402"/>
			<point x="706.534" y="323" type="curve" smooth="yes"/>
			<point x="666.874" y="0" type="line"/>
			<point x="755.874" y="0" type="line"/>
			<point x="795.534" y="323" type="line" smooth="yes"/>
			<point x="810.022" y="441"/>
			<point x="758.108" y="515"/>
			<point x="650.108" y="515" type="curve" smooth="yes"/>
			<point x="580.108" y="515"/>
			<point x="511.933" y="481"/>
			<point x="475.093" y="409" type="curve"/>
			<point x="464.074" y="474"/>
			<point x="428.108" y="515"/>
			<point x="359.108" y="515" type="curve" smooth="yes"/>
			<point x="298.108" y="515"/>
			<point x="249.179" y="483"/>
			<point x="206.408" y="436" type="curve"/>
			<point x="205.793" y="488" type="line"/>
			<point x="204.389" y="501"/>
			<point x="197.126" y="507"/>
			<point x="184.126" y="507" type="curve" smooth="yes"/>
			<point x="131.126" y="507" type="line"/>
		</contour>
		<contour>
			<point x="161.126" y="507" type="line"/>
			<point x="59.126" y="507" type="line"/>
			<point x="54.092" y="466" type="line" smooth="yes"/>
			<point x="52.618" y="454"/>
			<point x="56.759" y="447"/>
			<point x="67.513" y="445" type="curve" smooth="yes"/>
			<point x="140.549" y="429" type="line"/>
		</contour>
		<contour>
			<point x="725.874" y="0" type="line"/>
			<point x="827.874" y="0" type="line"/>
			<point x="832.908" y="41" type="line" smooth="yes"/>
			<point x="834.382" y="53"/>
			<point x="830.241" y="60"/>
			<point x="819.487" y="62" type="curve" smooth="yes"/>
			<point x="746.451" y="78" type="line"/>
		</contour>
	</outline>
</glyph>
<glyph name="n" format="2">
	<advance width="607"/>
	<unicode hex="006E"/>
	<anchor x="338.003" y="506" name="top"/>
	<anchor x="275.874" y="0" name="bottom"/>
	<note>
		n
	</note>
	<outline>
		<contour>
			<point x="68.874" y="0" type="line"/>
			<point x="157.874" y="0" type="line"/>
			<point x="203.673" y="373" type="line"/>
			<point x="247.742" y="417"/>
			<point x="297.39" y="444"/>
			<point x="349.39" y="444" type="curve" smooth="yes"/>
			<point x="421.39" y="444"/>
			<point x="450.865" y="399"/>
			<point x="441.534" y="323" type="curve" smooth="yes"/>
			<point x="401.874" y="0" type="line"/>
			<point x="490.874" y="0" type="line"/>
			<point x="530.534" y="323" type="line" smooth="yes"/>
			<point x="544.534" y="437.021"/>
			<point x="495.328" y="515"/>
			<point x="384.108" y="515" type="curve" smooth="yes"/>
			<point x="313.441" y="515"/>
			<point x="256.097" y="482.333"/>
			<point x="206.04" y="433" type="curve"/>
			<point x="205.793" y="488" type="line"/>
			<point x="204.015" y="500.667"/>
			<point x="196.793" y="507"/>
			<point x="184.126" y="507" type="curve" smooth="yes"/>
			<point x="131.126" y="507" type="line"/>
		</contour>
		<contour>
			<point x="460.874" y="0" type="line"/>
			<point x="562.874" y="0" type="line"/>
			<point x="567.908" y="41" type="line" smooth="yes"/>
			<point x="569.382" y="53"/>
			<point x="565.241" y="60"/>
			<point x="554.487" y="62" type="curve" smooth="yes"/>
			<point x="481.451" y="78" type="line"/>
		</contour>
		<contour>
			<point x="161.126" y="507" type="line"/>
			<point x="59.126" y="507" type="line"/>
			<point x="54.092" y="466" type="line" smooth="yes"/>
			<point x="52.618" y="454"/>
			<point x="56.759" y="447"/>
			<point x="67.513" y="445" type="curve" smooth="yes"/>
			<point x="140.549" y="429" type="line"/>
		</contour>
	</outline>
</glyph>
<glyph name="o" format="2">
	<advance width="551"/>
	<unicode hex="006F"/>
	<anchor x="276.061" y="254" name="center"/>
	<anchor x="250.874" y="0" name="ogonek"/>
	<anchor x="307.126" y="507" name="top"/>
	<anchor x="562.126" y="507" name="topright"/>
	<anchor x="244.874" y="0" name="bottom"/>
	<note>
		o
	</note>
	<outline>
		<contour>
			<point x="308.108" y="515" type="curve"/>
			<point x="308.108" y="515" type="line"/>
			<point x="159.108" y="515"/>
			<point x="53.216" y="410"/>
			<point x="34.061" y="254" type="curve" smooth="yes"/>
			<point x="14.784" y="97"/>
			<point x="95.015" y="-7"/>
			<point x="244.015" y="-7" type="curve" smooth="yes"/>
			<point x="395.015" y="-7"/>
			<point x="497.784" y="97"/>
			<point x="517.061" y="254" type="curve" smooth="yes"/>
			<point x="536.216" y="410"/>
			<point x="459.108" y="515"/>
		</contour>
		<contour>
			<point x="252.61" y="63" type="curve"/>
			<point x="150.61" y="63"/>
			<point x="111.696" y="137"/>
			<point x="125.939" y="253" type="curve" smooth="yes"/>
			<point x="140.427" y="371"/>
			<point x="196.513" y="445"/>
			<point x="299.513" y="445" type="curve" smooth="yes"/>
			<point x="399.513" y="445"/>
			<point x="439.796" y="374"/>
			<point x="424.939" y="253" type="curve" smooth="yes"/>
			<point x="410.204" y="133"/>
			<point x="352.61" y="63"/>
		</contour>
	</outline>
</glyph>
<glyph name="p" format="2">
	<advance width="581"/>
	<unicode hex="0070"/>
	<anchor x="334.126" y="507" name="top"/>
	<anchor x="271.874" y="0" name="bottom"/>
	<note>
		p
	</note>
	<outline>
		<contour>
			<point x="47.755" y="-172" type="line"/>
			<point x="136.755" y="-172" type="line"/>
			<point x="164.382" y="53" type="line"/>
			<point x="194.593" y="14"/>
			<point x="233.015" y="-7"/>
			<point x="296.015" y="-7" type="curve" smooth="yes"/>
			<point x="434.015" y="-7"/>
			<point x="529.38" y="110"/>
			<point x="547.43" y="257" type="curve" smooth="yes"/>
			<point x="566.707" y="414"/>
			<point x="511.231" y="516"/>
			<point x="387.231" y="516" type="curve" smooth="yes"/>
			<point x="315.231" y="516"/>
			<point x="255.933" y="481"/>
			<point x="206.426" y="428" type="curve"/>
			<point x="205.793" y="488" type="line"/>
			<point x="204.389" y="501"/>
			<point x="197.126" y="507"/>
			<point x="184.126" y="507" type="curve" smooth="yes"/>
			<point x="131.126" y="507" type="line"/>
		</contour>
		<contour>
			<point x="284.487" y="62" type="curve" smooth="yes"/>
			<point x="236.487" y="62"/>
			<point x="200.451" y="78"/>
			<point x="172.854" y="122" type="curve"/>
			<point x="202.936" y="367" type="line"/>
			<point x="245.952" y="416"/>
			<point x="290.39" y="444"/>
			<point x="349.39" y="444" type="curve" smooth="yes"/>
			<point x="436.39" y="444"/>
			<point x="470.409" y="379"/>
			<point x="455.43" y="257" type="curve" smooth="yes"/>
			<point x="440.082" y="132"/>
			<point x="379.487" y="62"/>
		</contour>
		<contour>
			<point x="161.126" y="507" type="line"/>
			<point x="59.126" y="507" type="line"/>
			<point x="54.092" y="466" type="line" smooth="yes"/>
			<point x="52.618" y="454"/>
			<point x="56.759" y="447"/>
			<point x="67.513" y="445" type="curve" smooth="yes"/>
			<point x="140.549" y="429" type="line"/>
		</contour>
		<contour>
			<point x="-24.245" y="-172" type="line"/>
			<point x="77.755" y="-172" type="line"/>
			<point x="76.332" y="-94" type="line"/>
			<point x="-0.632" y="-110" type="line" smooth="yes"/>
			<point x="-11.878" y="-112"/>
			<point x="-17.737" y="-119"/>
			<point x="-19.211" y="-131" type="curve" smooth="yes"/>
		</contour>
		<contour>
			<point x="106.755" y="-172" type="line"/>
			<point x="208.755" y="-172" type="line"/>
			<point x="213.789" y="-131" type="line" smooth="yes"/>
			<point x="215.263" y="-119"/>
			<point x="211.122" y="-112"/>
			<point x="200.368" y="-110" type="curve" smooth="yes"/>
			<point x="127.332" y="-94" type="line"/>
		</contour>
	</outline>
</glyph>
<glyph name="q" format="2">
	<advance width="554"/>
	<unicode hex="0071"/>
	<note>
		q
	</note>
	<outline>
		<contour>
			<point x="337.755" y="-172" type="line"/>
			<point x="426.755" y="-172" type="line"/>
			<point x="509.039" y="490" type="line"/>
			<point x="441.249" y="508"/>
			<point x="378.354" y="517"/>
			<point x="314.354" y="517" type="curve" smooth="yes"/>
			<point x="137.354" y="517"/>
			<point x="52.725" y="406"/>
			<point x="33.079" y="246" type="curve" smooth="yes"/>
			<point x="14.907" y="98"/>
			<point x="70.137" y="-6"/>
			<point x="193.137" y="-6" type="curve" smooth="yes"/>
			<point x="263.137" y="-6"/>
			<point x="322.189" y="27"/>
			<point x="369.083" y="75" type="curve"/>
		</contour>
		<contour>
			<point x="231.855" y="65" type="curve" smooth="yes"/>
			<point x="143.855" y="65"/>
			<point x="110.713" y="129"/>
			<point x="125.447" y="249" type="curve" smooth="yes"/>
			<point x="142.023" y="384"/>
			<point x="200.882" y="448"/>
			<point x="306.882" y="448" type="curve" smooth="yes"/>
			<point x="340.882" y="448"/>
			<point x="374.145" y="442"/>
			<point x="412.917" y="432" type="curve"/>
			<point x="377.31" y="142" type="line"/>
			<point x="335.293" y="93"/>
			<point x="288.855" y="65"/>
		</contour>
		<contour>
			<point x="255.755" y="-172" type="line"/>
			<point x="357.755" y="-172" type="line"/>
			<point x="356.332" y="-94" type="line"/>
			<point x="279.368" y="-110" type="line" smooth="yes"/>
			<point x="268.122" y="-112"/>
			<point x="262.263" y="-119"/>
			<point x="260.789" y="-131" type="curve" smooth="yes"/>
		</contour>
		<contour>
			<point x="386.755" y="-172" type="line"/>
			<point x="488.755" y="-172" type="line"/>
			<point x="493.789" y="-131" type="line" smooth="yes"/>
			<point x="495.263" y="-119"/>
			<point x="491.122" y="-112"/>
			<point x="480.368" y="-110" type="curve" smooth="yes"/>
			<point x="407.332" y="-94" type="line"/>
		</contour>
	</outline>
</glyph>
<glyph name="r" format="2">
	<advance width="422"/>
	<unicode hex="0072"/>
	<anchor x="260.126" y="507" name="top"/>
	<anchor x="115.874" y="0" name="bottom"/>
	<note>
		r
	</note>
	<outline>
		<contour>
			<point x="68.874" y="0" type="line"/>
			<point x="157.874" y="0" type="line"/>
			<point x="197.534" y="323" type="line"/>
			<point x="233.883" y="391"/>
			<point x="279.426" y="428"/>
			<point x="340.426" y="428" type="curve" smooth="yes"/>
			<point x="360.426" y="428"/>
			<point x="391.321" y="419"/>
			<point x="401.321" y="419" type="curve" smooth="yes"/>
			<point x="409.321" y="419"/>
			<point x="416.812" y="423"/>
			<point x="418.794" y="431" type="curve" smooth="yes"/>
			<point x="438.021" y="498" type="line"/>
			<point x="420.371" y="509"/>
			<point x="399.231" y="516"/>
			<point x="371.231" y="516" type="curve" smooth="yes"/>
			<point x="302.231" y="516"/>
			<point x="247.074" y="474"/>
			<point x="203.356" y="403" type="curve"/>
			<point x="207.056" y="482" type="line" smooth="yes"/>
			<point x="208.389" y="501"/>
			<point x="202.126" y="507"/>
			<point x="182.126" y="507" type="curve" smooth="yes"/>
			<point x="131.126" y="507" type="line"/>
		</contour>
		<contour>
			<point x="161.126" y="507" type="line"/>
			<point x="59.126" y="507" type="line"/>
			<point x="54.092" y="466" type="line" smooth="yes"/>
			<point x="52.618" y="454"/>
			<point x="56.759" y="447"/>
			<point x="67.513" y="445" type="curve" smooth="yes"/>
			<point x="140.549" y="429" type="line"/>
		</contour>
	</outline>
</glyph>
<glyph name="t" format="2">
	<advance width="363"/>
	<unicode hex="0074"/>
	<anchor x="189.306" y="313" name="center"/>
	<anchor x="206.263" y="671" name="top"/>
	<anchor x="374.126" y="507" name="topright"/>
	<anchor x="186.874" y="0" name="bottom"/>
	<note>
		t
	</note>
	<outline>
		<contour>
			<point x="185.892" y="-8" type="curve"/>
			<point x="230.892" y="-8"/>
			<point x="279.102" y="10"/>
			<point x="313.54" y="38" type="curve"/>
			<point x="292.82" y="81" type="line" smooth="yes"/>
			<point x="290.434" y="86"/>
			<point x="286.802" y="89"/>
			<point x="281.802" y="89" type="curve" smooth="yes"/>
			<point x="271.802" y="89"/>
			<point x="236.855" y="65"/>
			<point x="214.855" y="65" type="curve" smooth="yes"/>
			<point x="181.855" y="65"/>
			<point x="161.311" y="85"/>
			<point x="166.591" y="128" type="curve" smooth="yes"/>
			<point x="203.917" y="432" type="line"/>
			<point x="348.917" y="432" type="line"/>
			<point x="356.898" y="497" type="line"/>
			<point x="211.898" y="497" type="line"/>
			<point x="233.263" y="671" type="line"/>
			<point x="188.263" y="671" type="line" smooth="yes"/>
			<point x="177.263" y="671"/>
			<point x="168.526" y="665"/>
			<point x="166.175" y="654" type="curve" smooth="yes"/>
			<point x="126.021" y="498" type="line"/>
			<point x="41.67" y="487" type="line"/>
			<point x="37.373" y="452" type="line" smooth="yes"/>
			<point x="35.777" y="439"/>
			<point x="42.917" y="432"/>
			<point x="53.917" y="432" type="curve" smooth="yes"/>
			<point x="114.917" y="432" type="line"/>
			<point x="76.854" y="122" type="line" smooth="yes"/>
			<point x="66.54" y="38"/>
			<point x="105.892" y="-8"/>
		</contour>
	</outline>
</glyph>
<glyph name="u" format="2">
	<advance width="585"/>
	<unicode hex="0075"/>
	<anchor x="471.365" y="4" name="ogonek"/>
	<anchor x="305.126" y="507" name="top"/>
	<anchor x="520.126" y="507" name="topright"/>
	<anchor x="230.874" y="0" name="bottom"/>
	<note>
		u
	</note>
	<outline>
		<contour>
			<point x="215.892" y="-8" type="curve" smooth="yes"/>
			<point x="286.892" y="-8"/>
			<point x="343.944" y="25"/>
			<point x="393.837" y="73" type="curve"/>
			<point x="394.207" y="19" type="line"/>
			<point x="395.611" y="6"/>
			<point x="402.874" y="0"/>
			<point x="415.874" y="0" type="curve" smooth="yes"/>
			<point x="468.874" y="0" type="line"/>
			<point x="531.126" y="507" type="line"/>
			<point x="442.126" y="507" type="line"/>
			<point x="396.204" y="133" type="line"/>
			<point x="351.802" y="89"/>
			<point x="302.61" y="63"/>
			<point x="250.61" y="63" type="curve" smooth="yes"/>
			<point x="178.61" y="63"/>
			<point x="149.012" y="107"/>
			<point x="158.466" y="184" type="curve" smooth="yes"/>
			<point x="198.126" y="507" type="line"/>
			<point x="109.126" y="507" type="line"/>
			<point x="69.466" y="184" type="line" smooth="yes"/>
			<point x="55.469" y="70"/>
			<point x="104.892" y="-8"/>
		</contour>
		<contour>
			<point x="438.874" y="0" type="line"/>
			<point x="540.874" y="0" type="line"/>
			<point x="545.908" y="41" type="line" smooth="yes"/>
			<point x="547.382" y="53"/>
			<point x="543.241" y="60"/>
			<point x="532.487" y="62" type="curve" smooth="yes"/>
			<point x="459.451" y="78" type="line"/>
		</contour>
		<contour>
			<point x="139.126" y="507" type="line"/>
			<point x="37.126" y="507" type="line"/>
			<point x="32.092" y="466" type="line" smooth="yes"/>
			<point x="30.618" y="454"/>
			<point x="34.759" y="447"/>
			<point x="45.513" y="445" type="curve" smooth="yes"/>
			<point x="118.549" y="429" type="line"/>
		</contour>
		<contour>
			<point x="472.126" y="507" type="line"/>
			<point x="370.126" y="507" type="line"/>
			<point x="365.092" y="466" type="line" smooth="yes"/>
			<point x="363.618" y="454"/>
			<point x="367.759" y="447"/>
			<point x="378.513" y="445" type="curve" smooth="yes"/>
			<point x="451.549" y="429" type="line"/>
		</contour>
	</outline>
</glyph>
<glyph name="v" format="2">
	<advance width="598"/>
	<unicode hex="0076"/>
	<anchor x="330.126" y="507" name="top"/>
	<anchor x="267.874" y="0" name="bottom"/>
	<note>
		v
	</note>
	<outline>
		<contour>
			<point x="227.874" y="0" type="line"/>
			<point x="307.874" y="0" type="line"/>
			<point x="577.126" y="507" type="line"/>
			<point x="507.126" y="507" type="line" smooth="yes"/>
			<point x="494.126" y="507"/>
			<point x="484.144" y="499"/>
			<point x="478.793" y="488" type="curve" smooth="yes"/>
			<point x="308.765" y="162" type="line" smooth="yes"/>
			<point x="295.818" y="138"/>
			<point x="287.872" y="114"/>
			<point x="280.048" y="91" type="curve"/>
			<point x="276.977" y="123"/>
			<point x="274.678" y="145"/>
			<point x="269.765" y="162" type="curve" smooth="yes"/>
			<point x="181.793" y="488" type="line" smooth="yes"/>
			<point x="179.144" y="499"/>
			<point x="171.126" y="507"/>
			<point x="156.126" y="507" type="curve" smooth="yes"/>
			<point x="83.126" y="507" type="line"/>
		</contour>
		<contour>
			<point x="142.056" y="482" type="line"/>
			<point x="217.056" y="482" type="line"/>
			<point x="220.126" y="507" type="line"/>
			<point x="145.126" y="507" type="line"/>
		</contour>
		<contour>
			<point x="453.056" y="482" type="line"/>
			<point x="528.056" y="482" type="line"/>
			<point x="531.126" y="507" type="line"/>
			<point x="456.126" y="507" type="line"/>
		</contour>
		<contour>
			<point x="151.126" y="507" type="line"/>
			<point x="49.126" y="507" type="line"/>
			<point x="44.092" y="466" type="line" smooth="yes"/>
			<point x="42.618" y="454"/>
			<point x="46.759" y="447"/>
			<point x="57.513" y="445" type="curve" smooth="yes"/>
			<point x="130.549" y="429" type="line"/>
		</contour>
		<contour>
			<point x="276.126" y="507" type="line"/>
			<point x="174.126" y="507" type="line"/>
			<point x="175.549" y="429" type="line"/>
			<point x="252.513" y="445" type="line" smooth="yes"/>
			<point x="263.759" y="447"/>
			<point x="269.618" y="454"/>
			<point x="271.092" y="466" type="curve" smooth="yes"/>
		</contour>
		<contour>
			<point x="486.126" y="507" type="line"/>
			<point x="384.126" y="507" type="line"/>
			<point x="379.092" y="466" type="line" smooth="yes"/>
			<point x="377.618" y="454"/>
			<point x="381.759" y="447"/>
			<point x="392.513" y="445" type="curve" smooth="yes"/>
			<point x="465.549" y="429" type="line"/>
		</contour>
		<contour>
			<point x="611.126" y="507" type="line"/>
			<point x="509.126" y="507" type="line"/>
			<point x="510.549" y="429" type="line"/>
			<point x="587.513" y="445" type="line" smooth="yes"/>
			<point x="598.759" y="447"/>
			<point x="604.618" y="454"/>
			<point x="606.092" y="466" type="curve" smooth="yes"/>
		</contour>
	</outline>
</glyph>
<glyph name="w" format="2">
	<advance width="875"/>
	<unicode hex="0077"/>
	<anchor x="469.126" y="507" name="top"/>
	<anchor x="406.874" y="0" name="bottom"/>
	<note>
		w
	</note>
	<outline>
		<contour>
			<point x="193.874" y="0" type="line"/>
			<point x="260.874" y="0" type="line" smooth="yes"/>
			<point x="270.874" y="0"/>
			<point x="278.611" y="6"/>
			<point x="283.961" y="17" type="curve" smooth="yes"/>
			<point x="439.077" y="360" type="line" smooth="yes"/>
			<point x="447.409" y="379"/>
			<point x="452.374" y="395"/>
			<point x="456.847" y="407" type="curve"/>
			<point x="458.006" y="392"/>
			<point x="459.041" y="376"/>
			<point x="462.199" y="361" type="curve" smooth="yes"/>
			<point x="531.961" y="17" type="line" smooth="yes"/>
			<point x="534.611" y="6"/>
			<point x="538.874" y="0"/>
			<point x="547.874" y="0" type="curve" smooth="yes"/>
			<point x="618.874" y="0" type="line"/>
			<point x="845.126" y="507" type="line"/>
			<point x="778.126" y="507" type="line" smooth="yes"/>
			<point x="765.126" y="507"/>
			<point x="754.144" y="499"/>
			<point x="749.793" y="488" type="curve" smooth="yes"/>
			<point x="610.765" y="162" type="line" smooth="yes"/>
			<point x="602.31" y="142"/>
			<point x="593.24" y="117"/>
			<point x="587.416" y="94" type="curve"/>
			<point x="585.24" y="117"/>
			<point x="581.941" y="139"/>
			<point x="577.765" y="162" type="curve" smooth="yes"/>
			<point x="513.039" y="490" type="line" smooth="yes"/>
			<point x="511.266" y="500"/>
			<point x="503.249" y="508"/>
			<point x="490.249" y="508" type="curve" smooth="yes"/>
			<point x="451.249" y="508" type="line" smooth="yes"/>
			<point x="439.249" y="508"/>
			<point x="429.266" y="500"/>
			<point x="425.039" y="490" type="curve" smooth="yes"/>
			<point x="277.765" y="162" type="line" smooth="yes"/>
			<point x="266.818" y="138"/>
			<point x="257.24" y="117"/>
			<point x="249.416" y="94" type="curve"/>
			<point x="249.24" y="117"/>
			<point x="246.818" y="138"/>
			<point x="244.765" y="162" type="curve" smooth="yes"/>
			<point x="187.793" y="488" type="line" smooth="yes"/>
			<point x="186.144" y="499"/>
			<point x="177.126" y="507"/>
			<point x="162.126" y="507" type="curve" smooth="yes"/>
			<point x="92.126" y="507" type="line"/>
		</contour>
		<contour>
			<point x="142.056" y="482" type="line"/>
			<point x="217.056" y="482" type="line"/>
			<point x="220.126" y="507" type="line"/>
			<point x="145.126" y="507" type="line"/>
		</contour>
		<contour>
			<point x="730.056" y="482" type="line"/>
			<point x="805.056" y="482" type="line"/>
			<point x="808.126" y="507" type="line"/>
			<point x="733.126" y="507" type="line"/>
		</contour>
		<contour>
			<point x="151.126" y="507" type="line"/>
			<point x="49.126" y="507" type="line"/>
			<point x="44.092" y="466" type="line" smooth="yes"/>
			<point x="42.618" y="454"/>
			<point x="46.759" y="447"/>
			<point x="57.513" y="445" type="curve" smooth="yes"/>
			<point x="130.549" y="429" type="line"/>
		</contour>
		<contour>
			<point x="276.126" y="507" type="line"/>
			<point x="174.126" y="507" type="line"/>
			<point x="175.549" y="429" type="line"/>
			<point x="252.513" y="445" type="line" smooth="yes"/>
			<point x="263.759" y="447"/>
			<point x="269.618" y="454"/>
			<point x="271.092" y="466" type="curve" smooth="yes"/>
		</contour>
		<contour>
			<point x="763.126" y="507" type="line"/>
			<point x="661.126" y="507" type="line"/>
			<point x="656.092" y="466" type="line" smooth="yes"/>
			<point x="654.618" y="454"/>
			<point x="658.759" y="447"/>
			<point x="669.513" y="445" type="curve" smooth="yes"/>
			<point x="742.549" y="429" type="line"/>
		</contour>
		<contour>
			<point x="888.126" y="507" type="line"/>
			<point x="786.126" y="507" type="line"/>
			<point x="787.549" y="429" type="line"/>
			<point x="864.513" y="445" type="line" smooth="yes"/>
			<point x="875.759" y="447"/>
			<point x="881.618" y="454"/>
			<point x="883.092" y="466" type="curve" smooth="yes"/>
		</contour>
	</outline>
</glyph>
<glyph name="x" format="2">
	<advance width="554"/>
	<unicode hex="0078"/>
	<anchor x="308.126" y="507" name="top"/>
	<anchor x="245.874" y="0" name="bottom"/>
	<note>
		x
	</note>
	<outline>
		<contour>
			<point x="6.874" y="0" type="line"/>
			<point x="6.874" y="0" type="line"/>
			<point x="86.874" y="0" type="line" smooth="yes"/>
			<point x="99.874" y="0"/>
			<point x="108.102" y="10"/>
			<point x="115.207" y="19" type="curve" smooth="yes"/>
			<point x="254.326" y="191" type="line" smooth="yes"/>
			<point x="260.308" y="199"/>
			<point x="264.413" y="208"/>
			<point x="268.518" y="217" type="curve"/>
			<point x="371.207" y="19" type="line" smooth="yes"/>
			<point x="376.102" y="10"/>
			<point x="381.874" y="0"/>
			<point x="396.874" y="0" type="curve" smooth="yes"/>
			<point x="481.874" y="0" type="line"/>
			<point x="337.412" y="265" type="line"/>
			<point x="537.126" y="507" type="line"/>
			<point x="455.126" y="507" type="line" smooth="yes"/>
			<point x="446.126" y="507"/>
			<point x="438.266" y="500"/>
			<point x="431.161" y="491" type="curve" smooth="yes"/>
			<point x="302.516" y="331" type="line" smooth="yes"/>
			<point x="295.411" y="322"/>
			<point x="290.183" y="312"/>
			<point x="286.078" y="303" type="curve"/>
			<point x="185.407" y="493" type="line" smooth="yes"/>
			<point x="180.512" y="502"/>
			<point x="177.126" y="507"/>
			<point x="162.126" y="507" type="curve" smooth="yes"/>
			<point x="76.126" y="507" type="line"/>
			<point x="216.798" y="260" type="line"/>
		</contour>
		<contour>
			<point x="133.46" y="469" type="line"/>
			<point x="207.46" y="469" type="line"/>
			<point x="212.126" y="507" type="line"/>
			<point x="138.126" y="507" type="line"/>
		</contour>
		<contour>
			<point x="406.46" y="469" type="line"/>
			<point x="480.46" y="469" type="line"/>
			<point x="485.126" y="507" type="line"/>
			<point x="411.126" y="507" type="line"/>
		</contour>
		<contour>
			<point x="425.54" y="38" type="line"/>
			<point x="351.54" y="38" type="line"/>
			<point x="346.874" y="0" type="line"/>
			<point x="420.874" y="0" type="line"/>
		</contour>
		<contour>
			<point x="141.54" y="38" type="line"/>
			<point x="67.54" y="38" type="line"/>
			<point x="62.874" y="0" type="line"/>
			<point x="136.874" y="0" type="line"/>
		</contour>
		<contour>
			<point x="167.126" y="507" type="line"/>
			<point x="65.126" y="507" type="line"/>
			<point x="60.092" y="466" type="line" smooth="yes"/>
			<point x="58.618" y="454"/>
			<point x="62.759" y="447"/>
			<point x="73.513" y="445" type="curve" smooth="yes"/>
			<point x="146.549" y="429" type="line"/>
		</contour>
		<contour>
			<point x="265.126" y="507" type="line"/>
			<point x="163.126" y="507" type="line"/>
			<point x="164.549" y="429" type="line"/>
			<point x="241.513" y="445" type="line" smooth="yes"/>
			<point x="252.759" y="447"/>
			<point x="258.618" y="454"/>
			<point x="260.092" y="466" type="curve" smooth="yes"/>
		</contour>
		<contour>
			<point x="450.126" y="507" type="line"/>
			<point x="348.126" y="507" type="line"/>
			<point x="343.092" y="466" type="line" smooth="yes"/>
			<point x="341.618" y="454"/>
			<point x="345.759" y="447"/>
			<point x="356.513" y="445" type="curve" smooth="yes"/>
			<point x="429.549" y="429" type="line"/>
		</contour>
		<contour>
			<point x="548.126" y="507" type="line"/>
			<point x="446.126" y="507" type="line"/>
			<point x="447.549" y="429" type="line"/>
			<point x="524.513" y="445" type="line" smooth="yes"/>
			<point x="535.759" y="447"/>
			<point x="541.618" y="454"/>
			<point x="543.092" y="466" type="curve" smooth="yes"/>
		</contour>
		<contour>
			<point x="390.874" y="0" type="line"/>
			<point x="492.874" y="0" type="line"/>
			<point x="497.908" y="41" type="line" smooth="yes"/>
			<point x="499.382" y="53"/>
			<point x="495.241" y="60"/>
			<point x="484.487" y="62" type="curve" smooth="yes"/>
			<point x="411.451" y="78" type="line"/>
		</contour>
		<contour>
			<point x="96.874" y="0" type="line"/>
			<point x="198.874" y="0" type="line"/>
			<point x="203.908" y="41" type="line" smooth="yes"/>
			<point x="205.382" y="53"/>
			<point x="201.241" y="60"/>
			<point x="190.487" y="62" type="curve" smooth="yes"/>
			<point x="117.451" y="78" type="line"/>
		</contour>
		<contour>
			<point x="-1.126" y="0" type="line"/>
			<point x="100.874" y="0" type="line"/>
			<point x="99.451" y="78" type="line"/>
			<point x="22.487" y="62" type="line" smooth="yes"/>
			<point x="11.241" y="60"/>
			<point x="5.382" y="53"/>
			<point x="3.908" y="41" type="curve" smooth="yes"/>
		</contour>
		<contour>
			<point x="293.874" y="0" type="line"/>
			<point x="395.874" y="0" type="line"/>
			<point x="394.451" y="78" type="line"/>
			<point x="317.487" y="62" type="line" smooth="yes"/>
			<point x="306.241" y="60"/>
			<point x="300.382" y="53"/>
			<point x="298.908" y="41" type="curve" smooth="yes"/>
		</contour>
	</outline>
</glyph>
<glyph name="y" format="2">
	<advance width="597"/>
	<unicode hex="0079"/>
	<anchor x="330.126" y="507" name="top"/>
	<anchor x="306.735" y="-50" name="bottom"/>
	<note>
		y
	</note>
	<outline>
		<contour>
			<point x="114.755" y="-172" type="line"/>
			<point x="180.755" y="-172" type="line" smooth="yes"/>
			<point x="199.755" y="-172"/>
			<point x="207.737" y="-164"/>
			<point x="215.456" y="-150" type="curve" smooth="yes"/>
			<point x="578.126" y="507" type="line"/>
			<point x="507.126" y="507" type="line" smooth="yes"/>
			<point x="496.126" y="507"/>
			<point x="484.144" y="499"/>
			<point x="478.793" y="488" type="curve" smooth="yes"/>
			<point x="308.747" y="170" type="line" smooth="yes"/>
			<point x="299.783" y="154"/>
			<point x="294.064" y="140"/>
			<point x="288.222" y="125" type="curve"/>
			<point x="285.941" y="139"/>
			<point x="282.397" y="159"/>
			<point x="279.625" y="169" type="curve" smooth="yes"/>
			<point x="183.793" y="488" type="line" smooth="yes"/>
			<point x="180.898" y="497"/>
			<point x="174.126" y="507"/>
			<point x="158.126" y="507" type="curve" smooth="yes"/>
			<point x="81.126" y="507" type="line"/>
			<point x="231.558" y="30" type="line"/>
		</contour>
		<contour>
			<point x="142.056" y="482" type="line"/>
			<point x="217.056" y="482" type="line"/>
			<point x="220.126" y="507" type="line"/>
			<point x="145.126" y="507" type="line"/>
		</contour>
		<contour>
			<point x="452.056" y="482" type="line"/>
			<point x="527.056" y="482" type="line"/>
			<point x="530.126" y="507" type="line"/>
			<point x="455.126" y="507" type="line"/>
		</contour>
		<contour>
			<point x="151.126" y="507" type="line"/>
			<point x="49.126" y="507" type="line"/>
			<point x="44.092" y="466" type="line" smooth="yes"/>
			<point x="42.618" y="454"/>
			<point x="46.759" y="447"/>
			<point x="57.513" y="445" type="curve" smooth="yes"/>
			<point x="130.549" y="429" type="line"/>
		</contour>
		<contour>
			<point x="276.126" y="507" type="line"/>
			<point x="174.126" y="507" type="line"/>
			<point x="175.549" y="429" type="line"/>
			<point x="252.513" y="445" type="line" smooth="yes"/>
			<point x="263.759" y="447"/>
			<point x="269.618" y="454"/>
			<point x="271.092" y="466" type="curve" smooth="yes"/>
		</contour>
		<contour>
			<point x="485.126" y="507" type="line"/>
			<point x="383.126" y="507" type="line"/>
			<point x="378.092" y="466" type="line" smooth="yes"/>
			<point x="376.618" y="454"/>
			<point x="380.759" y="447"/>
			<point x="391.513" y="445" type="curve" smooth="yes"/>
			<point x="464.549" y="429" type="line"/>
		</contour>
		<contour>
			<point x="610.126" y="507" type="line"/>
			<point x="508.126" y="507" type="line"/>
			<point x="509.549" y="429" type="line"/>
			<point x="586.513" y="445" type="line" smooth="yes"/>
			<point x="597.759" y="447"/>
			<point x="603.618" y="454"/>
			<point x="605.092" y="466" type="curve" smooth="yes"/>
		</contour>
	</outline>
</glyph>
<glyph name="z" format="2">
	<advance width="472"/>
	<unicode hex="007A"/>
	<anchor x="273.126" y="507" name="top"/>
	<anchor x="210.874" y="0" name="bottom"/>
	<note>
		z
	</note>
	<outline>
		<contour>
			<point x="8.874" y="0" type="line"/>
			<point x="394.874" y="0" type="line"/>
			<point x="403.469" y="70" type="line"/>
			<point x="122.469" y="70" type="line"/>
			<point x="441.285" y="435" type="line" smooth="yes"/>
			<point x="449.513" y="445"/>
			<point x="456.864" y="456"/>
			<point x="458.46" y="469" type="curve" smooth="yes"/>
			<point x="463.126" y="507" type="line"/>
			<point x="86.126" y="507" type="line"/>
			<point x="77.531" y="437" type="line"/>
			<point x="350.531" y="437" type="line"/>
			<point x="30.346" y="69" type="line" smooth="yes"/>
			<point x="20.996" y="58"/>
			<point x="14.522" y="46"/>
			<point x="13.417" y="37" type="curve" smooth="yes"/>
		</contour>
		<contour>
			<point x="143.127" y="450" type="line"/>
			<point x="77.531" y="437" type="line"/>
			<point x="67.954" y="359" type="line"/>
			<point x="100.954" y="359" type="line" smooth="yes"/>
			<point x="114.954" y="359"/>
			<point x="121.813" y="366"/>
			<point x="123.918" y="375" type="curve" smooth="yes"/>
			<point x="143.127" y="450" type="line"/>
		</contour>
		<contour>
			<point x="337.873" y="57" type="line"/>
			<point x="403.469" y="70" type="line"/>
			<point x="413.046" y="148" type="line"/>
			<point x="380.046" y="148" type="line" smooth="yes"/>
			<point x="366.046" y="148"/>
			<point x="359.187" y="141"/>
			<point x="357.082" y="132" type="curve" smooth="yes"/>
			<point x="337.873" y="57" type="line"/>
		</contour>
	</outline>
</glyph>
<glyph name="braceleft" format="2">
	<advance width="337"/>
	<unicode hex="007B"/>
	<note>
		braceleft
	</note>
	<outline>
		<contour>
			<point x="212.07" y="-145" type="curve" smooth="yes"/>
			<point x="238.07" y="-145" type="line"/>
			<point x="242.982" y="-105" type="line" smooth="yes"/>
			<point x="244.578" y="-92"/>
			<point x="233.315" y="-86"/>
			<point x="225.315" y="-86" type="curve" smooth="yes"/>
			<point x="215.315" y="-86" type="line" smooth="yes"/>
			<point x="164.315" y="-86"/>
			<point x="136.612" y="-51"/>
			<point x="143.856" y="8" type="curve" smooth="yes"/>
			<point x="151.592" y="71"/>
			<point x="184.783" y="154"/>
			<point x="191.904" y="212" type="curve" smooth="yes"/>
			<point x="197.675" y="259"/>
			<point x="171.709" y="300"/>
			<point x="129.06" y="311" type="curve"/>
			<point x="175.779" y="325"/>
			<point x="210.199" y="361"/>
			<point x="216.339" y="411" type="curve" smooth="yes"/>
			<point x="223.46" y="469"/>
			<point x="210.651" y="552"/>
			<point x="218.387" y="615" type="curve" smooth="yes"/>
			<point x="225.385" y="672"/>
			<point x="261.806" y="708"/>
			<point x="312.806" y="708" type="curve" smooth="yes"/>
			<point x="322.806" y="708" type="line" smooth="yes"/>
			<point x="330.806" y="708"/>
			<point x="343.542" y="714"/>
			<point x="345.138" y="727" type="curve" smooth="yes"/>
			<point x="350.05" y="767" type="line"/>
			<point x="324.05" y="767" type="line" smooth="yes"/>
			<point x="218.05" y="767"/>
			<point x="151.56" y="706"/>
			<point x="139.65" y="609" type="curve" smooth="yes"/>
			<point x="132.406" y="550"/>
			<point x="148.215" y="467"/>
			<point x="141.216" y="410" type="curve" smooth="yes"/>
			<point x="135.936" y="367"/>
			<point x="108.375" y="338"/>
			<point x="63.375" y="338" type="curve"/>
			<point x="56.868" y="285" type="line"/>
			<point x="101.868" y="285"/>
			<point x="122.061" y="254"/>
			<point x="117.027" y="213" type="curve" smooth="yes"/>
			<point x="110.029" y="156"/>
			<point x="73.715" y="72"/>
			<point x="66.593" y="14" type="curve" smooth="yes"/>
			<point x="54.806" y="-82"/>
			<point x="106.07" y="-145"/>
		</contour>
	</outline>
</glyph>
<glyph name="braceright" format="2">
	<advance width="337"/>
	<unicode hex="007D"/>
	<note>
		braceright
	</note>
	<outline>
		<contour>
			<point x="139.05" y="767" type="curve" smooth="yes"/>
			<point x="113.05" y="767" type="line"/>
			<point x="108.138" y="727" type="line" smooth="yes"/>
			<point x="106.542" y="714"/>
			<point x="117.806" y="708"/>
			<point x="125.806" y="708" type="curve" smooth="yes"/>
			<point x="135.806" y="708" type="line" smooth="yes"/>
			<point x="186.806" y="708"/>
			<point x="214.508" y="673"/>
			<point x="207.264" y="614" type="curve" smooth="yes"/>
			<point x="199.528" y="551"/>
			<point x="166.337" y="468"/>
			<point x="159.216" y="410" type="curve" smooth="yes"/>
			<point x="153.445" y="363"/>
			<point x="179.411" y="322"/>
			<point x="222.06" y="311" type="curve"/>
			<point x="175.341" y="297"/>
			<point x="140.921" y="261"/>
			<point x="134.782" y="211" type="curve" smooth="yes"/>
			<point x="127.66" y="153"/>
			<point x="140.469" y="70"/>
			<point x="132.734" y="7" type="curve" smooth="yes"/>
			<point x="125.735" y="-50"/>
			<point x="89.315" y="-86"/>
			<point x="38.315" y="-86" type="curve" smooth="yes"/>
			<point x="28.315" y="-86" type="line" smooth="yes"/>
			<point x="20.315" y="-86"/>
			<point x="7.578" y="-92"/>
			<point x="5.982" y="-105" type="curve" smooth="yes"/>
			<point x="1.07" y="-145" type="line"/>
			<point x="27.07" y="-145" type="line" smooth="yes"/>
			<point x="133.07" y="-145"/>
			<point x="199.56" y="-84"/>
			<point x="211.47" y="13" type="curve" smooth="yes"/>
			<point x="218.715" y="72"/>
			<point x="202.906" y="155"/>
			<point x="209.904" y="212" type="curve" smooth="yes"/>
			<point x="215.184" y="255"/>
			<point x="242.745" y="284"/>
			<point x="287.745" y="284" type="curve"/>
			<point x="294.253" y="337" type="line"/>
			<point x="249.253" y="337"/>
			<point x="229.059" y="368"/>
			<point x="234.093" y="409" type="curve" smooth="yes"/>
			<point x="241.092" y="466"/>
			<point x="277.406" y="550"/>
			<point x="284.527" y="608" type="curve" smooth="yes"/>
			<point x="296.314" y="704"/>
			<point x="245.05" y="767"/>
		</contour>
	</outline>
</glyph>
<glyph name="asciitilde" format="2">
	<advance width="594"/>
	<unicode hex="007E"/>
	<note>
		asciitilde
	</note>
	<outline>
		<contour>
			<point x="394.569" y="307" type="curve"/>
			<point x="394.569" y="307" type="line"/>
			<point x="344.569" y="307"/>
			<point x="280.954" y="359"/>
			<point x="214.954" y="359" type="curve" smooth="yes"/>
			<point x="129.954" y="359"/>
			<point x="71.341" y="297"/>
			<point x="60.291" y="207" type="curve"/>
			<point x="132.291" y="207" type="line"/>
			<point x="139.184" y="255"/>
			<point x="167.868" y="285"/>
			<point x="211.868" y="285" type="curve" smooth="yes"/>
			<point x="259.868" y="285"/>
			<point x="327.483" y="233"/>
			<point x="390.483" y="233" type="curve" smooth="yes"/>
			<point x="477.483" y="233"/>
			<point x="534.096" y="295"/>
			<point x="545.023" y="384" type="curve"/>
			<point x="473.023" y="384" type="line"/>
			<point x="467.253" y="337"/>
			<point x="437.569" y="307"/>
		</contour>
	</outline>
</glyph>
<glyph name="exclamdown" format="2">
	<advance width="295"/>
	<unicode hex="00A1"/>
	<note>
		exclamdown
	</note>
	<outline>
		<contour>
			<point x="139.755" y="-172" type="line"/>
			<point x="173.03" y="99" type="line" smooth="yes"/>
			<point x="179.046" y="148"/>
			<point x="182.378" y="224"/>
			<point x="183.254" y="280" type="curve"/>
			<point x="122.254" y="280" type="line"/>
			<point x="109.378" y="224"/>
			<point x="94.046" y="148"/>
			<point x="88.03" y="99" type="curve" smooth="yes"/>
			<point x="54.755" y="-172" type="line"/>
			<point x="139.755" y="-172" type="line"/>
		</contour>
		<contour>
			<point x="109.373" y="452" type="curve"/>
			<point x="109.373" y="452" type="line"/>
			<point x="105.075" y="417"/>
			<point x="129.637" y="389"/>
			<point x="164.637" y="389" type="curve" smooth="yes"/>
			<point x="198.637" y="389"/>
			<point x="230.198" y="418"/>
			<point x="234.373" y="452" type="curve" smooth="yes"/>
			<point x="238.67" y="487"/>
			<point x="214.108" y="515"/>
			<point x="180.108" y="515" type="curve" smooth="yes"/>
			<point x="145.108" y="515"/>
			<point x="113.67" y="487"/>
		</contour>
	</outline>
</glyph>
<glyph name="sterling" format="2">
	<advance width="627"/>
	<unicode hex="00A3"/>
	<note>
		sterling
	</note>
	<outline>
		<contour>
			<point x="31.874" y="0" type="line"/>
			<point x="552.874" y="0" type="line"/>
			<point x="562.329" y="77" type="line"/>
			<point x="224.329" y="77" type="line" smooth="yes"/>
			<point x="204.329" y="77"/>
			<point x="185.083" y="75"/>
			<point x="165.592" y="71" type="curve"/>
			<point x="202.398" y="102"/>
			<point x="226.45" y="135"/>
			<point x="232.712" y="186" type="curve" smooth="yes"/>
			<point x="247.569" y="307" type="line"/>
			<point x="442.569" y="307" type="line" smooth="yes"/>
			<point x="457.569" y="307"/>
			<point x="470.042" y="319"/>
			<point x="471.516" y="331" type="curve" smooth="yes"/>
			<point x="475.936" y="367" type="line"/>
			<point x="254.936" y="367" type="line"/>
			<point x="271.144" y="499" type="line" smooth="yes"/>
			<point x="282.194" y="589"/>
			<point x="332.439" y="648"/>
			<point x="417.439" y="648" type="curve" smooth="yes"/>
			<point x="476.439" y="648"/>
			<point x="494.878" y="619"/>
			<point x="520.58" y="584" type="curve" smooth="yes"/>
			<point x="527.475" y="575"/>
			<point x="534.984" y="571"/>
			<point x="543.984" y="571" type="curve" smooth="yes"/>
			<point x="550.984" y="571"/>
			<point x="558.23" y="573"/>
			<point x="565.721" y="577" type="curve" smooth="yes"/>
			<point x="578.703" y="585"/>
			<point x="591.563" y="592"/>
			<point x="604.545" y="600" type="curve"/>
			<point x="579.631" y="674"/>
			<point x="522.77" y="724"/>
			<point x="426.77" y="724" type="curve" smooth="yes"/>
			<point x="284.77" y="724"/>
			<point x="196.106" y="629"/>
			<point x="180.021" y="498" type="curve" smooth="yes"/>
			<point x="163.936" y="367" type="line"/>
			<point x="96.936" y="367" type="line" smooth="yes"/>
			<point x="76.936" y="367"/>
			<point x="64.217" y="353"/>
			<point x="62.13" y="336" type="curve" smooth="yes"/>
			<point x="58.569" y="307" type="line"/>
			<point x="156.569" y="307" type="line"/>
			<point x="138.888" y="163" type="line" smooth="yes"/>
			<point x="131.766" y="105"/>
			<point x="87.715" y="72"/>
			<point x="38.996" y="58" type="curve"/>
		</contour>
		<contour>
			<point x="477.259" y="52" type="line"/>
			<point x="562.329" y="77" type="line"/>
			<point x="573.502" y="168" type="line"/>
			<point x="527.502" y="168" type="line" smooth="yes"/>
			<point x="516.502" y="168"/>
			<point x="508.011" y="164"/>
			<point x="504.537" y="152" type="curve" smooth="yes"/>
		</contour>
	</outline>
</glyph>
<glyph name="yen" format="2">
	<advance width="558"/>
	<unicode hex="00A5"/>
	<note>
		yen
	</note>
	<outline>
		<contour>
			<point x="65.044" y="262" type="line"/>
			<point x="235.044" y="262" type="line"/>
			<point x="228.536" y="209" type="line"/>
			<point x="58.536" y="209" type="line"/>
			<point x="52.274" y="158" type="line"/>
			<point x="222.274" y="158" type="line"/>
			<point x="202.874" y="0" type="line"/>
			<point x="292.874" y="0" type="line"/>
			<point x="312.274" y="158" type="line"/>
			<point x="482.274" y="158" type="line"/>
			<point x="488.536" y="209" type="line"/>
			<point x="318.536" y="209" type="line"/>
			<point x="325.044" y="262" type="line"/>
			<point x="495.044" y="262" type="line"/>
			<point x="501.306" y="313" type="line"/>
			<point x="347.306" y="313" type="line"/>
			<point x="601.911" y="717" type="line"/>
			<point x="526.911" y="717" type="line" smooth="yes"/>
			<point x="509.911" y="717"/>
			<point x="497.56" y="706"/>
			<point x="491.087" y="694" type="curve" smooth="yes"/>
			<point x="318.339" y="411" type="line"/>
			<point x="306.515" y="388"/>
			<point x="298.304" y="370"/>
			<point x="291.849" y="350" type="curve"/>
			<point x="289.304" y="370"/>
			<point x="284.515" y="388"/>
			<point x="278.339" y="411" type="curve"/>
			<point x="175.087" y="694" type="line" smooth="yes"/>
			<point x="169.683" y="707"/>
			<point x="161.911" y="717"/>
			<point x="144.911" y="717" type="curve" smooth="yes"/>
			<point x="69.911" y="717" type="line"/>
			<point x="224.306" y="313" type="line"/>
			<point x="71.306" y="313" type="line"/>
			<point x="65.044" y="262" type="line"/>
		</contour>
	</outline>
</glyph>
<glyph name="section" format="2">
	<advance width="481"/>
	<unicode hex="00A7"/>
	<note>
		section
	</note>
	<outline>
		<contour>
			<point x="186.139" y="-63" type="curve" smooth="yes"/>
			<point x="303.139" y="-63"/>
			<point x="385.12" y="2"/>
			<point x="397.275" y="101" type="curve" smooth="yes"/>
			<point x="403.169" y="149"/>
			<point x="380.975" y="180"/>
			<point x="354.799" y="203" type="curve"/>
			<point x="413.869" y="228"/>
			<point x="444.272" y="272"/>
			<point x="450.902" y="326" type="curve" smooth="yes"/>
			<point x="460.602" y="405"/>
			<point x="394.636" y="446"/>
			<point x="328.442" y="477" type="curve" smooth="yes"/>
			<point x="267.758" y="504"/>
			<point x="192.95" y="530"/>
			<point x="199.212" y="581" type="curve" smooth="yes"/>
			<point x="204.492" y="624"/>
			<point x="251.666" y="658"/>
			<point x="311.666" y="658" type="curve" smooth="yes"/>
			<point x="349.666" y="658"/>
			<point x="409.246" y="622"/>
			<point x="425.246" y="622" type="curve" smooth="yes"/>
			<point x="434.246" y="622"/>
			<point x="440.737" y="626"/>
			<point x="445.597" y="633" type="curve" smooth="yes"/>
			<point x="469.526" y="665" type="line"/>
			<point x="437.823" y="700"/>
			<point x="387.77" y="724"/>
			<point x="317.77" y="724" type="curve" smooth="yes"/>
			<point x="209.77" y="724"/>
			<point x="130.035" y="661"/>
			<point x="119.721" y="577" type="curve" smooth="yes"/>
			<point x="113.704" y="528"/>
			<point x="132.53" y="494"/>
			<point x="163.337" y="468" type="curve"/>
			<point x="97.513" y="445"/>
			<point x="65.111" y="401"/>
			<point x="58.726" y="349" type="curve" smooth="yes"/>
			<point x="48.78" y="268"/>
			<point x="113.992" y="229"/>
			<point x="186.308" y="199" type="curve" smooth="yes"/>
			<point x="252.87" y="171"/>
			<point x="324.923" y="147"/>
			<point x="317.434" y="86" type="curve" smooth="yes"/>
			<point x="311.049" y="34"/>
			<point x="265.997" y="1"/>
			<point x="201.997" y="1" type="curve" smooth="yes"/>
			<point x="153.997" y="1"/>
			<point x="96.645" y="47"/>
			<point x="75.645" y="47" type="curve" smooth="yes"/>
			<point x="63.645" y="47"/>
			<point x="56.031" y="42"/>
			<point x="49.926" y="33" type="curve" smooth="yes"/>
			<point x="24.751" y="-1" type="line"/>
			<point x="60.331" y="-37"/>
			<point x="115.139" y="-63"/>
		</contour>
		<contour>
			<point x="310.36" y="232" type="curve"/>
			<point x="277.325" y="248"/>
			<point x="244.798" y="260"/>
			<point x="211.008" y="278" type="curve" smooth="yes"/>
			<point x="167.709" y="300"/>
			<point x="134.656" y="324"/>
			<point x="139.445" y="363" type="curve" smooth="yes"/>
			<point x="143.374" y="395"/>
			<point x="162.321" y="419"/>
			<point x="208.777" y="439" type="curve"/>
			<point x="231.303" y="427"/>
			<point x="297.742" y="398"/>
			<point x="322.146" y="385" type="curve" smooth="yes"/>
			<point x="354.69" y="365"/>
			<point x="374.498" y="339"/>
			<point x="370.446" y="306" type="curve" smooth="yes"/>
			<point x="366.64" y="275"/>
			<point x="348.447" y="249"/>
		</contour>
	</outline>
</glyph>
<glyph name="dieresis" format="2">
	<advance width="396"/>
	<unicode hex="00A8"/>
	<note>
		dieresis
	</note>
	<outline>
		<contour>
			<point x="213.07" y="645" type="curve"/>
			<point x="213.07" y="645" type="line"/>
			<point x="216.754" y="675"/>
			<point x="193.069" y="702"/>
			<point x="163.069" y="702" type="curve" smooth="yes"/>
			<point x="133.069" y="702"/>
			<point x="103.754" y="675"/>
			<point x="100.07" y="645" type="curve" smooth="yes"/>
			<point x="96.387" y="615"/>
			<point x="119.194" y="589"/>
			<point x="149.194" y="589" type="curve" smooth="yes"/>
			<point x="180.194" y="589"/>
			<point x="209.387" y="615"/>
		</contour>
		<contour>
			<point x="392.07" y="645" type="curve"/>
			<point x="392.07" y="645" type="line"/>
			<point x="395.876" y="676"/>
			<point x="373.069" y="702"/>
			<point x="343.069" y="702" type="curve" smooth="yes"/>
			<point x="313.069" y="702"/>
			<point x="283.876" y="676"/>
			<point x="280.07" y="645" type="curve" smooth="yes"/>
			<point x="276.264" y="614"/>
			<point x="298.194" y="589"/>
			<point x="329.194" y="589" type="curve" smooth="yes"/>
			<point x="359.194" y="589"/>
			<point x="388.264" y="614"/>
		</contour>
	</outline>
</glyph>
<glyph name="copyright" format="2">
	<advance width="791"/>
	<unicode hex="00A9"/>
	<note>
		copyright
	</note>
	<outline>
		<contour>
			<point x="192.954" y="359" type="curve" smooth="yes"/>
			<point x="185.341" y="297"/>
			<point x="198.22" y="239"/>
			<point x="229.308" y="199" type="curve" smooth="yes"/>
			<point x="263.029" y="156"/>
			<point x="312.082" y="132"/>
			<point x="383.082" y="132" type="curve" smooth="yes"/>
			<point x="455.082" y="132"/>
			<point x="511.397" y="159"/>
			<point x="550.554" y="201" type="curve"/>
			<point x="524.606" y="234" type="line" smooth="yes"/>
			<point x="522.097" y="238"/>
			<point x="516.22" y="239"/>
			<point x="514.22" y="239" type="curve" smooth="yes"/>
			<point x="510.22" y="239"/>
			<point x="504.974" y="237"/>
			<point x="500.483" y="233" type="curve" smooth="yes"/>
			<point x="468.291" y="207"/>
			<point x="434.063" y="197"/>
			<point x="400.063" y="197" type="curve" smooth="yes"/>
			<point x="304.063" y="197"/>
			<point x="260.658" y="267"/>
			<point x="272.077" y="360" type="curve" smooth="yes"/>
			<point x="284.109" y="458"/>
			<point x="350.213" y="524"/>
			<point x="445.213" y="524" type="curve" smooth="yes"/>
			<point x="472.213" y="524"/>
			<point x="500.477" y="518"/>
			<point x="525.494" y="510" type="curve"/>
			<point x="527.846" y="464" type="line" smooth="yes"/>
			<point x="528.496" y="453"/>
			<point x="532.882" y="448"/>
			<point x="542.882" y="448" type="curve" smooth="yes"/>
			<point x="573.882" y="448" type="line"/>
			<point x="587.02" y="555" type="line"/>
			<point x="540.598" y="576"/>
			<point x="498.317" y="590"/>
			<point x="448.317" y="590" type="curve" smooth="yes"/>
			<point x="387.317" y="590"/>
			<point x="327.861" y="570"/>
			<point x="277.336" y="525" type="curve" smooth="yes"/>
			<point x="230.179" y="483"/>
			<point x="201.426" y="428"/>
		</contour>
		<contour>
			<point x="363.015" y="-7" type="curve" smooth="yes"/>
			<point x="564.015" y="-7"/>
			<point x="749.151" y="157"/>
			<point x="773.831" y="358" type="curve" smooth="yes"/>
			<point x="798.265" y="557"/>
			<point x="657.77" y="724"/>
			<point x="452.77" y="724" type="curve" smooth="yes"/>
			<point x="251.77" y="724"/>
			<point x="67.511" y="559"/>
			<point x="42.831" y="358" type="curve" smooth="yes"/>
			<point x="18.274" y="158"/>
			<point x="163.015" y="-7"/>
		</contour>
		<contour>
			<point x="368.54" y="38" type="curve" smooth="yes"/>
			<point x="195.54" y="38"/>
			<point x="70.73" y="178"/>
			<point x="92.831" y="358" type="curve" smooth="yes"/>
			<point x="114.687" y="536"/>
			<point x="271.49" y="681"/>
			<point x="447.49" y="681" type="curve" smooth="yes"/>
			<point x="625.49" y="681"/>
			<point x="746.564" y="535"/>
			<point x="724.831" y="358" type="curve" smooth="yes"/>
			<point x="703.589" y="185"/>
			<point x="548.54" y="38"/>
		</contour>
	</outline>
</glyph>
<glyph name="ordfeminine" format="2">
	<advance width="328.8"/>
	<unicode hex="00AA"/>
	<anchor x="205.197" y="1" name="ogonek"/>
	<anchor x="88.074" y="0" name="bottom"/>
	<anchor x="131.155" y="302" name="top"/>
	<note>
		ordfeminine
	</note>
	<outline>
		<contour>
			<point x="131.784" y="413" type="curve" smooth="yes"/>
			<point x="172.784" y="413"/>
			<point x="203.626" y="428"/>
			<point x="238.064" y="456" type="curve"/>
			<point x="241.24" y="433" type="line" smooth="yes"/>
			<point x="242.766" y="421"/>
			<point x="249.398" y="418"/>
			<point x="263.398" y="418" type="curve" smooth="yes"/>
			<point x="293.398" y="418" type="line"/>
			<point x="316.85" y="609" type="line" smooth="yes"/>
			<point x="325.322" y="678"/>
			<point x="290.093" y="725"/>
			<point x="221.093" y="725" type="curve" smooth="yes"/>
			<point x="174.093" y="725"/>
			<point x="130.251" y="710"/>
			<point x="92.199" y="677" type="curve"/>
			<point x="101.621" y="656" type="line" smooth="yes"/>
			<point x="104.007" y="651"/>
			<point x="109.147" y="644"/>
			<point x="119.147" y="644" type="curve" smooth="yes"/>
			<point x="140.147" y="644"/>
			<point x="172.585" y="672"/>
			<point x="205.585" y="672" type="curve" smooth="yes"/>
			<point x="239.585" y="672"/>
			<point x="256.13" y="652"/>
			<point x="250.85" y="609" type="curve" smooth="yes"/>
			<point x="248.517" y="590" type="line"/>
			<point x="178.271" y="588"/>
			<point x="132.798" y="576"/>
			<point x="101.588" y="558" type="curve" smooth="yes"/>
			<point x="72.501" y="541"/>
			<point x="57.677" y="518"/>
			<point x="54.852" y="495" type="curve" smooth="yes"/>
			<point x="48.345" y="442"/>
			<point x="81.784" y="413"/>
		</contour>
		<contour>
			<point x="157.432" y="459" type="curve"/>
			<point x="132.432" y="459"/>
			<point x="116.906" y="471"/>
			<point x="120.221" y="498" type="curve" smooth="yes"/>
			<point x="124.273" y="531"/>
			<point x="167.114" y="546"/>
			<point x="243.483" y="549" type="curve"/>
			<point x="236.73" y="494" type="line"/>
			<point x="211.906" y="471"/>
			<point x="188.432" y="459"/>
		</contour>
		<contour>
			<point x="277.398" y="418" type="line"/>
			<point x="336.398" y="418" type="line"/>
			<point x="340.204" y="449" type="line" smooth="yes"/>
			<point x="341.432" y="459"/>
			<point x="336.923" y="463"/>
			<point x="328.169" y="465" type="curve" smooth="yes"/>
			<point x="291.151" y="473" type="line"/>
		</contour>
	</outline>
</glyph>
<glyph name="guillemotleft" format="2">
	<advance width="463"/>
	<unicode hex="00AB"/>
	<note>
		guillemotleft
	</note>
	<outline>
		<contour>
			<point x="170.855" y="65" type="line"/>
			<point x="201.574" y="79" type="line" smooth="yes"/>
			<point x="211.398" y="83"/>
			<point x="216.884" y="89.667"/>
			<point x="218.03" y="99" type="curve" smooth="yes"/>
			<point x="218.685" y="104.333"/>
			<point x="217.129" y="110.667"/>
			<point x="215.117" y="116" type="curve" smooth="yes"/>
			<point x="151.202" y="247" type="line" smooth="yes"/>
			<point x="148.102" y="254.333"/>
			<point x="144.172" y="260.333"/>
			<point x="139.412" y="265" type="curve"/>
			<point x="144.57" y="269"/>
			<point x="149.973" y="275"/>
			<point x="155.622" y="283" type="curve" smooth="yes"/>
			<point x="251.707" y="414" type="line" smooth="yes"/>
			<point x="255.695" y="419.333"/>
			<point x="258.017" y="424.667"/>
			<point x="258.671" y="430" type="curve" smooth="yes"/>
			<point x="259.817" y="439.333"/>
			<point x="256.092" y="447"/>
			<point x="247.25" y="451" type="curve" smooth="yes"/>
			<point x="219.969" y="465" type="line"/>
			<point x="71.149" y="271" type="line"/>
			<point x="69.675" y="259" type="line"/>
			<point x="170.855" y="65" type="line"/>
		</contour>
		<contour>
			<point x="318.855" y="65" type="line"/>
			<point x="349.574" y="79" type="line" smooth="yes"/>
			<point x="359.398" y="83"/>
			<point x="364.884" y="89.667"/>
			<point x="366.03" y="99" type="curve" smooth="yes"/>
			<point x="366.685" y="104.333"/>
			<point x="365.129" y="110.667"/>
			<point x="363.117" y="116" type="curve" smooth="yes"/>
			<point x="299.202" y="247" type="line" smooth="yes"/>
			<point x="296.102" y="254.333"/>
			<point x="292.172" y="260.333"/>
			<point x="287.412" y="265" type="curve"/>
			<point x="292.57" y="269"/>
			<point x="297.973" y="275"/>
			<point x="303.622" y="283" type="curve" smooth="yes"/>
			<point x="399.707" y="414" type="line" smooth="yes"/>
			<point x="403.695" y="419.333"/>
			<point x="406.017" y="424.667"/>
			<point x="406.671" y="430" type="curve" smooth="yes"/>
			<point x="407.817" y="439.333"/>
			<point x="404.092" y="447"/>
			<point x="395.25" y="451" type="curve" smooth="yes"/>
			<point x="367.969" y="465" type="line"/>
			<point x="219.149" y="271" type="line"/>
			<point x="217.675" y="259" type="line"/>
			<point x="318.855" y="65" type="line"/>
		</contour>
	</outline>
</glyph>
<glyph name="logicalnot" format="2">
	<advance width="573"/>
	<unicode hex="00AC"/>
	<note>
		logicalnot
	</note>
	<outline>
		<contour>
			<point x="78.955" y="302" type="line"/>
			<point x="433.955" y="302" type="line"/>
			<point x="416.274" y="158" type="line"/>
			<point x="491.274" y="158" type="line"/>
			<point x="517.304" y="370" type="line"/>
			<point x="87.304" y="370" type="line"/>
			<point x="78.955" y="302" type="line"/>
		</contour>
	</outline>
</glyph>
<glyph name="uni00AD" format="2">
	<advance width="347"/>
	<unicode hex="00AD"/>
	<note>
		uni00AD
	</note>
	<outline>
		<contour>
			<point x="51.044" y="262" type="line"/>
			<point x="298.044" y="262" type="line"/>
			<point x="307.375" y="338" type="line"/>
			<point x="60.375" y="338" type="line"/>
			<point x="51.044" y="262" type="line"/>
		</contour>
	</outline>
</glyph>
